  0
SECTION
  2
HEADER
  9
$ACADVER
  1
AC1015
  9
$ACADMAINTVER
 70
6
  9
$DWGCODEPAGE
  3
ANSI_1252
  9
$EXTMIN
 10
1e+20
 20
1e+20
 30
1e+20
  9
$EXTMAX
 10
-1e+20
 20
-1e+20
 30
-1e+20
  9
$LIMMIN
 10
0.0
 20
0.0
  9
$LIMMAX
 10
420.0
 20
297.0
  9
$TDCREATE
 40
2460451.9439930557
  9
$TDUPDATE
 40
2460451.9439930557
  9
$HANDSEED
  5
10090
  9
$PEXTMIN
 10
1e+20
 20
1e+20
 30
1e+20
  9
$PEXTMAX
 10
-1e+20
 20
-1e+20
 30
-1e+20
  9
$PLIMMIN
 10
0.0
 20
0.0
  9
$PLIMMAX
 10
420.0
 20
297.0
  9
$INSUNITS
 70
4
  9
$FINGERPRINTGUID
  2
{EAE9CE02-AA33-436D-976F-5D0423ECCE1E}
  9
$VERSIONGUID
  2
{A861FF74-2F9C-4F6E-B18A-B421EA9FF901}
  0
ENDSEC
  0
SECTION
  2
CLASSES
  0
CLASS
  1
ACDBDICTIONARYWDFLT
  2
AcDbDictionaryWithDefault
  3
ObjectDBX Classes
 90
0
280
0
281
0
  0
CLASS
  1
SUN
  2
AcDbSun
  3
SCENEOE
 90
1153
280
0
281
0
  0
CLASS
  1
VISUALSTYLE
  2
AcDbVisualStyle
  3
ObjectDBX Classes
 90
4095
280
0
281
0
  0
CLASS
  1
MATERIAL
  2
AcDbMaterial
  3
ObjectDBX Classes
 90
1153
280
0
281
0
  0
CLASS
  1
SCALE
  2
AcDbScale
  3
ObjectDBX Classes
 90
1153
280
0
281
0
  0
CLASS
  1
TABLESTYLE
  2
AcDbTableStyle
  3
ObjectDBX Classes
 90
4095
280
0
281
0
  0
CLASS
  1
MLEADERSTYLE
  2
AcDbMLeaderStyle
  3
ACDB_MLEADERSTYLE_CLASS
 90
4095
280
0
281
0
  0
CLASS
  1
DICTIONARYVAR
  2
AcDbDictionaryVar
  3
ObjectDBX Classes
 90
0
280
0
281
0
  0
CLASS
  1
CELLSTYLEMAP
  2
AcDbCellStyleMap
  3
ObjectDBX Classes
 90
1152
280
0
281
0
  0
CLASS
  1
MENTALRAYRENDERSETTINGS
  2
AcDbMentalRayRenderSettings
  3
SCENEOE
 90
1024
280
0
281
0
  0
CLASS
  1
ACDBDETAILVIEWSTYLE
  2
AcDbDetailViewStyle
  3
ObjectDBX Classes
 90
1025
280
0
281
0
  0
CLASS
  1
ACDBSECTIONVIEWSTYLE
  2
AcDbSectionViewStyle
  3
ObjectDBX Classes
 90
1025
280
0
281
0
  0
CLASS
  1
RASTERVARIABLES
  2
AcDbRasterVariables
  3
ISM
 90
0
280
0
281
0
  0
CLASS
  1
ACDBPLACEHOLDER
  2
AcDbPlaceHolder
  3
ObjectDBX Classes
 90
0
280
0
281
0
  0
CLASS
  1
LAYOUT
  2
AcDbLayout
  3
ObjectDBX Classes
 90
0
280
0
281
0
  0
ENDSEC
  0
SECTION
  2
TABLES
  0
TABLE
  2
VPORT
  5
8
330
0
100
AcDbSymbolTable
 70
1
  0
VPORT
  5
1006A
330
8
100
AcDbSymbolTableRecord
100
AcDbViewportTableRecord
  2
*Active
 70
0
 10
0.0
 20
0.0
 11
1.0
 21
1.0
 12
0.0
 22
0.0
 13
0.0
 23
0.0
 14
0.5
 24
0.5
 15
0.5
 25
0.5
 16
0.0
 26
0.0
 36
1.0
 17
0.0
 27
0.0
 37
0.0
 40
1000.0
 41
1.34
 42
50.0
 43
0.0
 44
0.0
 50
0.0
 51
0.0
 71
0
 72
1000
 73
1
 74
3
 75
0
 76
0
 77
0
 78
0
281
0
 65
0
146
0.0
  0
ENDTAB
  0
TABLE
  2
LTYPE
  5
5
330
0
100
AcDbSymbolTable
 70
3
  0
LTYPE
  5
1006B
330
5
100
AcDbSymbolTableRecord
100
AcDbLinetypeTableRecord
  2
Continuous
 70
0
  3

 72
65
 73
0
 40
0.0
  0
ENDTAB
  0
TABLE
  2
LAYER
  5
2
330
0
100
AcDbSymbolTable
 70
2
  0
LAYER
  5
50
330
2
100
AcDbSymbolTableRecord
100
AcDbLayerTableRecord
  2
0
 70
0
 62
7
  6
CONTINUOUS
370
-3
390
10060
  0
LAYER
  5
1006C
330
2
100
AcDbSymbolTableRecord
100
AcDbLayerTableRecord
  2
Defpoints
 70
0
 62
7
  6
Continuous
290
0
370
-3
390
10060
  0
ENDTAB
  0
TABLE
  2
STYLE
  5
3
330
0
100
AcDbSymbolTable
 70
1
  0
STYLE
  5
11
330
3
100
AcDbSymbolTableRecord
100
AcDbTextStyleTableRecord
  2
STANDARD
 70
0
 40
0.0
 41
1.0
 50
0.0
 71
0
 42
2.5
  3
txt
  4

  0
ENDTAB
  0
TABLE
  2
VIEW
  5
6
330
0
100
AcDbSymbolTable
 70
0
  0
ENDTAB
  0
TABLE
  2
UCS
  5
7
330
0
100
AcDbSymbolTable
 70
0
  0
ENDTAB
  0
TABLE
  2
APPID
  5
9
330
0
100
AcDbSymbolTable
 70
3
  0
APPID
  5
12
330
9
100
AcDbSymbolTableRecord
100
AcDbRegAppTableRecord
  2
ACAD
 70
0
  0
APPID
  5
1008C
330
9
100
AcDbSymbolTableRecord
100
AcDbRegAppTableRecord
  2
HATCHBACKGROUNDCOLOR
 70
0
  0
APPID
  5
1008D
330
9
100
AcDbSymbolTableRecord
100
AcDbRegAppTableRecord
  2
EZDXF
 70
0
  0
ENDTAB
  0
TABLE
  2
DIMSTYLE
  5
A
330
0
100
AcDbSymbolTable
 70
1
100
AcDbDimStyleTable
  0
DIMSTYLE
105
1006D
330
A
100
AcDbSymbolTableRecord
100
AcDbDimStyleTableRecord
  2
Standard
 70
0
  3

  4

 40
1.0
 41
2.5
 42
0.625
 43
3.75
 44
1.25
 45
0.0
 46
0.0
 47
0.0
 48
0.0
140
2.5
141
2.5
142
0.0
143
0.03937007874
144
1.0
145
0.0
146
1.0
147
0.625
148
0.0
 71
0
 72
0
 73
0
 74
0
 75
0
 76
0
 77
1
 78
8
 79
3
170
0
171
3
172
1
173
0
174
0
175
0
176
0
177
0
178
0
179
2
271
2
272
2
273
2
274
3
275
0
276
0
277
2
278
44
279
0
280
0
281
0
282
0
283
0
284
8
285
0
286
0
288
0
289
3
371
-2
372
-2
  0
ENDTAB
  0
TABLE
  2
BLOCK_RECORD
  5
1
330
0
100
AcDbSymbolTable
 70
22
  0
BLOCK_RECORD
  5
1F
330
1
100
AcDbSymbolTableRecord
100
AcDbBlockTableRecord
  2
*MODEL_SPACE
340
10064
  0
BLOCK_RECORD
  5
1B
330
1
100
AcDbSymbolTableRecord
100
AcDbBlockTableRecord
  2
*PAPER_SPACE
340
10065
  0
BLOCK_RECORD
  5
FFFF
330
1
100
AcDbSymbolTableRecord
100
AcDbBlockTableRecord
  2
_CLOSEDFILLED
340
0
  0
BLOCK_RECORD
  5
10003
330
1
100
AcDbSymbolTableRecord
100
AcDbBlockTableRecord
  2
_ORIGIN2
340
0
  0
BLOCK_RECORD
  5
10009
330
1
100
AcDbSymbolTableRecord
100
AcDbBlockTableRecord
  2
_NONE
340
0
  0
BLOCK_RECORD
  5
1000C
330
1
100
AcDbSymbolTableRecord
100
AcDbBlockTableRecord
  2
_BOXBLANK
340
0
  0
BLOCK_RECORD
  5
10011
330
1
100
AcDbSymbolTableRecord
100
AcDbBlockTableRecord
  2
_CLOSED
340
0
  0
BLOCK_RECORD
  5
10016
330
1
100
AcDbSymbolTableRecord
100
AcDbBlockTableRecord
  2
_OBLIQUE
340
0
  0
BLOCK_RECORD
  5
1001A
330
1
100
AcDbSymbolTableRecord
100
AcDbBlockTableRecord
  2
_ARCHTICK
340
0
  0
BLOCK_RECORD
  5
1001E
330
1
100
AcDbSymbolTableRecord
100
AcDbBlockTableRecord
  2
_DOTSMALL
340
0
  0
BLOCK_RECORD
  5
10022
330
1
100
AcDbSymbolTableRecord
100
AcDbBlockTableRecord
  2
_DOT
340
0
  0
BLOCK_RECORD
  5
10027
330
1
100
AcDbSymbolTableRecord
100
AcDbBlockTableRecord
  2
_DATUMBLANK
340
0
  0
BLOCK_RECORD
  5
1002B
330
1
100
AcDbSymbolTableRecord
100
AcDbBlockTableRecord
  2
_SMALL
340
0
  0
BLOCK_RECORD
  5
1002F
330
1
100
AcDbSymbolTableRecord
100
AcDbBlockTableRecord
  2
_DATUMFILLED
340
0
  0
BLOCK_RECORD
  5
10033
330
1
100
AcDbSymbolTableRecord
100
AcDbBlockTableRecord
  2
_ORIGIN
340
0
  0
BLOCK_RECORD
  5
10038
330
1
100
AcDbSymbolTableRecord
100
AcDbBlockTableRecord
  2
_OPEN90
340
0
  0
BLOCK_RECORD
  5
1003D
330
1
100
AcDbSymbolTableRecord
100
AcDbBlockTableRecord
  2
_INTEGRAL
340
0
  0
BLOCK_RECORD
  5
10042
330
1
100
AcDbSymbolTableRecord
100
AcDbBlockTableRecord
  2
_OPEN30
340
0
  0
BLOCK_RECORD
  5
10047
330
1
100
AcDbSymbolTableRecord
100
AcDbBlockTableRecord
  2
_OPEN
340
0
  0
BLOCK_RECORD
  5
1004C
330
1
100
AcDbSymbolTableRecord
100
AcDbBlockTableRecord
  2
_BOXFILLED
340
0
  0
BLOCK_RECORD
  5
10051
330
1
100
AcDbSymbolTableRecord
100
AcDbBlockTableRecord
  2
_DOTBLANK
340
0
  0
BLOCK_RECORD
  5
10056
330
1
100
AcDbSymbolTableRecord
100
AcDbBlockTableRecord
  2
_CLOSEDBLANK
340
0
  0
ENDTAB
  0
ENDSEC
  0
SECTION
  2
BLOCKS
  0
BLOCK
  5
20
330
1F
100
AcDbEntity
  8
0
100
AcDbBlockBegin
  2
*MODEL_SPACE
 70
0
 10
0.0
 20
0.0
 30
0.0
  3
*MODEL_SPACE
  1

  0
ENDBLK
  5
21
330
1F
100
AcDbEntity
  8
0
100
AcDbBlockEnd
  0
BLOCK
  5
1C
330
1B
100
AcDbEntity
  8
0
100
AcDbBlockBegin
  2
*PAPER_SPACE
 70
0
 10
0.0
 20
0.0
 30
0.0
  3
*PAPER_SPACE
  1

  0
ENDBLK
  5
1D
330
1B
100
AcDbEntity
  8
0
100
AcDbBlockEnd
  0
BLOCK
  5
10000
330
FFFF
100
AcDbEntity
  8
0
100
AcDbBlockBegin
  2
_CLOSEDFILLED
 70
0
 10
0.0
 20
0.0
 30
0.0
  3
_CLOSEDFILLED
  1

  0
SOLID
  5
10002
330
FFFF
100
AcDbEntity
  8
0
  6
BYBLOCK
 62
0
100
AcDbTrace
 10
-1.0
 20
0.16439898372402537
 30
0.0
 11
0.0
 21
0.0
 31
0.0
 12
-1.0
 22
-0.16439898372402537
 32
0.0
 13
-1.0
 23
-0.16439898372402537
 33
0.0
  0
ENDBLK
  5
10001
330
FFFF
100
AcDbEntity
  8
0
100
AcDbBlockEnd
  0
BLOCK
  5
10004
330
10003
100
AcDbEntity
  8
0
100
AcDbBlockBegin
  2
_ORIGIN2
 70
0
 10
0.0
 20
0.0
 30
0.0
  3
_ORIGIN2
  1

  0
CIRCLE
  5
10006
330
10003
100
AcDbEntity
  8
0
  6
BYBLOCK
 62
0
100
AcDbCircle
 10
0.0
 20
0.0
 30
0.0
 40
0.5
  0
CIRCLE
  5
10007
330
10003
100
AcDbEntity
  8
0
  6
BYBLOCK
 62
0
100
AcDbCircle
 10
0.0
 20
0.0
 30
0.0
 40
0.25
  0
LINE
  5
10008
330
10003
100
AcDbEntity
  8
0
  6
BYBLOCK
 62
0
100
AcDbLine
 10
-0.5
 20
0.0
 30
0.0
 11
-1.0
 21
0.0
 31
0.0
  0
ENDBLK
  5
10005
330
10003
100
AcDbEntity
  8
0
100
AcDbBlockEnd
  0
BLOCK
  5
1000A
330
10009
100
AcDbEntity
  8
0
100
AcDbBlockBegin
  2
_NONE
 70
0
 10
0.0
 20
0.0
 30
0.0
  3
_NONE
  1

  0
ENDBLK
  5
1000B
330
10009
100
AcDbEntity
  8
0
100
AcDbBlockEnd
  0
BLOCK
  5
1000D
330
1000C
100
AcDbEntity
  8
0
100
AcDbBlockBegin
  2
_BOXBLANK
 70
0
 10
0.0
 20
0.0
 30
0.0
  3
_BOXBLANK
  1

  0
LWPOLYLINE
  5
1000F
330
1000C
100
AcDbEntity
  8
0
  6
BYBLOCK
 62
0
100
AcDbPolyline
 90
4
 70
1
 10
-0.5
 20
-0.5
 10
0.5
 20
-0.5
 10
0.5
 20
0.5
 10
-0.5
 20
0.5
  0
LINE
  5
10010
330
1000C
100
AcDbEntity
  8
0
  6
BYBLOCK
 62
0
100
AcDbLine
 10
-0.5
 20
0.0
 30
0.0
 11
-1.0
 21
0.0
 31
0.0
  0
ENDBLK
  5
1000E
330
1000C
100
AcDbEntity
  8
0
100
AcDbBlockEnd
  0
BLOCK
  5
10012
330
10011
100
AcDbEntity
  8
0
100
AcDbBlockBegin
  2
_CLOSED
 70
0
 10
0.0
 20
0.0
 30
0.0
  3
_CLOSED
  1

  0
LWPOLYLINE
  5
10014
330
10011
100
AcDbEntity
  8
0
  6
BYBLOCK
 62
0
100
AcDbPolyline
 90
3
 70
1
 10
-1.0
 20
0.16439898372402537
 10
0.0
 20
0.0
 10
-1.0
 20
-0.16439898372402537
  0
LINE
  5
10015
330
10011
100
AcDbEntity
  8
0
  6
BYBLOCK
 62
0
100
AcDbLine
 10
0.0
 20
0.0
 30
0.0
 11
-1.0
 21
0.0
 31
0.0
  0
ENDBLK
  5
10013
330
10011
100
AcDbEntity
  8
0
100
AcDbBlockEnd
  0
BLOCK
  5
10017
330
10016
100
AcDbEntity
  8
0
100
AcDbBlockBegin
  2
_OBLIQUE
 70
0
 10
0.0
 20
0.0
 30
0.0
  3
_OBLIQUE
  1

  0
LINE
  5
10019
330
10016
100
AcDbEntity
  8
0
  6
BYBLOCK
 62
0
100
AcDbLine
 10
-0.5
 20
-0.5
 30
0.0
 11
0.5
 21
0.5
 31
0.0
  0
ENDBLK
  5
10018
330
10016
100
AcDbEntity
  8
0
100
AcDbBlockEnd
  0
BLOCK
  5
1001B
330
1001A
100
AcDbEntity
  8
0
100
AcDbBlockBegin
  2
_ARCHTICK
 70
0
 10
0.0
 20
0.0
 30
0.0
  3
_ARCHTICK
  1

  0
LWPOLYLINE
  5
1001D
330
1001A
100
AcDbEntity
  8
0
  6
BYBLOCK
 62
0
100
AcDbPolyline
 90
2
 70
0
 43
0.15
 10
-0.5
 20
-0.5
 10
0.5
 20
0.5
  0
ENDBLK
  5
1001C
330
1001A
100
AcDbEntity
  8
0
100
AcDbBlockEnd
  0
BLOCK
  5
1001F
330
1001E
100
AcDbEntity
  8
0
100
AcDbBlockBegin
  2
_DOTSMALL
 70
0
 10
0.0
 20
0.0
 30
0.0
  3
_DOTSMALL
  1

  0
LWPOLYLINE
  5
10021
330
1001E
100
AcDbEntity
  8
0
  6
BYBLOCK
 62
0
100
AcDbPolyline
 90
2
 70
1
 43
0.125
 10
-0.0625
 20
0.0
 42
1.0
 10
0.0625
 20
0.0
 42
1.0
  0
ENDBLK
  5
10020
330
1001E
100
AcDbEntity
  8
0
100
AcDbBlockEnd
  0
BLOCK
  5
10023
330
10022
100
AcDbEntity
  8
0
100
AcDbBlockBegin
  2
_DOT
 70
0
 10
0.0
 20
0.0
 30
0.0
  3
_DOT
  1

  0
LINE
  5
10025
330
10022
100
AcDbEntity
  8
0
  6
BYBLOCK
 62
0
100
AcDbLine
 10
-0.5
 20
0.0
 30
0.0
 11
-1.0
 21
0.0
 31
0.0
  0
LWPOLYLINE
  5
10026
330
10022
100
AcDbEntity
  8
0
  6
BYBLOCK
 62
0
100
AcDbPolyline
 90
2
 70
1
 43
0.5
 10
-0.25
 20
0.0
 42
1.0
 10
0.25
 20
0.0
 42
1.0
  0
ENDBLK
  5
10024
330
10022
100
AcDbEntity
  8
0
100
AcDbBlockEnd
  0
BLOCK
  5
10028
330
10027
100
AcDbEntity
  8
0
100
AcDbBlockBegin
  2
_DATUMBLANK
 70
0
 10
0.0
 20
0.0
 30
0.0
  3
_DATUMBLANK
  1

  0
LWPOLYLINE
  5
1002A
330
10027
100
AcDbEntity
  8
0
  6
BYBLOCK
 62
0
100
AcDbPolyline
 90
3
 70
1
 10
0.0
 20
0.577350269
 10
0.0
 20
-0.577350269
 10
-1.0
 20
0.0
  0
ENDBLK
  5
10029
330
10027
100
AcDbEntity
  8
0
100
AcDbBlockEnd
  0
BLOCK
  5
1002C
330
1002B
100
AcDbEntity
  8
0
100
AcDbBlockBegin
  2
_SMALL
 70
0
 10
0.0
 20
0.0
 30
0.0
  3
_SMALL
  1

  0
CIRCLE
  5
1002E
330
1002B
100
AcDbEntity
  8
0
  6
BYBLOCK
 62
0
100
AcDbCircle
 10
0.0
 20
0.0
 30
0.0
 40
0.25
  0
ENDBLK
  5
1002D
330
1002B
100
AcDbEntity
  8
0
100
AcDbBlockEnd
  0
BLOCK
  5
10030
330
1002F
100
AcDbEntity
  8
0
100
AcDbBlockBegin
  2
_DATUMFILLED
 70
0
 10
0.0
 20
0.0
 30
0.0
  3
_DATUMFILLED
  1

  0
SOLID
  5
10032
330
1002F
100
AcDbEntity
  8
0
  6
BYBLOCK
 62
0
100
AcDbTrace
 10
0.0
 20
0.577350269
 30
0.0
 11
0.0
 21
-0.577350269
 31
0.0
 12
-1.0
 22
0.0
 32
0.0
 13
-1.0
 23
0.0
 33
0.0
  0
ENDBLK
  5
10031
330
1002F
100
AcDbEntity
  8
0
100
AcDbBlockEnd
  0
BLOCK
  5
10034
330
10033
100
AcDbEntity
  8
0
100
AcDbBlockBegin
  2
_ORIGIN
 70
0
 10
0.0
 20
0.0
 30
0.0
  3
_ORIGIN
  1

  0
CIRCLE
  5
10036
330
10033
100
AcDbEntity
  8
0
  6
BYBLOCK
 62
0
100
AcDbCircle
 10
0.0
 20
0.0
 30
0.0
 40
0.5
  0
LINE
  5
10037
330
10033
100
AcDbEntity
  8
0
  6
BYBLOCK
 62
0
100
AcDbLine
 10
0.0
 20
0.0
 30
0.0
 11
-1.0
 21
0.0
 31
0.0
  0
ENDBLK
  5
10035
330
10033
100
AcDbEntity
  8
0
100
AcDbBlockEnd
  0
BLOCK
  5
10039
330
10038
100
AcDbEntity
  8
0
100
AcDbBlockBegin
  2
_OPEN90
 70
0
 10
0.0
 20
0.0
 30
0.0
  3
_OPEN90
  1

  0
LWPOLYLINE
  5
1003B
330
10038
100
AcDbEntity
  8
0
  6
BYBLOCK
 62
0
100
AcDbPolyline
 90
3
 70
0
 10
-1.0
 20
0.7071067811865475
 10
0.0
 20
0.0
 10
-1.0
 20
-0.7071067811865475
  0
LINE
  5
1003C
330
10038
100
AcDbEntity
  8
0
  6
BYBLOCK
 62
0
100
AcDbLine
 10
0.0
 20
0.0
 30
0.0
 11
-1.0
 21
0.0
 31
0.0
  0
ENDBLK
  5
1003A
330
10038
100
AcDbEntity
  8
0
100
AcDbBlockEnd
  0
BLOCK
  5
1003E
330
1003D
100
AcDbEntity
  8
0
100
AcDbBlockBegin
  2
_INTEGRAL
 70
0
 10
0.0
 20
0.0
 30
0.0
  3
_INTEGRAL
  1

  0
ARC
  5
10040
330
1003D
100
AcDbEntity
  8
0
  6
BYBLOCK
 62
0
100
AcDbCircle
 10
-0.3535534
 20
0.0
 30
0.0
 40
0.3535534
100
AcDbArc
 50
-90.0
 51
0.0
  0
ARC
  5
10041
330
1003D
100
AcDbEntity
  8
0
  6
BYBLOCK
 62
0
100
AcDbCircle
 10
0.3535534
 20
0.0
 30
0.0
 40
0.3535534
100
AcDbArc
 50
90.0
 51
180.0
  0
ENDBLK
  5
1003F
330
1003D
100
AcDbEntity
  8
0
100
AcDbBlockEnd
  0
BLOCK
  5
10043
330
10042
100
AcDbEntity
  8
0
100
AcDbBlockBegin
  2
_OPEN30
 70
0
 10
0.0
 20
0.0
 30
0.0
  3
_OPEN30
  1

  0
LWPOLYLINE
  5
10045
330
10042
100
AcDbEntity
  8
0
  6
BYBLOCK
 62
0
100
AcDbPolyline
 90
3
 70
0
 10
-1.0
 20
0.25881904510252074
 10
0.0
 20
0.0
 10
-1.0
 20
-0.25881904510252074
  0
LINE
  5
10046
330
10042
100
AcDbEntity
  8
0
  6
BYBLOCK
 62
0
100
AcDbLine
 10
0.0
 20
0.0
 30
0.0
 11
-1.0
 21
0.0
 31
0.0
  0
ENDBLK
  5
10044
330
10042
100
AcDbEntity
  8
0
100
AcDbBlockEnd
  0
BLOCK
  5
10048
330
10047
100
AcDbEntity
  8
0
100
AcDbBlockBegin
  2
_OPEN
 70
0
 10
0.0
 20
0.0
 30
0.0
  3
_OPEN
  1

  0
LWPOLYLINE
  5
1004A
330
10047
100
AcDbEntity
  8
0
  6
BYBLOCK
 62
0
100
AcDbPolyline
 90
3
 70
0
 10
-1.0
 20
0.16439898372402537
 10
0.0
 20
0.0
 10
-1.0
 20
-0.16439898372402537
  0
LINE
  5
1004B
330
10047
100
AcDbEntity
  8
0
  6
BYBLOCK
 62
0
100
AcDbLine
 10
0.0
 20
0.0
 30
0.0
 11
-1.0
 21
0.0
 31
0.0
  0
ENDBLK
  5
10049
330
10047
100
AcDbEntity
  8
0
100
AcDbBlockEnd
  0
BLOCK
  5
1004D
330
1004C
100
AcDbEntity
  8
0
100
AcDbBlockBegin
  2
_BOXFILLED
 70
0
 10
0.0
 20
0.0
 30
0.0
  3
_BOXFILLED
  1

  0
SOLID
  5
1004F
330
1004C
100
AcDbEntity
  8
0
  6
BYBLOCK
 62
0
100
AcDbTrace
 10
-0.5
 20
-0.5
 30
0.0
 11
0.5
 21
-0.5
 31
0.0
 12
-0.5
 22
0.5
 32
0.0
 13
0.5
 23
0.5
 33
0.0
  0
LINE
  5
10050
330
1004C
100
AcDbEntity
  8
0
  6
BYBLOCK
 62
0
100
AcDbLine
 10
-0.5
 20
0.0
 30
0.0
 11
-1.0
 21
0.0
 31
0.0
  0
ENDBLK
  5
1004E
330
1004C
100
AcDbEntity
  8
0
100
AcDbBlockEnd
  0
BLOCK
  5
10052
330
10051
100
AcDbEntity
  8
0
100
AcDbBlockBegin
  2
_DOTBLANK
 70
0
 10
0.0
 20
0.0
 30
0.0
  3
_DOTBLANK
  1

  0
CIRCLE
  5
10054
330
10051
100
AcDbEntity
  8
0
  6
BYBLOCK
 62
0
100
AcDbCircle
 10
0.0
 20
0.0
 30
0.0
 40
0.5
  0
LINE
  5
10055
330
10051
100
AcDbEntity
  8
0
  6
BYBLOCK
 62
0
100
AcDbLine
 10
-0.5
 20
0.0
 30
0.0
 11
-1.0
 21
0.0
 31
0.0
  0
ENDBLK
  5
10053
330
10051
100
AcDbEntity
  8
0
100
AcDbBlockEnd
  0
BLOCK
  5
10057
330
10056
100
AcDbEntity
  8
0
100
AcDbBlockBegin
  2
_CLOSEDBLANK
 70
0
 10
0.0
 20
0.0
 30
0.0
  3
_CLOSEDBLANK
  1

  0
LWPOLYLINE
  5
10059
330
10056
100
AcDbEntity
  8
0
  6
BYBLOCK
 62
0
100
AcDbPolyline
 90
3
 70
1
 10
-1.0
 20
0.16439898372402537
 10
0.0
 20
0.0
 10
-1.0
 20
-0.16439898372402537
  0
ENDBLK
  5
10058
330
10056
100
AcDbEntity
  8
0
100
AcDbBlockEnd
  0
ENDSEC
  0
SECTION
  2
ENTITIES
  0
CIRCLE
  5
100
330
1F
100
AcDbEntity
  8
0
100
AcDbCircle
 10
42.8625
 20
-38.10000000000001
 30
0.0
 40
1.0
  0
CIRCLE
  5
101
330
1F
100
AcDbEntity
  8
0
100
AcDbCircle
 10
16.668750000000003
 20
-19.050000000000004
 30
0.0
 40
1.0
  0
LWPOLYLINE
  5
102
330
1F
100
AcDbEntity
  8
0
100
AcDbPolyline
 90
8
 70
1
 10
276.0
 20
-83.975
 10
276.0
 20
7.774999999999999
 42
0.41421356237676266
 10
274.25000000002194
 20
9.524999999999999
 10
-7.55
 20
9.525000000000002
 42
0.4142134283001034
 10
-9.3
 20
7.7750000000250346
 10
-9.300021000114
 20
-83.97499999998695
 42
0.41421674236804323
 10
-7.54999999995524
 20
-85.72499999999998
 10
274.2499798820079
 20
-85.72501899988464
 42
0.41421341473593287
  0
CIRCLE
  5
103
330
1F
100
AcDbEntity
  8
0
100
AcDbCircle
 10
90.4875
 20
-57.15
 30
0.0
 40
1.0
  0
CIRCLE
  5
104
330
1F
100
AcDbEntity
  8
0
100
AcDbCircle
 10
138.11249999999998
 20
-38.10000000000001
 30
0.0
 40
1.0
  0
CIRCLE
  5
105
330
1F
100
AcDbEntity
  8
0
100
AcDbCircle
 10
-7.14375
 20
-38.10000000000001
 30
0.0
 40
1.0
  0
CIRCLE
  5
106
330
1F
100
AcDbEntity
  8
0
100
AcDbCircle
 10
28.575
 20
0.0
 30
0.0
 40
1.0
  0
CIRCLE
  5
107
330
1F
100
AcDbEntity
  8
0
100
AcDbCircle
 10
185.7375
 20
-57.15
 30
0.0
 40
1.0
  0
CIRCLE
  5
108
330
1F
100
AcDbEntity
  8
0
100
AcDbCircle
 10
171.44999999999996
 20
-19.050000000000004
 30
0.0
 40
1.0
  0
CIRCLE
  5
109
330
1F
100
AcDbEntity
  8
0
100
AcDbCircle
 10
142.875
 20
0.0
 30
0.0
 40
1.0
  0
CIRCLE
  5
110
330
1F
100
AcDbEntity
  8
0
100
AcDbCircle
 10
66.67500000000001
 20
0.0
 30
0.0
 40
1.0
  0
CIRCLE
  5
111
330
1F
100
AcDbEntity
  8
0
100
AcDbCircle
 10
95.25
 20
-19.050000000000004
 30
0.0
 40
1.0
  0
LWPOLYLINE
  5
112
330
1F
100
AcDbEntity
  8
0
100
AcDbPolyline
 90
8
 70
1
 10
140.3375
 20
-31.6
 10
140.3375
 20
-44.6
 42
0.4142123908030501
 10
140.83750000000003
 20
-45.10000000000001
 10
154.4375
 20
-45.10000000000001
 42
0.4142135623730951
 10
154.9375
 20
-44.6
 10
154.9375
 20
-31.6
 42
0.4142135623730951
 10
154.4375
 20
-31.1
 10
140.83750000000003
 20
-31.1
 42
0.4142123908030527
  0
LWPOLYLINE
  5
113
330
1F
100
AcDbEntity
  8
0
100
AcDbPolyline
 90
8
 70
1
 10
187.9625
 20
-50.650000000000006
 10
187.9625
 20
-63.650000000000006
 42
0.41421239080304495
 10
188.4625
 20
-64.14999999999999
 10
202.0625
 20
-64.14999999999999
 42
0.4142135623730951
 10
202.5625
 20
-63.650000000000006
 10
202.5625
 20
-50.650000000000006
 42
0.4142135623730951
 10
202.0625
 20
-50.150000000000006
 10
188.4625
 20
-50.150000000000006
 42
0.41421239080303973
  0
LWPOLYLINE
  5
114
330
1F
100
AcDbEntity
  8
0
100
AcDbPolyline
 90
8
 70
1
 10
216.53750000000002
 20
-31.6
 10
216.53750000000002
 20
-44.6
 42
0.41421239080303973
 10
217.0375
 20
-45.10000000000001
 10
230.6375
 20
-45.10000000000001
 42
0.4142135623730951
 10
231.1375
 20
-44.6
 10
231.1375
 20
-31.6
 42
0.4142135623730951
 10
230.6375
 20
-31.1
 10
217.0375
 20
-31.1
 42
0.4142123908030423
  0
LWPOLYLINE
  5
115
330
1F
100
AcDbEntity
  8
0
100
AcDbPolyline
 90
8
 70
1
 10
59.375
 20
-12.55
 10
59.375
 20
-25.55
 42
0.4142123908030527
 10
59.87500000000001
 20
-26.050000000000004
 10
73.47499999999998
 20
-26.050000000000004
 42
0.4142135623730951
 10
73.97499999999998
 20
-25.55
 10
73.97499999999998
 20
-12.55
 42
0.4142135623730951
 10
73.47499999999998
 20
-12.05
 10
59.87500000000001
 20
-12.05
 42
0.4142123908030514
  0
LWPOLYLINE
  5
116
330
1F
100
AcDbEntity
  8
0
100
AcDbPolyline
 90
8
 70
1
 10
64.1375
 20
-31.6
 10
64.1375
 20
-44.6
 42
0.4142123908030501
 10
64.63750000000002
 20
-45.10000000000001
 10
78.23749999999998
 20
-45.10000000000001
 42
0.4142135623730951
 10
78.73749999999998
 20
-44.6
 10
78.73749999999998
 20
-31.6
 42
0.4142135623730951
 10
78.23749999999998
 20
-31.1
 10
64.63750000000002
 20
-31.1
 42
0.4142123908030527
  0
LWPOLYLINE
  5
117
330
1F
100
AcDbEntity
  8
0
100
AcDbPolyline
 90
8
 70
1
 10
-2.5375000000000005
 20
-12.55
 10
-2.5375000000000005
 20
-25.55
 42
0.4142135623730951
 10
-2.0375
 20
-26.050000000000004
 10
11.5625
 20
-26.050000000000004
 42
0.4142123908030501
 10
12.0625
 20
-25.55
 10
12.0625
 20
-12.55
 42
0.41421239080304884
 10
11.5625
 20
-12.05
 10
-2.037500000000001
 20
-12.05
 42
0.41421356237309453
  0
LWPOLYLINE
  5
118
330
1F
100
AcDbEntity
  8
0
100
AcDbPolyline
 90
8
 70
1
 10
211.77500000000003
 20
-12.55
 10
211.77500000000003
 20
-25.55
 42
0.41421239080306316
 10
212.27500000000003
 20
-26.050000000000004
 10
225.87500000000003
 20
-26.050000000000004
 42
0.4142135623730951
 10
226.37500000000003
 20
-25.55
 10
226.37500000000003
 20
-12.55
 42
0.4142135623730951
 10
225.87500000000003
 20
-12.05
 10
212.27500000000003
 20
-12.05
 42
0.4142123908030618
  0
LWPOLYLINE
  5
119
330
1F
100
AcDbEntity
  8
0
100
AcDbPolyline
 90
8
 70
1
 10
173.675
 20
-12.55
 10
173.675
 20
-25.55
 42
0.41421239080306316
 10
174.175
 20
-26.050000000000004
 10
187.775
 20
-26.050000000000004
 42
0.4142135623730951
 10
188.275
 20
-25.55
 10
188.275
 20
-12.55
 42
0.4142135623730951
 10
187.775
 20
-12.05
 10
174.175
 20
-12.05
 42
0.4142123908030618
  0
LWPOLYLINE
  5
120
330
1F
100
AcDbEntity
  8
0
100
AcDbPolyline
 90
8
 70
1
 10
107.00000000000001
 20
6.5
 10
107.00000000000001
 20
-6.5
 42
0.4142123908030417
 10
107.5
 20
-7.000000000000001
 10
121.1
 20
-7.000000000000001
 42
0.4142135623730951
 10
121.6
 20
-6.5
 10
121.6
 20
6.5
 42
0.4142135623730951
 10
121.1
 20
7.000000000000001
 10
107.5
 20
7.000000000000001
 42
0.4142123908030417
  0
LWPOLYLINE
  5
121
330
1F
100
AcDbEntity
  8
0
100
AcDbPolyline
 90
8
 70
1
 10
78.42499999999998
 20
-12.55
 10
78.42499999999998
 20
-25.55
 42
0.41421239080304756
 10
78.92499999999998
 20
-26.050000000000004
 10
92.525
 20
-26.050000000000004
 42
0.4142135623730951
 10
93.025
 20
-25.55
 10
93.025
 20
-12.55
 42
0.4142135623730951
 10
92.525
 20
-12.05
 10
78.92499999999998
 20
-12.05
 42
0.4142123908030463
  0
LWPOLYLINE
  5
122
330
1F
100
AcDbEntity
  8
0
100
AcDbPolyline
 90
8
 70
1
 10
168.9125
 20
-50.650000000000006
 10
168.9125
 20
-63.650000000000006
 42
0.41421239080304495
 10
169.4125
 20
-64.14999999999999
 10
183.0125
 20
-64.14999999999999
 42
0.4142135623730951
 10
183.5125
 20
-63.650000000000006
 10
183.5125
 20
-50.650000000000006
 42
0.4142135623730951
 10
183.0125
 20
-50.150000000000006
 10
169.4125
 20
-50.150000000000006
 42
0.41421239080303973
  0
LWPOLYLINE
  5
123
330
1F
100
AcDbEntity
  8
0
100
AcDbPolyline
 90
8
 70
1
 10
207.01250000000002
 20
-50.650000000000006
 10
207.01250000000002
 20
-63.650000000000006
 42
0.41421239080304495
 10
207.5125
 20
-64.14999999999999
 10
221.1125
 20
-64.14999999999999
 42
0.4142135623730951
 10
221.6125
 20
-63.650000000000006
 10
221.6125
 20
-50.650000000000006
 42
0.4142135623730951
 10
221.1125
 20
-50.150000000000006
 10
207.5125
 20
-50.150000000000006
 42
0.41421239080303973
  0
LWPOLYLINE
  5
124
330
1F
100
AcDbEntity
  8
0
100
AcDbPolyline
 90
8
 70
1
 10
202.25
 20
6.5
 10
202.25
 20
-6.5
 42
0.4142123908030625
 10
202.75000000000003
 20
-7.000000000000001
 10
216.35000000000002
 20
-7.000000000000001
 42
0.4142135623730951
 10
216.85000000000002
 20
-6.5
 10
216.85000000000002
 20
6.5
 42
0.4142135623730951
 10
216.35000000000002
 20
7.000000000000001
 10
202.75000000000003
 20
7.000000000000001
 42
0.4142123908030625
  0
LWPOLYLINE
  5
125
330
1F
100
AcDbEntity
  8
0
100
AcDbPolyline
 90
8
 70
1
 10
87.95
 20
6.5
 10
87.95
 20
-6.5
 42
0.4142123908030521
 10
88.45
 20
-7.000000000000001
 10
102.05
 20
-7.000000000000001
 42
0.4142135623730951
 10
102.55000000000001
 20
-6.5
 10
102.55000000000001
 20
6.5
 42
0.4142135623730951
 10
102.05
 20
7.000000000000001
 10
88.45
 20
7.000000000000001
 42
0.4142123908030521
  0
LWPOLYLINE
  5
126
330
1F
100
AcDbEntity
  8
0
100
AcDbPolyline
 90
8
 70
1
 10
178.4375
 20
-31.6
 10
178.4375
 20
-44.6
 42
0.41421239080303973
 10
178.9375
 20
-45.10000000000001
 10
192.5375
 20
-45.10000000000001
 42
0.4142135623730951
 10
193.03750000000002
 20
-44.6
 10
193.03750000000002
 20
-31.6
 42
0.4142135623730951
 10
192.5375
 20
-31.1
 10
178.9375
 20
-31.1
 42
0.4142123908030423
  0
LWPOLYLINE
  5
127
330
1F
100
AcDbEntity
  8
0
100
AcDbPolyline
 90
8
 70
1
 10
54.6125
 20
-50.650000000000006
 10
54.6125
 20
-63.650000000000006
 42
0.4142123908030501
 10
55.112500000000004
 20
-64.14999999999999
 10
68.7125
 20
-64.14999999999999
 42
0.4142135623730951
 10
69.21249999999999
 20
-63.650000000000006
 10
69.21249999999999
 20
-50.650000000000006
 42
0.4142135623730951
 10
68.7125
 20
-50.150000000000006
 10
55.112500000000004
 20
-50.150000000000006
 42
0.41421239080304495
  0
LWPOLYLINE
  5
128
330
1F
100
AcDbEntity
  8
0
100
AcDbPolyline
 90
8
 70
1
 10
230.825
 20
-12.55
 10
230.825
 20
-25.55
 42
0.4142123908030423
 10
231.325
 20
-26.050000000000004
 10
244.92500000000004
 20
-26.050000000000004
 42
0.4142135623730951
 10
245.42500000000004
 20
-25.55
 10
245.42500000000004
 20
-12.55
 42
0.4142135623730951
 10
244.92500000000004
 20
-12.05
 10
231.325
 20
-12.05
 42
0.414212390803041
  0
LWPOLYLINE
  5
129
330
1F
100
AcDbEntity
  8
0
100
AcDbPolyline
 90
8
 70
1
 10
83.1875
 20
-31.6
 10
83.1875
 20
-44.6
 42
0.41421239080306055
 10
83.6875
 20
-45.10000000000001
 10
97.2875
 20
-45.10000000000001
 42
0.4142135623730951
 10
97.78750000000001
 20
-44.6
 10
97.78750000000001
 20
-31.6
 42
0.4142135623730951
 10
97.2875
 20
-31.1
 10
83.6875
 20
-31.1
 42
0.41421239080306316
  0
LWPOLYLINE
  5
130
330
1F
100
AcDbEntity
  8
0
100
AcDbPolyline
 90
8
 70
1
 10
116.52500000000002
 20
-12.55
 10
116.52500000000002
 20
-25.55
 42
0.4142123908030423
 10
117.025
 20
-26.050000000000004
 10
130.625
 20
-26.050000000000004
 42
0.4142135623730951
 10
131.125
 20
-25.55
 10
131.125
 20
-12.55
 42
0.4142135623730951
 10
130.625
 20
-12.05
 10
117.025
 20
-12.05
 42
0.414212390803041
  0
LWPOLYLINE
  5
131
330
1F
100
AcDbEntity
  8
0
100
AcDbPolyline
 90
8
 70
1
 10
221.3
 20
6.5
 10
221.3
 20
-6.5
 42
0.4142123908030625
 10
221.80000000000004
 20
-7.000000000000001
 10
235.40000000000003
 20
-7.000000000000001
 42
0.4142135623730951
 10
235.90000000000003
 20
-6.5
 10
235.90000000000003
 20
6.5
 42
0.4142135623730951
 10
235.40000000000003
 20
7.000000000000001
 10
221.80000000000004
 20
7.000000000000001
 42
0.4142123908030625
  0
LWPOLYLINE
  5
132
330
1F
100
AcDbEntity
  8
0
100
AcDbPolyline
 90
8
 70
1
 10
121.2875
 20
-31.6
 10
121.2875
 20
-44.6
 42
0.41421239080303973
 10
121.78750000000001
 20
-45.10000000000001
 10
135.3875
 20
-45.10000000000001
 42
0.4142135623730951
 10
135.8875
 20
-44.6
 10
135.8875
 20
-31.6
 42
0.4142135623730951
 10
135.3875
 20
-31.1
 10
121.78750000000001
 20
-31.1
 42
0.4142123908030423
  0
LWPOLYLINE
  5
133
330
1F
100
AcDbEntity
  8
0
100
AcDbPolyline
 90
8
 70
1
 10
111.76250000000002
 20
-50.650000000000006
 10
111.76250000000002
 20
-63.650000000000006
 42
0.41421239080304495
 10
112.2625
 20
-64.14999999999999
 10
125.8625
 20
-64.14999999999999
 42
0.4142135623730951
 10
126.36250000000001
 20
-63.650000000000006
 10
126.36250000000001
 20
-50.650000000000006
 42
0.4142135623730951
 10
125.8625
 20
-50.150000000000006
 10
112.2625
 20
-50.150000000000006
 42
0.41421239080303973
  0
LWPOLYLINE
  5
134
330
1F
100
AcDbEntity
  8
0
100
AcDbPolyline
 90
8
 70
1
 10
21.275
 20
-12.55
 10
21.275
 20
-25.55
 42
0.41421239080304756
 10
21.775
 20
-26.050000000000004
 10
35.375
 20
-26.050000000000004
 42
0.4142135623730951
 10
35.875
 20
-25.55
 10
35.875
 20
-12.55
 42
0.4142135623730951
 10
35.375
 20
-12.05
 10
21.775
 20
-12.05
 42
0.4142123908030463
  0
LWPOLYLINE
  5
135
330
1F
100
AcDbEntity
  8
0
100
AcDbPolyline
 90
8
 70
1
 10
183.2
 20
6.5
 10
183.2
 20
-6.5
 42
0.4142123908030625
 10
183.70000000000002
 20
-7.000000000000001
 10
197.30000000000004
 20
-7.000000000000001
 42
0.4142135623730951
 10
197.8
 20
-6.5
 10
197.8
 20
6.5
 42
0.4142135623730951
 10
197.30000000000004
 20
7.000000000000001
 10
183.70000000000002
 20
7.000000000000001
 42
0.4142123908030625
  0
LWPOLYLINE
  5
136
330
1F
100
AcDbEntity
  8
0
100
AcDbPolyline
 90
8
 70
1
 10
135.575
 20
-12.55
 10
135.575
 20
-25.55
 42
0.4142123908030527
 10
136.075
 20
-26.050000000000004
 10
149.67499999999998
 20
-26.050000000000004
 42
0.4142135623730951
 10
150.17499999999998
 20
-25.55
 10
150.17499999999998
 20
-12.55
 42
0.4142135623730951
 10
149.67499999999998
 20
-12.05
 10
136.075
 20
-12.05
 42
0.4142123908030514
  0
LWPOLYLINE
  5
137
330
1F
100
AcDbEntity
  8
0
100
AcDbPolyline
 90
8
 70
1
 10
159.38749999999996
 20
-31.6
 10
159.38749999999996
 20
-44.6
 42
0.4142123908030293
 10
159.88749999999996
 20
-45.10000000000001
 10
173.48749999999998
 20
-45.10000000000001
 42
0.4142135623730951
 10
173.9875
 20
-44.6
 10
173.9875
 20
-31.6
 42
0.4142135623730951
 10
173.48749999999998
 20
-31.1
 10
159.88749999999996
 20
-31.1
 42
0.4142123908030319
  0
LWPOLYLINE
  5
138
330
1F
100
AcDbEntity
  8
0
100
AcDbPolyline
 90
8
 70
1
 10
26.0375
 20
-31.6
 10
26.0375
 20
-44.6
 42
0.4142123908030501
 10
26.537500000000005
 20
-45.10000000000001
 10
40.13750000000001
 20
-45.10000000000001
 42
0.4142135623730951
 10
40.6375
 20
-44.6
 10
40.6375
 20
-31.6
 42
0.4142135623730951
 10
40.13750000000001
 20
-31.1
 10
26.537500000000005
 20
-31.1
 42
0.4142123908030527
  0
LWPOLYLINE
  5
139
330
1F
100
AcDbEntity
  8
0
100
AcDbPolyline
 90
8
 70
1
 10
126.05000000000001
 20
6.5
 10
126.05000000000001
 20
-6.5
 42
0.4142123908030521
 10
126.55000000000001
 20
-7.000000000000001
 10
140.15
 20
-7.000000000000001
 42
0.4142135623730951
 10
140.65
 20
-6.5
 10
140.65
 20
6.5
 42
0.4142135623730951
 10
140.15
 20
7.000000000000001
 10
126.55000000000001
 20
7.000000000000001
 42
0.4142123908030521
  0
LWPOLYLINE
  5
140
330
1F
100
AcDbEntity
  8
0
100
AcDbPolyline
 90
8
 70
1
 10
154.625
 20
-12.55
 10
154.625
 20
-25.55
 42
0.4142123908030527
 10
155.125
 20
-26.050000000000004
 10
168.725
 20
-26.050000000000004
 42
0.4142135623730951
 10
169.225
 20
-25.55
 10
169.225
 20
-12.55
 42
0.4142135623730951
 10
168.725
 20
-12.05
 10
155.125
 20
-12.05
 42
0.4142123908030514
  0
LWPOLYLINE
  5
141
330
1F
100
AcDbEntity
  8
0
100
AcDbPolyline
 90
8
 70
1
 10
35.5625
 20
-50.650000000000006
 10
35.5625
 20
-63.650000000000006
 42
0.4142123908030527
 10
36.0625
 20
-64.14999999999999
 10
49.66250000000001
 20
-64.14999999999999
 42
0.4142135623730951
 10
50.1625
 20
-63.650000000000006
 10
50.1625
 20
-50.650000000000006
 42
0.4142135623730951
 10
49.66250000000001
 20
-50.150000000000006
 10
36.0625
 20
-50.150000000000006
 42
0.41421239080304756
  0
LWPOLYLINE
  5
142
330
1F
100
AcDbEntity
  8
0
100
AcDbPolyline
 90
8
 70
1
 10
68.89999999999999
 20
6.5
 10
68.89999999999999
 20
-6.5
 42
0.4142123908030417
 10
69.39999999999999
 20
-7.000000000000001
 10
83.0
 20
-7.000000000000001
 42
0.4142135623730951
 10
83.5
 20
-6.5
 10
83.5
 20
6.5
 42
0.4142135623730951
 10
83.0
 20
7.000000000000001
 10
69.39999999999999
 20
7.000000000000001
 42
0.4142123908030417
  0
LWPOLYLINE
  5
143
330
1F
100
AcDbEntity
  8
0
100
AcDbPolyline
 90
8
 70
1
 10
145.1
 20
6.5
 10
145.1
 20
-6.5
 42
0.4142123908030521
 10
145.6
 20
-7.000000000000001
 10
159.19999999999996
 20
-7.000000000000001
 42
0.4142135623730951
 10
159.69999999999996
 20
-6.5
 10
159.69999999999996
 20
6.5
 42
0.4142135623730951
 10
159.19999999999996
 20
7.000000000000001
 10
145.6
 20
7.000000000000001
 42
0.4142123908030521
  0
LWPOLYLINE
  5
144
330
1F
100
AcDbEntity
  8
0
100
AcDbPolyline
 90
8
 70
1
 10
11.75
 20
6.5
 10
11.75
 20
-6.5
 42
0.4142123908030495
 10
12.25
 20
-7.000000000000001
 10
25.850000000000005
 20
-7.000000000000001
 42
0.4142135623730951
 10
26.35
 20
-6.5
 10
26.35
 20
6.5
 42
0.4142135623730951
 10
25.850000000000005
 20
7.000000000000001
 10
12.25
 20
7.000000000000001
 42
0.4142123908030495
  0
LWPOLYLINE
  5
145
330
1F
100
AcDbEntity
  8
0
100
AcDbPolyline
 90
8
 70
1
 10
-4.918754
 20
-31.6
 10
-4.918754
 20
-44.6
 42
0.4142123908030463
 10
-4.418754
 20
-45.10000000000001
 10
13.943750000000001
 20
-45.10000000000001
 42
0.4142135623730951
 10
14.44375
 20
-44.6
 10
14.44375
 20
-31.6
 42
0.4142135623730951
 10
13.943750000000001
 20
-31.1
 10
-4.418754
 20
-31.1
 42
0.41421239080304884
  0
LWPOLYLINE
  5
146
330
1F
100
AcDbEntity
  8
0
100
AcDbPolyline
 90
8
 70
1
 10
164.15000000000003
 20
6.5
 10
164.15000000000003
 20
-6.5
 42
0.4142123908030417
 10
164.65
 20
-7.000000000000001
 10
178.25
 20
-7.000000000000001
 42
0.4142135623730951
 10
178.75
 20
-6.5
 10
178.75
 20
6.5
 42
0.4142135623730951
 10
178.25
 20
7.000000000000001
 10
164.65
 20
7.000000000000001
 42
0.4142123908030417
  0
LWPOLYLINE
  5
147
330
1F
100
AcDbEntity
  8
0
100
AcDbPolyline
 90
8
 70
1
 10
40.325
 20
-12.55
 10
40.325
 20
-25.55
 42
0.4142123908030527
 10
40.825
 20
-26.050000000000004
 10
54.425
 20
-26.050000000000004
 42
0.4142135623730951
 10
54.925
 20
-25.55
 10
54.925
 20
-12.55
 42
0.4142135623730951
 10
54.425
 20
-12.05
 10
40.825
 20
-12.05
 42
0.4142123908030514
  0
LWPOLYLINE
  5
148
330
1F
100
AcDbEntity
  8
0
100
AcDbPolyline
 90
8
 70
1
 10
192.72500000000002
 20
-12.55
 10
192.72500000000002
 20
-25.55
 42
0.41421239080306316
 10
193.22500000000002
 20
-26.050000000000004
 10
206.82500000000002
 20
-26.050000000000004
 42
0.4142135623730951
 10
207.32500000000002
 20
-25.55
 10
207.32500000000002
 20
-12.55
 42
0.4142135623730951
 10
206.82500000000002
 20
-12.05
 10
193.22500000000002
 20
-12.05
 42
0.4142123908030618
  0
LWPOLYLINE
  5
149
330
1F
100
AcDbEntity
  8
0
100
AcDbPolyline
 90
8
 70
1
 10
130.8125
 20
-50.650000000000006
 10
130.8125
 20
-63.650000000000006
 42
0.4142123908030554
 10
131.3125
 20
-64.14999999999999
 10
144.91250000000002
 20
-64.14999999999999
 42
0.4142135623730951
 10
145.4125
 20
-63.650000000000006
 10
145.4125
 20
-50.650000000000006
 42
0.4142135623730951
 10
144.91250000000002
 20
-50.150000000000006
 10
131.3125
 20
-50.150000000000006
 42
0.4142123908030501
  0
LWPOLYLINE
  5
150
330
1F
100
AcDbEntity
  8
0
100
AcDbPolyline
 90
8
 70
1
 10
197.4875
 20
-31.6
 10
197.4875
 20
-44.6
 42
0.41421239080303973
 10
197.9875
 20
-45.10000000000001
 10
211.5875
 20
-45.10000000000001
 42
0.4142135623730951
 10
212.08750000000003
 20
-44.6
 10
212.08750000000003
 20
-31.6
 42
0.4142135623730951
 10
211.5875
 20
-31.1
 10
197.9875
 20
-31.1
 42
0.4142123908030423
  0
LWPOLYLINE
  5
151
330
1F
100
AcDbEntity
  8
0
100
AcDbPolyline
 90
8
 70
1
 10
73.66249999999998
 20
-50.650000000000006
 10
73.66249999999998
 20
-63.650000000000006
 42
0.41421239080304495
 10
74.16249999999998
 20
-64.14999999999999
 10
87.76250000000002
 20
-64.14999999999999
 42
0.4142135623730951
 10
88.2625
 20
-63.650000000000006
 10
88.2625
 20
-50.650000000000006
 42
0.4142135623730951
 10
87.76250000000002
 20
-50.150000000000006
 10
74.16249999999998
 20
-50.150000000000006
 42
0.41421239080303973
  0
LWPOLYLINE
  5
152
330
1F
100
AcDbEntity
  8
0
100
AcDbPolyline
 90
8
 70
1
 10
149.86249999999998
 20
-50.650000000000006
 10
149.86249999999998
 20
-63.650000000000006
 42
0.4142123908030554
 10
150.36249999999998
 20
-64.14999999999999
 10
163.96250000000003
 20
-64.14999999999999
 42
0.4142135623730951
 10
164.46250000000003
 20
-63.650000000000006
 10
164.46250000000003
 20
-50.650000000000006
 42
0.4142135623730951
 10
163.96250000000003
 20
-50.150000000000006
 10
150.36249999999998
 20
-50.150000000000006
 42
0.4142123908030501
  0
LWPOLYLINE
  5
153
330
1F
100
AcDbEntity
  8
0
100
AcDbPolyline
 90
8
 70
1
 10
45.0875
 20
-31.6
 10
45.0875
 20
-44.6
 42
0.41421239080304495
 10
45.5875
 20
-45.10000000000001
 10
59.1875
 20
-45.10000000000001
 42
0.4142135623730951
 10
59.6875
 20
-44.6
 10
59.6875
 20
-31.6
 42
0.4142135623730951
 10
59.1875
 20
-31.1
 10
45.5875
 20
-31.1
 42
0.41421239080304756
  0
LWPOLYLINE
  5
154
330
1F
100
AcDbEntity
  8
0
100
AcDbPolyline
 90
8
 70
1
 10
49.85
 20
6.5
 10
49.85
 20
-6.5
 42
0.4142123908030469
 10
50.35
 20
-7.000000000000001
 10
63.95
 20
-7.000000000000001
 42
0.4142135623730951
 10
64.45
 20
-6.5
 10
64.45
 20
6.5
 42
0.4142135623730951
 10
63.95
 20
7.000000000000001
 10
50.35
 20
7.000000000000001
 42
0.4142123908030469
  0
LWPOLYLINE
  5
155
330
1F
100
AcDbEntity
  8
0
100
AcDbPolyline
 90
8
 70
1
 10
30.8
 20
6.5
 10
30.8
 20
-6.5
 42
0.4142123908030495
 10
31.300000000000004
 20
-7.000000000000001
 10
44.900000000000006
 20
-7.000000000000001
 42
0.4142135623730951
 10
45.4
 20
-6.5
 10
45.4
 20
6.5
 42
0.4142135623730951
 10
44.900000000000006
 20
7.000000000000001
 10
31.300000000000004
 20
7.000000000000001
 42
0.4142123908030495
  0
LWPOLYLINE
  5
156
330
1F
100
AcDbEntity
  8
0
100
AcDbPolyline
 90
8
 70
1
 10
102.23750000000001
 20
-31.6
 10
102.23750000000001
 20
-44.6
 42
0.41421239080303973
 10
102.7375
 20
-45.10000000000001
 10
116.3375
 20
-45.10000000000001
 42
0.4142135623730951
 10
116.83750000000002
 20
-44.6
 10
116.83750000000002
 20
-31.6
 42
0.4142135623730951
 10
116.3375
 20
-31.1
 10
102.7375
 20
-31.1
 42
0.4142123908030423
  0
LWPOLYLINE
  5
157
330
1F
100
AcDbEntity
  8
0
100
AcDbPolyline
 90
8
 70
1
 10
92.7125
 20
-50.650000000000006
 10
92.7125
 20
-63.650000000000006
 42
0.4142123908030554
 10
93.2125
 20
-64.14999999999999
 10
106.8125
 20
-64.14999999999999
 42
0.4142135623730951
 10
107.31250000000001
 20
-63.650000000000006
 10
107.31250000000001
 20
-50.650000000000006
 42
0.4142135623730951
 10
106.8125
 20
-50.150000000000006
 10
93.2125
 20
-50.150000000000006
 42
0.4142123908030501
  0
LWPOLYLINE
  5
158
330
1F
100
AcDbEntity
  8
0
100
AcDbPolyline
 90
8
 70
1
 10
97.47500000000001
 20
-12.55
 10
97.47500000000001
 20
-25.55
 42
0.4142123908030423
 10
97.975
 20
-26.050000000000004
 10
111.575
 20
-26.050000000000004
 42
0.4142135623730951
 10
112.07500000000002
 20
-25.55
 10
112.07500000000002
 20
-12.55
 42
0.4142135623730951
 10
111.575
 20
-12.05
 10
97.975
 20
-12.05
 42
0.414212390803041
  0
LWPOLYLINE
  5
159
330
1F
100
AcDbEntity
  8
0
100
AcDbPolyline
 90
8
 70
1
 10
-7.3
 20
6.5
 10
-7.3
 20
-6.5
 42
0.41421239080304817
 10
-6.800000000000001
 20
-7.000000000000001
 10
6.800000000000001
 20
-7.000000000000001
 42
0.4142135623730951
 10
7.3
 20
-6.5
 10
7.3
 20
6.5
 42
0.4142135623730951
 10
6.800000000000001
 20
7.000000000000001
 10
-6.800000000000001
 20
7.000000000000001
 42
0.41421239080304817
  0
CIRCLE
  5
1006F
330
1F
100
AcDbEntity
  8
0
100
AcDbCircle
 10
273.6
 20
-7.199999999999999
 30
0.0
 40
1.0
  0
CIRCLE
  5
10070
330
1F
100
AcDbEntity
  8
0
100
AcDbCircle
 10
240.8
 20
-7.199999999999999
 30
0.0
 40
1.0
  0
LWPOLYLINE
  5
10071
330
1F
100
AcDbEntity
  8
0
100
AcDbPolyline
 90
8
 70
1
 10
241.20000000000002
 20
6.475
 10
241.20000000000002
 20
-5.243000000000002
 10
244.20000000000002
 20
-6.975
 10
270.2
 20
-6.975
 10
273.2
 20
-5.243000000000002
 10
273.2
 20
6.475
 42
0.4142135623730951
 10
272.7
 20
6.975
 10
241.70000000000002
 20
6.975
 42
0.41421239080306316
  0
CIRCLE
  5
10072
330
1F
100
AcDbEntity
  8
0
100
AcDbCircle
 10
33.337500000000006
 20
-57.15
 30
0.0
 40
1.0
  0
CIRCLE
  5
10073
330
1F
100
AcDbEntity
  8
0
100
AcDbCircle
 10
-4.49375
 20
-64.35
 30
0.0
 40
1.0
  0
LWPOLYLINE
  5
10074
330
1F
100
AcDbEntity
  8
0
100
AcDbPolyline
 90
8
 70
1
 10
-4.09375
 20
-50.675
 10
-4.09375
 20
-62.393
 10
-1.09375
 20
-64.125
 10
24.90625
 20
-64.125
 10
27.906250000000004
 20
-62.393
 10
27.906250000000004
 20
-50.675
 42
0.4142135623730951
 10
27.40625
 20
-50.175
 10
-3.59375
 20
-50.175
 42
0.41421239080304656
  0
LWPOLYLINE
  5
10075
330
1F
100
AcDbEntity
  8
0
100
AcDbPolyline
 90
8
 70
1
 10
259.4
 20
-50.650000000000006
 10
259.4
 20
-63.650000000000006
 42
0.41421239080304495
 10
259.9
 20
-64.14999999999999
 10
273.5
 20
-64.14999999999999
 42
0.4142135623730951
 10
274.0
 20
-63.650000000000006
 10
274.0
 20
-50.650000000000006
 42
0.4142135623730951
 10
273.5
 20
-50.150000000000006
 10
259.9
 20
-50.150000000000006
 42
0.41421239080303973
  0
LWPOLYLINE
  5
10076
330
1F
100
AcDbEntity
  8
0
100
AcDbPolyline
 90
8
 70
1
 10
233.20878800000003
 20
-50.650048000000005
 10
233.20878800000003
 20
-63.650048000000005
 42
0.4142123908030345
 10
233.708788
 20
-64.150048
 10
247.308788
 20
-64.150048
 42
0.4142135623730951
 10
247.808788
 20
-63.650048000000005
 10
247.808788
 20
-50.650048000000005
 42
0.4142135623730951
 10
247.308788
 20
-50.150048
 10
233.708788
 20
-50.150048
 42
0.41421239080303973
  0
CIRCLE
  5
10077
330
1F
100
AcDbEntity
  8
0
100
AcDbCircle
 10
271.19375
 20
-45.300000000000004
 30
0.0
 40
1.0
  0
CIRCLE
  5
10078
330
1F
100
AcDbEntity
  8
0
100
AcDbCircle
 10
271.4625
 20
-19.050000000000004
 30
0.0
 40
1.0
  0
CIRCLE
  5
10079
330
1F
100
AcDbEntity
  8
0
100
AcDbCircle
 10
238.39375000000004
 20
-45.300000000000004
 30
0.0
 40
1.0
  0
LWPOLYLINE
  5
1007A
330
1F
100
AcDbEntity
  8
0
100
AcDbPolyline
 90
8
 70
1
 10
238.79375
 20
-31.625
 10
238.79375
 20
-43.343
 10
241.79375
 20
-45.075
 10
267.79375000000005
 20
-45.075
 10
270.79375
 20
-43.343
 10
270.79375
 20
-31.625
 42
0.4142135623730951
 10
270.29375000000005
 20
-31.125000000000004
 10
239.29375
 20
-31.125000000000004
 42
0.41421239080303973
  0
LWPOLYLINE
  5
1007B
330
1F
100
AcDbEntity
  8
0
100
AcDbPolyline
 90
8
 70
1
 10
254.63750000000002
 20
-12.55
 10
254.63750000000002
 20
-25.55
 42
0.41421239080306316
 10
255.13750000000002
 20
-26.050000000000004
 10
268.7375
 20
-26.050000000000004
 42
0.4142135623730951
 10
269.2375
 20
-25.55
 10
269.2375
 20
-12.55
 42
0.4142135623730951
 10
268.7375
 20
-12.05
 10
255.13750000000002
 20
-12.05
 42
0.4142123908030618
  0
CIRCLE
  5
1007C
330
1F
100
AcDbEntity
  8
0
100
AcDbCircle
 10
61.9125
 20
-76.20000000000002
 30
0.0
 40
1.0
  0
CIRCLE
  5
1007D
330
1F
100
AcDbEntity
  8
0
100
AcDbCircle
 10
251.221875
 20
-76.20000000000002
 30
0.0
 40
1.0
  0
CIRCLE
  5
1007E
330
1F
100
AcDbEntity
  8
0
100
AcDbCircle
 10
228.6
 20
-76.20000000000002
 30
0.0
 40
1.0
  0
CIRCLE
  5
1007F
330
1F
100
AcDbEntity
  8
0
100
AcDbCircle
 10
142.875
 20
-76.20000000000002
 30
0.0
 40
1.0
  0
CIRCLE
  5
10080
330
1F
100
AcDbEntity
  8
0
100
AcDbCircle
 10
204.78750000000002
 20
-76.20000000000002
 30
0.0
 40
1.0
  0
CIRCLE
  5
10081
330
1F
100
AcDbEntity
  8
0
100
AcDbCircle
 10
39.290625
 20
-76.20000000000002
 30
0.0
 40
1.0
  0
CIRCLE
  5
10082
330
1F
100
AcDbEntity
  8
0
100
AcDbCircle
 10
15.478124999999999
 20
-76.20000000000002
 30
0.0
 40
1.0
  0
CIRCLE
  5
10083
330
1F
100
AcDbEntity
  8
0
100
AcDbCircle
 10
171.44999999999996
 20
-76.20000000000002
 30
0.0
 40
1.0
  0
CIRCLE
  5
10084
330
1F
100
AcDbEntity
  8
0
100
AcDbCircle
 10
104.775
 20
-76.20000000000002
 30
0.0
 40
1.0
  0
LWPOLYLINE
  5
10085
330
1F
100
AcDbEntity
  8
0
100
AcDbPolyline
 90
8
 70
1
 10
69.3934
 20
-82.65
 10
69.3934
 20
-69.74999999999999
 42
-0.4142123908030554
 10
69.8934
 20
-69.24999999999999
 10
82.49340000000001
 20
-69.24999999999999
 42
-0.41421239080304495
 10
82.9934
 20
-69.74999999999999
 10
82.99340000000001
 20
-82.65
 42
-0.4142123908030345
 10
82.49340000000001
 20
-83.15
 10
69.8934
 20
-83.14999999999998
 42
-0.41421239080304495
  0
LWPOLYLINE
  5
10086
330
1F
100
AcDbEntity
  8
0
100
AcDbPolyline
 90
8
 70
1
 10
183.70000000000002
 20
-82.65
 10
183.7
 20
-69.74999999999999
 42
-0.4142135623730951
 10
184.2
 20
-69.24999999999999
 10
196.80000000000004
 20
-69.24999999999999
 42
-0.4142135623730951
 10
197.30000000000004
 20
-69.74999999999999
 10
197.30000000000004
 20
-82.65
 42
-0.4142135623730951
 10
196.80000000000004
 20
-83.15
 10
184.2
 20
-83.14999999999998
 42
-0.4142135623730951
  0
LWPOLYLINE
  5
10087
330
1F
100
AcDbEntity
  8
0
100
AcDbPolyline
 90
8
 70
1
 10
207.012498
 20
-69.7
 10
207.012498
 20
-82.70000000000002
 42
0.41421356237311585
 10
207.512498
 20
-83.2
 10
225.875002
 20
-83.2
 42
0.4142135623731054
 10
226.37500200000002
 20
-82.70000000000002
 10
226.37500200000002
 20
-69.7
 42
0.4142135623731054
 10
225.875002
 20
-69.2
 10
207.512498
 20
-69.2
 42
0.41421356237311585
  0
LWPOLYLINE
  5
10088
330
1F
100
AcDbEntity
  8
0
100
AcDbPolyline
 90
8
 70
1
 10
42.70624900000001
 20
-69.7
 10
42.70624900000001
 20
-82.70000000000002
 42
0.4142135623730951
 10
43.206249
 20
-83.2
 10
59.187501000000005
 20
-83.2
 42
0.4142135623730951
 10
59.687501000000005
 20
-82.70000000000002
 10
59.687501000000005
 20
-69.7
 42
0.4142135623730951
 10
59.187501000000005
 20
-69.2
 10
43.206249
 20
-69.2
 42
0.4142135623730951
  0
LWPOLYLINE
  5
10089
330
1F
100
AcDbEntity
  8
0
100
AcDbPolyline
 90
8
 70
1
 10
-4.918751
 20
-69.7
 10
-4.918751
 20
-82.70000000000002
 42
0.41421356237309637
 10
-4.418751
 20
-83.2
 10
11.562501000000001
 20
-83.2
 42
0.4142135623730951
 10
12.062501000000001
 20
-82.70000000000002
 10
12.062501000000001
 20
-69.7
 42
0.4142135623730937
 10
11.562501000000001
 20
-69.2
 10
-4.418751
 20
-69.2
 42
0.4142135623730951
  0
LWPOLYLINE
  5
1008A
330
1F
100
AcDbEntity
  8
0
100
AcDbPolyline
 90
8
 70
1
 10
254.63751000000002
 20
-69.700016
 10
254.63751000000002
 20
-82.70001599999999
 42
0.4142135623730743
 10
255.13751
 20
-83.20001599999999
 10
271.118762
 20
-83.20001599999999
 42
0.41421356237308465
 10
271.618762
 20
-82.70001599999999
 10
271.618762
 20
-69.700016
 42
0.41421356237308465
 10
271.118762
 20
-69.20001599999999
 10
255.13751
 20
-69.20001599999999
 42
0.4142135623730743
  0
LWPOLYLINE
  5
1008B
330
1F
100
AcDbEntity
  8
0
100
AcDbPolyline
 90
8
 70
1
 10
126.05000400000002
 20
-69.7
 10
126.05000400000002
 20
-82.69999999999999
 42
0.41421239080306577
 10
126.550004
 20
-83.2
 10
140.150004
 20
-83.2
 42
0.4142135623730951
 10
140.650004
 20
-82.69999999999999
 10
140.650004
 20
-69.7
 42
0.4142135623730951
 10
140.150004
 20
-69.2
 10
126.550004
 20
-69.2
 42
0.4142123908030554
  0
ENDSEC
  0
SECTION
  2
OBJECTS
  0
DICTIONARY
  5
C
330
None
100
AcDbDictionary
281
1
  3
ACAD_GROUP
350
D
  3
ACAD_MLINESTYLE
350
17
  3
ACAD_COLOR
350
1005A
  3
ACAD_LAYOUT
350
1005B
  3
ACAD_MATERIAL
350
1005C
  3
ACAD_MLEADERSTYLE
350
1005D
  3
ACAD_PLOTSETTINGS
350
1005E
  3
ACAD_PLOTSTYLENAME
350
1005F
  3
ACAD_SCALELIST
350
10061
  3
ACAD_TABLESTYLE
350
10062
  3
ACAD_VISUALSTYLE
350
10063
  3
EZDXF_META
350
1008E
  0
DICTIONARY
  5
D
330
None
100
AcDbDictionary
281
1
  0
DICTIONARY
  5
1A
330
C
100
AcDbDictionary
281
1
  0
DICTIONARY
  5
17
330
None
100
AcDbDictionary
281
1
  3
Standard
350
10069
  0
DICTIONARY
  5
1005A
330
C
100
AcDbDictionary
280
0
281
1
  0
DICTIONARY
  5
1005B
330
C
100
AcDbDictionary
280
0
281
1
  3
Model
350
10064
  3
Layout1
350
10065
  0
DICTIONARY
  5
1005C
330
C
100
AcDbDictionary
280
0
281
1
  3
ByBlock
350
10066
  3
ByLayer
350
10067
  3
Global
350
10068
  0
DICTIONARY
  5
1005D
330
C
100
AcDbDictionary
280
0
281
1
  3
Standard
350
1006E
  0
DICTIONARY
  5
1005E
330
C
100
AcDbDictionary
280
0
281
1
  0
ACDBDICTIONARYWDFLT
  5
1005F
330
C
100
AcDbDictionary
280
0
281
1
  3
Normal
350
10060
100
AcDbDictionaryWithDefault
340
10060
  0
ACDBPLACEHOLDER
  5
10060
330
1005F
  0
DICTIONARY
  5
10061
330
C
100
AcDbDictionary
280
0
281
1
  0
DICTIONARY
  5
10062
330
C
100
AcDbDictionary
280
0
281
1
  0
DICTIONARY
  5
10063
330
C
100
AcDbDictionary
280
0
281
1
  0
LAYOUT
  5
10064
330
1005B
100
AcDbPlotSettings
  1

  2
Adobe PDF
  4
A3
  6

 40
7.5
 41
20.0
 42
7.5
 43
20.0
 44
420.0
 45
297.0
 46
0.0
 47
0.0
 48
0.0
 49
0.0
140
0.0
141
0.0
142
1.0
143
1.0
 70
1024
 72
1
 73
0
 74
5
  7

 75
16
 76
0
 77
2
 78
300
147
1.0
148
0.0
149
0.0
100
AcDbLayout
  1
Model
 70
1
 71
0
 10
0.0
 20
0.0
 11
420.0
 21
297.0
 12
0.0
 22
0.0
 32
0.0
 14
1e+20
 24
1e+20
 34
1e+20
 15
-1e+20
 25
-1e+20
 35
-1e+20
146
0.0
 13
0.0
 23
0.0
 33
0.0
 16
1.0
 26
0.0
 36
0.0
 17
0.0
 27
1.0
 37
0.0
 76
1
330
1F
  0
LAYOUT
  5
10065
330
1005B
100
AcDbPlotSettings
  1

  2
Adobe PDF
  4
A3
  6

 40
7.5
 41
20.0
 42
7.5
 43
20.0
 44
420.0
 45
297.0
 46
0.0
 47
0.0
 48
0.0
 49
0.0
140
0.0
141
0.0
142
1.0
143
1.0
 70
0
 72
1
 73
0
 74
5
  7

 75
16
 76
0
 77
2
 78
300
147
1.0
148
0.0
149
0.0
100
AcDbLayout
  1
Layout1
 70
1
 71
1
 10
0.0
 20
0.0
 11
420.0
 21
297.0
 12
0.0
 22
0.0
 32
0.0
 14
1e+20
 24
1e+20
 34
1e+20
 15
-1e+20
 25
-1e+20
 35
-1e+20
146
0.0
 13
0.0
 23
0.0
 33
0.0
 16
1.0
 26
0.0
 36
0.0
 17
0.0
 27
1.0
 37
0.0
 76
1
330
1B
  0
MATERIAL
  5
10066
102
{ACAD_REACTORS
330
1005C
102
}
330
1005C
100
AcDbMaterial
  1
ByBlock
  2

 70
0
 40
1.0
 71
1
 41
1.0
 91
-1023410177
 42
1.0
 72
1
  3

 73
1
 74
1
 75
1
 44
0.5
 73
0
 45
1.0
 46
1.0
 77
1
  4

 78
1
 79
1
170
1
 48
1.0
171
1
  6

172
1
173
1
174
1
140
1.0
141
1.0
175
1
  7

176
1
177
1
178
1
143
1.0
179
1
  8

270
1
271
1
272
1
145
1.0
146
1.0
273
1
  9

274
1
275
1
276
1
 42
1.0
 72
1
  3

 73
1
 74
1
 75
1
 94
63
  0
MATERIAL
  5
10067
102
{ACAD_REACTORS
330
1005C
102
}
330
1005C
100
AcDbMaterial
  1
ByLayer
  2

 70
0
 40
1.0
 71
1
 41
1.0
 91
-1023410177
 42
1.0
 72
1
  3

 73
1
 74
1
 75
1
 44
0.5
 73
0
 45
1.0
 46
1.0
 77
1
  4

 78
1
 79
1
170
1
 48
1.0
171
1
  6

172
1
173
1
174
1
140
1.0
141
1.0
175
1
  7

176
1
177
1
178
1
143
1.0
179
1
  8

270
1
271
1
272
1
145
1.0
146
1.0
273
1
  9

274
1
275
1
276
1
 42
1.0
 72
1
  3

 73
1
 74
1
 75
1
 94
63
  0
MATERIAL
  5
10068
102
{ACAD_REACTORS
330
1005C
102
}
330
1005C
100
AcDbMaterial
  1
Global
  2

 70
0
 40
1.0
 71
1
 41
1.0
 91
-1023410177
 42
1.0
 72
1
  3

 73
1
 74
1
 75
1
 44
0.5
 73
0
 45
1.0
 46
1.0
 77
1
  4

 78
1
 79
1
170
1
 48
1.0
171
1
  6

172
1
173
1
174
1
140
1.0
141
1.0
175
1
  7

176
1
177
1
178
1
143
1.0
179
1
  8

270
1
271
1
272
1
145
1.0
146
1.0
273
1
  9

274
1
275
1
276
1
 42
1.0
 72
1
  3

 73
1
 74
1
 75
1
 94
63
  0
MLINESTYLE
  5
10069
102
{ACAD_REACTORS
330
17
102
}
330
17
100
AcDbMlineStyle
  2
Standard
 70
0
  3

 62
256
 51
90.0
 52
90.0
 71
2
 49
0.5
 62
256
  6
BYLAYER
 49
-0.5
 62
256
  6
BYLAYER
  0
MLEADERSTYLE
  5
1006E
102
{ACAD_REACTORS
330
1005D
102
}
330
1005D
100
AcDbMLeaderStyle
179
2
170
2
171
1
172
0
 90
2
 40
0.0
 41
0.0
173
1
 91
-1056964608
 92
-2
290
1
 42
2.0
291
1
 43
8.0
  3
Standard
 44
4.0
300

342
11
174
1
175
1
176
0
178
1
 93
-1056964608
 45
4.0
292
0
297
0
 46
4.0
 94
-1056964608
 47
1.0
 49
1.0
140
1.0
294
1
141
0.0
177
0
142
1.0
295
0
296
0
143
3.75
271
0
272
9
273
9
  0
DICTIONARY
  5
1008E
330
C
100
AcDbDictionary
281
1
  3
WRITTEN_BY_EZDXF
350
1008F
  0
DICTIONARYVAR
  5
1008F
330
1008E
100
DictionaryVariables
280
0
  1
1.3.0 @ 2024-05-20T20:39:21.534463+00:00
  0
ENDSEC
  0
EOF
