  0
SECTION
  2
HEADER
  9
$ACADVER
  1
AC1032
  9
$ACADMAINTVER
 90
       55
  9
$DWGCODEPAGE
  3
ANSI_1252
  9
$LASTSAVEDBY
  1
cipulot
  9
$REQUIREDVERSIONS
160
                 0
  9
$INSBASE
 10
0.0
 20
0.0
 30
0.0
  9
$EXTMIN
 10
1.000000000000000E+20
 20
1.000000000000000E+20
 30
1.000000000000000E+20
  9
$EXTMAX
 10
-1.000000000000000E+20
 20
-1.000000000000000E+20
 30
-1.000000000000000E+20
  9
$LIMMIN
 10
0.0
 20
0.0
  9
$LIMMAX
 10
420.0
 20
297.0
  9
$ORTHOMODE
 70
     0
  9
$REGENMODE
 70
     1
  9
$FILLMODE
 70
     1
  9
$QTEXTMODE
 70
     0
  9
$MIRRTEXT
 70
     1
  9
$LTSCALE
 40
1.0
  9
$ATTMODE
 70
     1
  9
$TEXTSIZE
 40
2.5
  9
$TRACEWID
 40
0.05
  9
$TEXTSTYLE
  7
STANDARD
  9
$CLAYER
  8
0
  9
$CELTYPE
  6
ByBlock
  9
$CECOLOR
 62
   256
  9
$CELTSCALE
 40
1.0
  9
$DISPSILH
 70
     0
  9
$DIMSCALE
 40
1.0
  9
$DIMASZ
 40
0.18
  9
$DIMEXO
 40
0.0625
  9
$DIMDLI
 40
0.38
  9
$DIMRND
 40
0.0
  9
$DIMDLE
 40
0.0
  9
$DIMEXE
 40
0.18
  9
$DIMTP
 40
0.0
  9
$DIMTM
 40
0.0
  9
$DIMTXT
 40
0.18
  9
$DIMCEN
 40
0.09
  9
$DIMTSZ
 40
0.0
  9
$DIMTOL
 70
     0
  9
$DIMLIM
 70
     0
  9
$DIMTIH
 70
     1
  9
$DIMTOH
 70
     1
  9
$DIMSE1
 70
     0
  9
$DIMSE2
 70
     0
  9
$DIMTAD
 70
     0
  9
$DIMZIN
 70
     0
  9
$DIMBLK
  1

  9
$DIMASO
 70
     1
  9
$DIMSHO
 70
     1
  9
$DIMPOST
  1

  9
$DIMAPOST
  1

  9
$DIMALT
 70
     0
  9
$DIMALTD
 70
     2
  9
$DIMALTF
 40
25.4
  9
$DIMLFAC
 40
1.0
  9
$DIMTOFL
 70
     0
  9
$DIMTVP
 40
0.0
  9
$DIMTIX
 70
     0
  9
$DIMSOXD
 70
     0
  9
$DIMSAH
 70
     0
  9
$DIMBLK1
  1

  9
$DIMBLK2
  1

  9
$DIMSTYLE
  2
Standard
  9
$DIMCLRD
 70
     0
  9
$DIMCLRE
 70
     0
  9
$DIMCLRT
 70
     0
  9
$DIMTFAC
 40
1.0
  9
$DIMGAP
 40
0.09
  9
$DIMJUST
 70
     0
  9
$DIMSD1
 70
     0
  9
$DIMSD2
 70
     0
  9
$DIMTOLJ
 70
     1
  9
$DIMTZIN
 70
     0
  9
$DIMALTZ
 70
     0
  9
$DIMALTTZ
 70
     0
  9
$DIMUPT
 70
     0
  9
$DIMDEC
 70
     4
  9
$DIMTDEC
 70
     4
  9
$DIMALTU
 70
     2
  9
$DIMALTTD
 70
     2
  9
$DIMTXSTY
  7
STANDARD
  9
$DIMAUNIT
 70
     0
  9
$DIMADEC
 70
     0
  9
$DIMALTRND
 40
0.0
  9
$DIMAZIN
 70
     0
  9
$DIMDSEP
 70
    46
  9
$DIMATFIT
 70
     3
  9
$DIMFRAC
 70
     0
  9
$DIMLDRBLK
  1

  9
$DIMLUNIT
 70
     2
  9
$DIMLWD
 70
    -2
  9
$DIMLWE
 70
    -2
  9
$DIMTMOVE
 70
     0
  9
$DIMFXL
 40
1.0
  9
$DIMFXLON
 70
     0
  9
$DIMJOGANG
 40
0.7853981633974483
  9
$DIMTFILL
 70
     0
  9
$DIMTFILLCLR
 70
     0
  9
$DIMARCSYM
 70
     0
  9
$DIMLTYPE
  6

  9
$DIMLTEX1
  6

  9
$DIMLTEX2
  6

  9
$DIMTXTDIRECTION
 70
     0
  9
$LUNITS
 70
     2
  9
$LUPREC
 70
     4
  9
$SKETCHINC
 40
0.1
  9
$FILLETRAD
 40
0.0
  9
$AUNITS
 70
     0
  9
$AUPREC
 70
     0
  9
$MENU
  1
.
  9
$ELEVATION
 40
0.0
  9
$PELEVATION
 40
0.0
  9
$THICKNESS
 40
0.0
  9
$LIMCHECK
 70
     0
  9
$CHAMFERA
 40
0.0
  9
$CHAMFERB
 40
0.0
  9
$CHAMFERC
 40
0.0
  9
$CHAMFERD
 40
0.0
  9
$SKPOLY
 70
     0
  9
$TDCREATE
 40
2460590.983634248
  9
$TDUCREATE
 40
2460590.941967581
  9
$TDUPDATE
 40
2460590.989980417
  9
$TDUUPDATE
 40
2460590.94831375
  9
$TDINDWG
 40
0.0
  9
$TDUSRTIMER
 40
0.0
  9
$USRTIMER
 70
     1
  9
$ANGBASE
 50
0.0
  9
$ANGDIR
 70
     0
  9
$PDMODE
 70
     0
  9
$PDSIZE
 40
0.0
  9
$PLINEWID
 40
0.0
  9
$SPLFRAME
 70
     0
  9
$SPLINETYPE
 70
     6
  9
$SPLINESEGS
 70
     8
  9
$HANDSEED
  5
100C7
  9
$SURFTAB1
 70
     6
  9
$SURFTAB2
 70
     6
  9
$SURFTYPE
 70
     6
  9
$SURFU
 70
     6
  9
$SURFV
 70
     6
  9
$UCSBASE
  2

  9
$UCSNAME
  2

  9
$UCSORG
 10
0.0
 20
0.0
 30
0.0
  9
$UCSXDIR
 10
1.0
 20
0.0
 30
0.0
  9
$UCSYDIR
 10
0.0
 20
1.0
 30
0.0
  9
$UCSORTHOREF
  2

  9
$UCSORTHOVIEW
 70
     0
  9
$UCSORGTOP
 10
0.0
 20
0.0
 30
0.0
  9
$UCSORGBOTTOM
 10
0.0
 20
0.0
 30
0.0
  9
$UCSORGLEFT
 10
0.0
 20
0.0
 30
0.0
  9
$UCSORGRIGHT
 10
0.0
 20
0.0
 30
0.0
  9
$UCSORGFRONT
 10
0.0
 20
0.0
 30
0.0
  9
$UCSORGBACK
 10
0.0
 20
0.0
 30
0.0
  9
$PUCSBASE
  2

  9
$PUCSNAME
  2

  9
$PUCSORG
 10
0.0
 20
0.0
 30
0.0
  9
$PUCSXDIR
 10
1.0
 20
0.0
 30
0.0
  9
$PUCSYDIR
 10
0.0
 20
1.0
 30
0.0
  9
$PUCSORTHOREF
  2

  9
$PUCSORTHOVIEW
 70
     0
  9
$PUCSORGTOP
 10
0.0
 20
0.0
 30
0.0
  9
$PUCSORGBOTTOM
 10
0.0
 20
0.0
 30
0.0
  9
$PUCSORGLEFT
 10
0.0
 20
0.0
 30
0.0
  9
$PUCSORGRIGHT
 10
0.0
 20
0.0
 30
0.0
  9
$PUCSORGFRONT
 10
0.0
 20
0.0
 30
0.0
  9
$PUCSORGBACK
 10
0.0
 20
0.0
 30
0.0
  9
$USERI1
 70
     0
  9
$USERI2
 70
     0
  9
$USERI3
 70
     0
  9
$USERI4
 70
     0
  9
$USERI5
 70
     0
  9
$USERR1
 40
0.0
  9
$USERR2
 40
0.0
  9
$USERR3
 40
0.0
  9
$USERR4
 40
0.0
  9
$USERR5
 40
0.0
  9
$WORLDVIEW
 70
     1
  9
$SHADEDGE
 70
     3
  9
$SHADEDIF
 70
    70
  9
$TILEMODE
 70
     1
  9
$MAXACTVP
 70
    64
  9
$PINSBASE
 10
0.0
 20
0.0
 30
0.0
  9
$PLIMCHECK
 70
     0
  9
$PEXTMIN
 10
1.000000000000000E+20
 20
1.000000000000000E+20
 30
1.000000000000000E+20
  9
$PEXTMAX
 10
-1.000000000000000E+20
 20
-1.000000000000000E+20
 30
-1.000000000000000E+20
  9
$PLIMMIN
 10
0.0
 20
0.0
  9
$PLIMMAX
 10
420.0
 20
297.0
  9
$UNITMODE
 70
     0
  9
$VISRETAIN
 70
     1
  9
$PLINEGEN
 70
     0
  9
$PSLTSCALE
 70
     1
  9
$TREEDEPTH
 70
  3020
  9
$CMLSTYLE
  2
Standard
  9
$CMLJUST
 70
     0
  9
$CMLSCALE
 40
1.0
  9
$PROXYGRAPHICS
 70
     1
  9
$MEASUREMENT
 70
     0
  9
$CELWEIGHT
370
    -1
  9
$ENDCAPS
280
     0
  9
$JOINSTYLE
280
     0
  9
$LWDISPLAY
290
     0
  9
$INSUNITS
 70
     4
  9
$HYPERLINKBASE
  1

  9
$STYLESHEET
  1

  9
$XEDIT
290
     1
  9
$CEPSNTYPE
380
     0
  9
$PSTYLEMODE
290
     1
  9
$FINGERPRINTGUID
  2
{219B3C6F-CE23-4A8E-A0D7-FD97F850B693}
  9
$VERSIONGUID
  2
{D12A2305-79B9-4E8C-B223-61C13B9BCFA0}
  9
$EXTNAMES
290
     1
  9
$PSVPSCALE
 40
0.0
  9
$OLESTARTUP
290
     0
  9
$SORTENTS
280
   127
  9
$INDEXCTL
280
     0
  9
$HIDETEXT
280
     1
  9
$XCLIPFRAME
280
     2
  9
$HALOGAP
280
     0
  9
$OBSCOLOR
 70
   257
  9
$OBSLTYPE
280
     0
  9
$INTERSECTIONDISPLAY
280
     0
  9
$INTERSECTIONCOLOR
 70
   257
  9
$DIMASSOC
280
     2
  9
$PROJECTNAME
  1

  9
$CAMERADISPLAY
290
     0
  9
$LENSLENGTH
 40
50.0
  9
$CAMERAHEIGHT
 40
0.0
  9
$STEPSPERSEC
 40
2.0
  9
$STEPSIZE
 40
6.0
  9
$3DDWFPREC
 40
2.0
  9
$PSOLWIDTH
 40
0.25
  9
$PSOLHEIGHT
 40
4.0
  9
$LOFTANG1
 40
1.570796326794897
  9
$LOFTANG2
 40
1.570796326794897
  9
$LOFTMAG1
 40
0.0
  9
$LOFTMAG2
 40
0.0
  9
$LOFTPARAM
 70
     7
  9
$LOFTNORMALS
280
     1
  9
$LATITUDE
 40
37.795
  9
$LONGITUDE
 40
-122.394
  9
$NORTHDIRECTION
 40
0.0
  9
$TIMEZONE
 70
 -8000
  9
$LIGHTGLYPHDISPLAY
280
     1
  9
$TILEMODELIGHTSYNCH
280
     1
  9
$CMATERIAL
347
10067
  9
$SOLIDHIST
280
     0
  9
$SHOWHIST
280
     1
  9
$DWFFRAME
280
     2
  9
$DGNFRAME
280
     2
  9
$REALWORLDSCALE
290
     1
  9
$INTERFERECOLOR
 62
   256
  9
$CSHADOW
280
     0
  9
$SHADOWPLANELOCATION
 40
0.0
  0
ENDSEC
  0
SECTION
  2
CLASSES
  0
CLASS
  1
ACDBDICTIONARYWDFLT
  2
AcDbDictionaryWithDefault
  3
ObjectDBX Classes
 90
        0
 91
        3
280
     0
281
     0
  0
CLASS
  1
SUN
  2
AcDbSun
  3
SCENEOE
 90
     1153
 91
        3
280
     0
281
     0
  0
CLASS
  1
VISUALSTYLE
  2
AcDbVisualStyle
  3
ObjectDBX Classes
 90
     4095
 91
        3
280
     0
281
     0
  0
CLASS
  1
MATERIAL
  2
AcDbMaterial
  3
ObjectDBX Classes
 90
     1153
 91
        3
280
     0
281
     0
  0
CLASS
  1
SCALE
  2
AcDbScale
  3
ObjectDBX Classes
 90
     1153
 91
        3
280
     0
281
     0
  0
CLASS
  1
TABLESTYLE
  2
AcDbTableStyle
  3
ObjectDBX Classes
 90
     4095
 91
        3
280
     0
281
     0
  0
CLASS
  1
MLEADERSTYLE
  2
AcDbMLeaderStyle
  3
ACDB_MLEADERSTYLE_CLASS
 90
     4095
 91
        3
280
     0
281
     0
  0
CLASS
  1
DICTIONARYVAR
  2
AcDbDictionaryVar
  3
ObjectDBX Classes
 90
        0
 91
        3
280
     0
281
     0
  0
CLASS
  1
CELLSTYLEMAP
  2
AcDbCellStyleMap
  3
ObjectDBX Classes
 90
     1152
 91
        3
280
     0
281
     0
  0
CLASS
  1
MENTALRAYRENDERSETTINGS
  2
AcDbMentalRayRenderSettings
  3
SCENEOE
 90
     1024
 91
        3
280
     0
281
     0
  0
CLASS
  1
ACDBDETAILVIEWSTYLE
  2
AcDbDetailViewStyle
  3
ObjectDBX Classes
 90
     1025
 91
        3
280
     0
281
     0
  0
CLASS
  1
ACDBSECTIONVIEWSTYLE
  2
AcDbSectionViewStyle
  3
ObjectDBX Classes
 90
     1025
 91
        3
280
     0
281
     0
  0
CLASS
  1
RASTERVARIABLES
  2
AcDbRasterVariables
  3
ISM
 90
        0
 91
        3
280
     0
281
     0
  0
CLASS
  1
ACDBPLACEHOLDER
  2
AcDbPlaceHolder
  3
ObjectDBX Classes
 90
        0
 91
        1
280
     0
281
     0
  0
CLASS
  1
LAYOUT
  2
AcDbLayout
  3
ObjectDBX Classes
 90
        0
 91
        1
280
     0
281
     0
  0
ENDSEC
  0
SECTION
  2
TABLES
  0
TABLE
  2
VPORT
  5
8
330
0
100
AcDbSymbolTable
 70
     1
  0
VPORT
  5
1006A
330
8
100
AcDbSymbolTableRecord
100
AcDbViewportTableRecord
  2
*Active
 70
     0
 10
0.0
 20
0.0
 11
1.0
 21
1.0
 12
0.0
 22
0.0
 13
0.0
 23
0.0
 14
0.5
 24
0.5
 15
0.5
 25
0.5
 16
0.0
 26
0.0
 36
1.0
 17
0.0
 27
0.0
 37
0.0
 40
1000.0
 41
1.34
 42
50.0
 43
0.0
 44
0.0
 50
0.0
 51
0.0
 71
     0
 72
  1000
 73
     1
 74
     3
 75
     0
 76
     0
 77
     0
 78
     0
281
     0
 65
     0
110
0.0
120
0.0
130
0.0
111
1.0
121
0.0
131
0.0
112
0.0
122
1.0
132
0.0
 79
     0
146
0.0
 60
     3
 61
     5
292
     1
282
     1
141
0.0
142
0.0
 63
   256
  0
ENDTAB
  0
TABLE
  2
LTYPE
  5
5
330
0
100
AcDbSymbolTable
 70
     1
  0
LTYPE
  5
10090
330
5
100
AcDbSymbolTableRecord
100
AcDbLinetypeTableRecord
  2
ByBlock
 70
     0
  3

 72
    65
 73
     0
 40
0.0
  0
LTYPE
  5
10091
330
5
100
AcDbSymbolTableRecord
100
AcDbLinetypeTableRecord
  2
ByLayer
 70
     0
  3

 72
    65
 73
     0
 40
0.0
  0
LTYPE
  5
1006B
330
5
100
AcDbSymbolTableRecord
100
AcDbLinetypeTableRecord
  2
Continuous
 70
     0
  3

 72
    65
 73
     0
 40
0.0
  0
ENDTAB
  0
TABLE
  2
LAYER
  5
2
330
0
100
AcDbSymbolTable
 70
     2
  0
LAYER
  5
50
330
2
100
AcDbSymbolTableRecord
100
AcDbLayerTableRecord
  2
0
 70
     0
 62
     7
  6
Continuous
370
    -3
390
10060
347
10068
348
0
  0
LAYER
  5
1006C
330
2
100
AcDbSymbolTableRecord
100
AcDbLayerTableRecord
  2
Defpoints
 70
     0
 62
     7
  6
Continuous
290
     0
370
    -3
390
10060
347
10068
348
0
  0
ENDTAB
  0
TABLE
  2
STYLE
  5
3
330
0
100
AcDbSymbolTable
 70
     1
  0
STYLE
  5
11
330
3
100
AcDbSymbolTableRecord
100
AcDbTextStyleTableRecord
  2
STANDARD
 70
     0
 40
0.0
 41
1.0
 50
0.0
 71
     0
 42
2.5
  3
txt
  4

  0
ENDTAB
  0
TABLE
  2
VIEW
  5
6
330
0
100
AcDbSymbolTable
 70
     0
  0
ENDTAB
  0
TABLE
  2
UCS
  5
7
330
0
100
AcDbSymbolTable
 70
     0
  0
ENDTAB
  0
TABLE
  2
APPID
  5
9
330
0
100
AcDbSymbolTable
 70
     3
  0
APPID
  5
12
330
9
100
AcDbSymbolTableRecord
100
AcDbRegAppTableRecord
  2
ACAD
 70
     0
  0
APPID
  5
1008C
330
9
100
AcDbSymbolTableRecord
100
AcDbRegAppTableRecord
  2
HATCHBACKGROUNDCOLOR
 70
     0
  0
APPID
  5
1008D
330
9
100
AcDbSymbolTableRecord
100
AcDbRegAppTableRecord
  2
EZDXF
 70
     0
  0
ENDTAB
  0
TABLE
  2
DIMSTYLE
  5
A
330
0
100
AcDbSymbolTable
 70
     1
100
AcDbDimStyleTable
  0
DIMSTYLE
105
1006D
330
A
100
AcDbSymbolTableRecord
100
AcDbDimStyleTableRecord
  2
Standard
 70
     0
 41
2.5
 42
0.625
 43
3.75
 44
1.25
 73
     0
 74
     0
 77
     1
 78
     8
 79
     3
140
2.5
141
2.5
143
0.03937007874
147
0.625
171
     3
172
     1
178
     0
179
     2
271
     2
272
     2
274
     3
278
    44
283
     0
284
     8
340
11
  0
ENDTAB
  0
TABLE
  2
BLOCK_RECORD
  5
1
330
0
100
AcDbSymbolTable
 70
    20
  0
BLOCK_RECORD
  5
1F
330
1
100
AcDbSymbolTableRecord
100
AcDbBlockTableRecord
  2
*MODEL_SPACE
340
10064
 70
     0
280
     1
281
     0
  0
BLOCK_RECORD
  5
1B
330
1
100
AcDbSymbolTableRecord
100
AcDbBlockTableRecord
  2
*PAPER_SPACE
340
10065
 70
     0
280
     1
281
     0
  0
BLOCK_RECORD
  5
FFFF
330
1
100
AcDbSymbolTableRecord
100
AcDbBlockTableRecord
  2
_CLOSEDFILLED
340
0
 70
     0
280
     1
281
     0
  0
BLOCK_RECORD
  5
10003
330
1
100
AcDbSymbolTableRecord
100
AcDbBlockTableRecord
  2
_OPEN
340
0
 70
     0
280
     1
281
     0
  0
BLOCK_RECORD
  5
10008
330
1
100
AcDbSymbolTableRecord
100
AcDbBlockTableRecord
  2
_OBLIQUE
340
0
 70
     0
280
     1
281
     0
  0
BLOCK_RECORD
  5
1000C
330
1
100
AcDbSymbolTableRecord
100
AcDbBlockTableRecord
  2
_SMALL
340
0
 70
     0
280
     1
281
     0
  0
BLOCK_RECORD
  5
10010
330
1
100
AcDbSymbolTableRecord
100
AcDbBlockTableRecord
  2
_BOXBLANK
340
0
 70
     0
280
     1
281
     0
  0
BLOCK_RECORD
  5
10015
330
1
100
AcDbSymbolTableRecord
100
AcDbBlockTableRecord
  2
_CLOSED
340
0
 70
     0
280
     1
281
     0
  0
BLOCK_RECORD
  5
1001A
330
1
100
AcDbSymbolTableRecord
100
AcDbBlockTableRecord
  2
_ARCHTICK
340
0
 70
     0
280
     1
281
     0
  0
BLOCK_RECORD
  5
1001E
330
1
100
AcDbSymbolTableRecord
100
AcDbBlockTableRecord
  2
_ORIGIN2
340
0
 70
     0
280
     1
281
     0
  0
BLOCK_RECORD
  5
10024
330
1
100
AcDbSymbolTableRecord
100
AcDbBlockTableRecord
  2
_DOT
340
0
 70
     0
280
     1
281
     0
  0
BLOCK_RECORD
  5
10029
330
1
100
AcDbSymbolTableRecord
100
AcDbBlockTableRecord
  2
_NONE
340
0
 70
     0
280
     1
281
     0
  0
BLOCK_RECORD
  5
1002C
330
1
100
AcDbSymbolTableRecord
100
AcDbBlockTableRecord
  2
_DATUMBLANK
340
0
 70
     0
280
     1
281
     0
  0
BLOCK_RECORD
  5
10030
330
1
100
AcDbSymbolTableRecord
100
AcDbBlockTableRecord
  2
_ORIGIN
340
0
 70
     0
280
     1
281
     0
  0
BLOCK_RECORD
  5
10035
330
1
100
AcDbSymbolTableRecord
100
AcDbBlockTableRecord
  2
_DOTSMALL
340
0
 70
     0
280
     1
281
     0
  0
BLOCK_RECORD
  5
10039
330
1
100
AcDbSymbolTableRecord
100
AcDbBlockTableRecord
  2
_DATUMFILLED
340
0
 70
     0
280
     1
281
     0
  0
BLOCK_RECORD
  5
1003D
330
1
100
AcDbSymbolTableRecord
100
AcDbBlockTableRecord
  2
_BOXFILLED
340
0
 70
     0
280
     1
281
     0
  0
BLOCK_RECORD
  5
10042
330
1
100
AcDbSymbolTableRecord
100
AcDbBlockTableRecord
  2
_OPEN30
340
0
 70
     0
280
     1
281
     0
  0
BLOCK_RECORD
  5
10047
330
1
100
AcDbSymbolTableRecord
100
AcDbBlockTableRecord
  2
_OPEN90
340
0
 70
     0
280
     1
281
     0
  0
BLOCK_RECORD
  5
1004C
330
1
100
AcDbSymbolTableRecord
100
AcDbBlockTableRecord
  2
_CLOSEDBLANK
340
0
 70
     0
280
     1
281
     0
  0
BLOCK_RECORD
  5
10050
330
1
100
AcDbSymbolTableRecord
100
AcDbBlockTableRecord
  2
_DOTBLANK
340
0
 70
     0
280
     1
281
     0
  0
BLOCK_RECORD
  5
10055
330
1
100
AcDbSymbolTableRecord
100
AcDbBlockTableRecord
  2
_INTEGRAL
340
0
 70
     0
280
     1
281
     0
  0
ENDTAB
  0
ENDSEC
  0
SECTION
  2
BLOCKS
  0
BLOCK
  5
20
330
1F
100
AcDbEntity
  8
0
100
AcDbBlockBegin
  2
*MODEL_SPACE
 70
     0
 10
0.0
 20
0.0
 30
0.0
  3
*MODEL_SPACE
  1

  0
ENDBLK
  5
21
330
1F
100
AcDbEntity
  8
0
100
AcDbBlockEnd
  0
BLOCK
  5
1C
330
1B
100
AcDbEntity
 67
     1
  8
0
100
AcDbBlockBegin
  2
*PAPER_SPACE
 70
     0
 10
0.0
 20
0.0
 30
0.0
  3
*PAPER_SPACE
  1

  0
ENDBLK
  5
1D
330
1B
100
AcDbEntity
 67
     1
  8
0
100
AcDbBlockEnd
  0
BLOCK
  5
10000
330
FFFF
100
AcDbEntity
  8
0
100
AcDbBlockBegin
  2
_CLOSEDFILLED
 70
     0
 10
0.0
 20
0.0
 30
0.0
  3
_CLOSEDFILLED
  1

  0
SOLID
  5
10002
330
FFFF
100
AcDbEntity
  8
0
 62
     0
100
AcDbTrace
 10
-1.0
 20
0.1643989837240254
 30
0.0
 11
0.0
 21
0.0
 31
0.0
 12
-1.0
 22
-0.1643989837240254
 32
0.0
 13
-1.0
 23
-0.1643989837240254
 33
0.0
  0
ENDBLK
  5
10001
330
FFFF
100
AcDbEntity
  8
0
100
AcDbBlockEnd
  0
BLOCK
  5
10004
330
10003
100
AcDbEntity
  8
0
100
AcDbBlockBegin
  2
_OPEN
 70
     0
 10
0.0
 20
0.0
 30
0.0
  3
_OPEN
  1

  0
LWPOLYLINE
  5
10006
330
10003
100
AcDbEntity
  8
0
 62
     0
100
AcDbPolyline
 90
        3
 70
     0
 43
0.0
 10
-1.0
 20
0.1643989837240254
 10
0.0
 20
0.0
 10
-1.0
 20
-0.1643989837240254
  0
LINE
  5
10007
330
10003
100
AcDbEntity
  8
0
 62
     0
100
AcDbLine
 10
0.0
 20
0.0
 30
0.0
 11
-1.0
 21
0.0
 31
0.0
  0
ENDBLK
  5
10005
330
10003
100
AcDbEntity
  8
0
100
AcDbBlockEnd
  0
BLOCK
  5
10009
330
10008
100
AcDbEntity
  8
0
100
AcDbBlockBegin
  2
_OBLIQUE
 70
     0
 10
0.0
 20
0.0
 30
0.0
  3
_OBLIQUE
  1

  0
LINE
  5
1000B
330
10008
100
AcDbEntity
  8
0
 62
     0
100
AcDbLine
 10
-0.5
 20
-0.5
 30
0.0
 11
0.5
 21
0.5
 31
0.0
  0
ENDBLK
  5
1000A
330
10008
100
AcDbEntity
  8
0
100
AcDbBlockEnd
  0
BLOCK
  5
1000D
330
1000C
100
AcDbEntity
  8
0
100
AcDbBlockBegin
  2
_SMALL
 70
     0
 10
0.0
 20
0.0
 30
0.0
  3
_SMALL
  1

  0
CIRCLE
  5
1000F
330
1000C
100
AcDbEntity
  8
0
 62
     0
100
AcDbCircle
 10
0.0
 20
0.0
 30
0.0
 40
0.25
  0
ENDBLK
  5
1000E
330
1000C
100
AcDbEntity
  8
0
100
AcDbBlockEnd
  0
BLOCK
  5
10011
330
10010
100
AcDbEntity
  8
0
100
AcDbBlockBegin
  2
_BOXBLANK
 70
     0
 10
0.0
 20
0.0
 30
0.0
  3
_BOXBLANK
  1

  0
LWPOLYLINE
  5
10013
330
10010
100
AcDbEntity
  8
0
 62
     0
100
AcDbPolyline
 90
        4
 70
     1
 43
0.0
 10
-0.5
 20
-0.5
 10
0.5
 20
-0.5
 10
0.5
 20
0.5
 10
-0.5
 20
0.5
  0
LINE
  5
10014
330
10010
100
AcDbEntity
  8
0
 62
     0
100
AcDbLine
 10
-0.5
 20
0.0
 30
0.0
 11
-1.0
 21
0.0
 31
0.0
  0
ENDBLK
  5
10012
330
10010
100
AcDbEntity
  8
0
100
AcDbBlockEnd
  0
BLOCK
  5
10016
330
10015
100
AcDbEntity
  8
0
100
AcDbBlockBegin
  2
_CLOSED
 70
     0
 10
0.0
 20
0.0
 30
0.0
  3
_CLOSED
  1

  0
LWPOLYLINE
  5
10018
330
10015
100
AcDbEntity
  8
0
 62
     0
100
AcDbPolyline
 90
        3
 70
     1
 43
0.0
 10
-1.0
 20
0.1643989837240254
 10
0.0
 20
0.0
 10
-1.0
 20
-0.1643989837240254
  0
LINE
  5
10019
330
10015
100
AcDbEntity
  8
0
 62
     0
100
AcDbLine
 10
0.0
 20
0.0
 30
0.0
 11
-1.0
 21
0.0
 31
0.0
  0
ENDBLK
  5
10017
330
10015
100
AcDbEntity
  8
0
100
AcDbBlockEnd
  0
BLOCK
  5
1001B
330
1001A
100
AcDbEntity
  8
0
100
AcDbBlockBegin
  2
_ARCHTICK
 70
     0
 10
0.0
 20
0.0
 30
0.0
  3
_ARCHTICK
  1

  0
LWPOLYLINE
  5
1001D
330
1001A
100
AcDbEntity
  8
0
 62
     0
100
AcDbPolyline
 90
        2
 70
     0
 43
0.15
 10
-0.5
 20
-0.5
 10
0.5
 20
0.5
  0
ENDBLK
  5
1001C
330
1001A
100
AcDbEntity
  8
0
100
AcDbBlockEnd
  0
BLOCK
  5
1001F
330
1001E
100
AcDbEntity
  8
0
100
AcDbBlockBegin
  2
_ORIGIN2
 70
     0
 10
0.0
 20
0.0
 30
0.0
  3
_ORIGIN2
  1

  0
CIRCLE
  5
10021
330
1001E
100
AcDbEntity
  8
0
 62
     0
100
AcDbCircle
 10
0.0
 20
0.0
 30
0.0
 40
0.5
  0
CIRCLE
  5
10022
330
1001E
100
AcDbEntity
  8
0
 62
     0
100
AcDbCircle
 10
0.0
 20
0.0
 30
0.0
 40
0.25
  0
LINE
  5
10023
330
1001E
100
AcDbEntity
  8
0
 62
     0
100
AcDbLine
 10
-0.5
 20
0.0
 30
0.0
 11
-1.0
 21
0.0
 31
0.0
  0
ENDBLK
  5
10020
330
1001E
100
AcDbEntity
  8
0
100
AcDbBlockEnd
  0
BLOCK
  5
10025
330
10024
100
AcDbEntity
  8
0
100
AcDbBlockBegin
  2
_DOT
 70
     0
 10
0.0
 20
0.0
 30
0.0
  3
_DOT
  1

  0
LINE
  5
10027
330
10024
100
AcDbEntity
  8
0
 62
     0
100
AcDbLine
 10
-0.5
 20
0.0
 30
0.0
 11
-1.0
 21
0.0
 31
0.0
  0
LWPOLYLINE
  5
10028
330
10024
100
AcDbEntity
  8
0
 62
     0
100
AcDbPolyline
 90
        2
 70
     1
 43
0.5
 10
-0.25
 20
0.0
 42
1.0
 10
0.25
 20
0.0
 42
1.0
  0
ENDBLK
  5
10026
330
10024
100
AcDbEntity
  8
0
100
AcDbBlockEnd
  0
BLOCK
  5
1002A
330
10029
100
AcDbEntity
  8
0
100
AcDbBlockBegin
  2
_NONE
 70
     0
 10
0.0
 20
0.0
 30
0.0
  3
_NONE
  1

  0
ENDBLK
  5
1002B
330
10029
100
AcDbEntity
  8
0
100
AcDbBlockEnd
  0
BLOCK
  5
1002D
330
1002C
100
AcDbEntity
  8
0
100
AcDbBlockBegin
  2
_DATUMBLANK
 70
     0
 10
0.0
 20
0.0
 30
0.0
  3
_DATUMBLANK
  1

  0
LWPOLYLINE
  5
1002F
330
1002C
100
AcDbEntity
  8
0
 62
     0
100
AcDbPolyline
 90
        3
 70
     1
 43
0.0
 10
0.0
 20
0.577350269
 10
0.0
 20
-0.577350269
 10
-1.0
 20
0.0
  0
ENDBLK
  5
1002E
330
1002C
100
AcDbEntity
  8
0
100
AcDbBlockEnd
  0
BLOCK
  5
10031
330
10030
100
AcDbEntity
  8
0
100
AcDbBlockBegin
  2
_ORIGIN
 70
     0
 10
0.0
 20
0.0
 30
0.0
  3
_ORIGIN
  1

  0
CIRCLE
  5
10033
330
10030
100
AcDbEntity
  8
0
 62
     0
100
AcDbCircle
 10
0.0
 20
0.0
 30
0.0
 40
0.5
  0
LINE
  5
10034
330
10030
100
AcDbEntity
  8
0
 62
     0
100
AcDbLine
 10
0.0
 20
0.0
 30
0.0
 11
-1.0
 21
0.0
 31
0.0
  0
ENDBLK
  5
10032
330
10030
100
AcDbEntity
  8
0
100
AcDbBlockEnd
  0
BLOCK
  5
10036
330
10035
100
AcDbEntity
  8
0
100
AcDbBlockBegin
  2
_DOTSMALL
 70
     0
 10
0.0
 20
0.0
 30
0.0
  3
_DOTSMALL
  1

  0
LWPOLYLINE
  5
10038
330
10035
100
AcDbEntity
  8
0
 62
     0
100
AcDbPolyline
 90
        2
 70
     1
 43
0.125
 10
-0.0625
 20
0.0
 42
1.0
 10
0.0625
 20
0.0
 42
1.0
  0
ENDBLK
  5
10037
330
10035
100
AcDbEntity
  8
0
100
AcDbBlockEnd
  0
BLOCK
  5
1003A
330
10039
100
AcDbEntity
  8
0
100
AcDbBlockBegin
  2
_DATUMFILLED
 70
     0
 10
0.0
 20
0.0
 30
0.0
  3
_DATUMFILLED
  1

  0
SOLID
  5
1003C
330
10039
100
AcDbEntity
  8
0
 62
     0
100
AcDbTrace
 10
0.0
 20
0.577350269
 30
0.0
 11
0.0
 21
-0.577350269
 31
0.0
 12
-1.0
 22
0.0
 32
0.0
 13
-1.0
 23
0.0
 33
0.0
  0
ENDBLK
  5
1003B
330
10039
100
AcDbEntity
  8
0
100
AcDbBlockEnd
  0
BLOCK
  5
1003E
330
1003D
100
AcDbEntity
  8
0
100
AcDbBlockBegin
  2
_BOXFILLED
 70
     0
 10
0.0
 20
0.0
 30
0.0
  3
_BOXFILLED
  1

  0
SOLID
  5
10040
330
1003D
100
AcDbEntity
  8
0
 62
     0
100
AcDbTrace
 10
-0.5
 20
-0.5
 30
0.0
 11
0.5
 21
-0.5
 31
0.0
 12
-0.5
 22
0.5
 32
0.0
 13
0.5
 23
0.5
 33
0.0
  0
LINE
  5
10041
330
1003D
100
AcDbEntity
  8
0
 62
     0
100
AcDbLine
 10
-0.5
 20
0.0
 30
0.0
 11
-1.0
 21
0.0
 31
0.0
  0
ENDBLK
  5
1003F
330
1003D
100
AcDbEntity
  8
0
100
AcDbBlockEnd
  0
BLOCK
  5
10043
330
10042
100
AcDbEntity
  8
0
100
AcDbBlockBegin
  2
_OPEN30
 70
     0
 10
0.0
 20
0.0
 30
0.0
  3
_OPEN30
  1

  0
LWPOLYLINE
  5
10045
330
10042
100
AcDbEntity
  8
0
 62
     0
100
AcDbPolyline
 90
        3
 70
     0
 43
0.0
 10
-1.0
 20
0.2588190451025207
 10
0.0
 20
0.0
 10
-1.0
 20
-0.2588190451025207
  0
LINE
  5
10046
330
10042
100
AcDbEntity
  8
0
 62
     0
100
AcDbLine
 10
0.0
 20
0.0
 30
0.0
 11
-1.0
 21
0.0
 31
0.0
  0
ENDBLK
  5
10044
330
10042
100
AcDbEntity
  8
0
100
AcDbBlockEnd
  0
BLOCK
  5
10048
330
10047
100
AcDbEntity
  8
0
100
AcDbBlockBegin
  2
_OPEN90
 70
     0
 10
0.0
 20
0.0
 30
0.0
  3
_OPEN90
  1

  0
LWPOLYLINE
  5
1004A
330
10047
100
AcDbEntity
  8
0
 62
     0
100
AcDbPolyline
 90
        3
 70
     0
 43
0.0
 10
-1.0
 20
0.7071067811865475
 10
0.0
 20
0.0
 10
-1.0
 20
-0.7071067811865475
  0
LINE
  5
1004B
330
10047
100
AcDbEntity
  8
0
 62
     0
100
AcDbLine
 10
0.0
 20
0.0
 30
0.0
 11
-1.0
 21
0.0
 31
0.0
  0
ENDBLK
  5
10049
330
10047
100
AcDbEntity
  8
0
100
AcDbBlockEnd
  0
BLOCK
  5
1004D
330
1004C
100
AcDbEntity
  8
0
100
AcDbBlockBegin
  2
_CLOSEDBLANK
 70
     0
 10
0.0
 20
0.0
 30
0.0
  3
_CLOSEDBLANK
  1

  0
LWPOLYLINE
  5
1004F
330
1004C
100
AcDbEntity
  8
0
 62
     0
100
AcDbPolyline
 90
        3
 70
     1
 43
0.0
 10
-1.0
 20
0.1643989837240254
 10
0.0
 20
0.0
 10
-1.0
 20
-0.1643989837240254
  0
ENDBLK
  5
1004E
330
1004C
100
AcDbEntity
  8
0
100
AcDbBlockEnd
  0
BLOCK
  5
10051
330
10050
100
AcDbEntity
  8
0
100
AcDbBlockBegin
  2
_DOTBLANK
 70
     0
 10
0.0
 20
0.0
 30
0.0
  3
_DOTBLANK
  1

  0
CIRCLE
  5
10053
330
10050
100
AcDbEntity
  8
0
 62
     0
100
AcDbCircle
 10
0.0
 20
0.0
 30
0.0
 40
0.5
  0
LINE
  5
10054
330
10050
100
AcDbEntity
  8
0
 62
     0
100
AcDbLine
 10
-0.5
 20
0.0
 30
0.0
 11
-1.0
 21
0.0
 31
0.0
  0
ENDBLK
  5
10052
330
10050
100
AcDbEntity
  8
0
100
AcDbBlockEnd
  0
BLOCK
  5
10056
330
10055
100
AcDbEntity
  8
0
100
AcDbBlockBegin
  2
_INTEGRAL
 70
     0
 10
0.0
 20
0.0
 30
0.0
  3
_INTEGRAL
  1

  0
ARC
  5
10058
330
10055
100
AcDbEntity
  8
0
 62
     0
100
AcDbCircle
 10
-0.3535534
 20
0.0
 30
0.0
 40
0.3535534
100
AcDbArc
 50
-90.0
 51
0.0
  0
ARC
  5
10059
330
10055
100
AcDbEntity
  8
0
 62
     0
100
AcDbCircle
 10
0.3535534
 20
0.0
 30
0.0
 40
0.3535534
100
AcDbArc
 50
90.0
 51
180.0
  0
ENDBLK
  5
10057
330
10055
100
AcDbEntity
  8
0
100
AcDbBlockEnd
  0
ENDSEC
  0
SECTION
  2
ENTITIES
  0
CIRCLE
  5
100
330
1F
100
AcDbEntity
  8
0
100
AcDbCircle
 10
42.8625
 20
-38.10000000000001
 30
0.0
 40
1.0
  0
CIRCLE
  5
101
330
1F
100
AcDbEntity
  8
0
100
AcDbCircle
 10
90.4875
 20
-57.15
 30
0.0
 40
1.0
  0
CIRCLE
  5
102
330
1F
100
AcDbEntity
  8
0
100
AcDbCircle
 10
28.575
 20
0.0
 30
0.0
 40
1.0
  0
CIRCLE
  5
103
330
1F
100
AcDbEntity
  8
0
100
AcDbCircle
 10
185.7375
 20
-57.15
 30
0.0
 40
1.0
  0
CIRCLE
  5
104
330
1F
100
AcDbEntity
  8
0
100
AcDbCircle
 10
171.45
 20
-19.05
 30
0.0
 40
1.0
  0
CIRCLE
  5
105
330
1F
100
AcDbEntity
  8
0
100
AcDbCircle
 10
142.875
 20
0.0
 30
0.0
 40
1.0
  0
CIRCLE
  5
106
330
1F
100
AcDbEntity
  8
0
100
AcDbCircle
 10
66.67500000000001
 20
0.0
 30
0.0
 40
1.0
  0
CIRCLE
  5
107
330
1F
100
AcDbEntity
  8
0
100
AcDbCircle
 10
95.25
 20
-19.05
 30
0.0
 40
1.0
  0
LWPOLYLINE
  5
108
330
1F
100
AcDbEntity
  8
0
100
AcDbPolyline
 90
        8
 70
     1
 43
0.0
 10
140.3375
 20
-31.6
 10
140.3375
 20
-44.6
 42
0.4142123908030501
 10
140.8375
 20
-45.10000000000001
 10
154.4375
 20
-45.10000000000001
 42
0.4142135623730951
 10
154.9375
 20
-44.6
 10
154.9375
 20
-31.6
 42
0.4142135623730951
 10
154.4375
 20
-31.1
 10
140.8375
 20
-31.1
 42
0.4142123908030527
  0
LWPOLYLINE
  5
109
330
1F
100
AcDbEntity
  8
0
100
AcDbPolyline
 90
        8
 70
     1
 43
0.0
 10
187.9625
 20
-50.65000000000001
 10
187.9625
 20
-63.65000000000001
 42
0.4142123908030449
 10
188.4625
 20
-64.14999999999999
 10
202.0625
 20
-64.14999999999999
 42
0.4142135623730951
 10
202.5625
 20
-63.65000000000001
 10
202.5625
 20
-50.65000000000001
 42
0.4142135623730951
 10
202.0625
 20
-50.15000000000001
 10
188.4625
 20
-50.15000000000001
 42
0.4142123908030397
  0
LWPOLYLINE
  5
110
330
1F
100
AcDbEntity
  8
0
100
AcDbPolyline
 90
        8
 70
     1
 43
0.0
 10
216.5375
 20
-31.6
 10
216.5375
 20
-44.6
 42
0.4142123908030397
 10
217.0375
 20
-45.10000000000001
 10
230.6375
 20
-45.10000000000001
 42
0.4142135623730951
 10
231.1375
 20
-44.6
 10
231.1375
 20
-31.6
 42
0.4142135623730951
 10
230.6375
 20
-31.1
 10
217.0375
 20
-31.1
 42
0.4142123908030423
  0
LWPOLYLINE
  5
111
330
1F
100
AcDbEntity
  8
0
100
AcDbPolyline
 90
        8
 70
     1
 43
0.0
 10
59.375
 20
-12.55
 10
59.375
 20
-25.55
 42
0.4142123908030527
 10
59.87500000000001
 20
-26.05
 10
73.47499999999998
 20
-26.05
 42
0.4142135623730951
 10
73.97499999999998
 20
-25.55
 10
73.97499999999998
 20
-12.55
 42
0.4142135623730951
 10
73.47499999999998
 20
-12.05
 10
59.87500000000001
 20
-12.05
 42
0.4142123908030514
  0
LWPOLYLINE
  5
112
330
1F
100
AcDbEntity
  8
0
100
AcDbPolyline
 90
        8
 70
     1
 43
0.0
 10
64.1375
 20
-31.6
 10
64.1375
 20
-44.6
 42
0.4142123908030501
 10
64.63750000000002
 20
-45.10000000000001
 10
78.23749999999998
 20
-45.10000000000001
 42
0.4142135623730951
 10
78.73749999999998
 20
-44.6
 10
78.73749999999998
 20
-31.6
 42
0.4142135623730951
 10
78.23749999999998
 20
-31.1
 10
64.63750000000002
 20
-31.1
 42
0.4142123908030527
  0
LINE
  5
113
330
1F
100
AcDbEntity
  8
0
100
AcDbLine
 10
-2.537500000000001
 20
-12.55
 30
0.0
 11
-2.537500000000001
 21
-25.55
 31
0.0
  0
LINE
  5
114
330
1F
100
AcDbEntity
  8
0
100
AcDbLine
 10
-2.0375
 20
-26.05
 30
0.0
 11
11.5625
 21
-26.05
 31
0.0
  0
LINE
  5
115
330
1F
100
AcDbEntity
  8
0
100
AcDbLine
 10
11.5625
 20
-12.05
 30
0.0
 11
-2.037500000000001
 21
-12.05
 31
0.0
  0
ARC
  5
116
330
1F
100
AcDbEntity
  8
0
100
AcDbCircle
 10
-2.0375
 20
-12.55
 30
0.0
 40
0.5000000000000004
100
AcDbArc
 50
90.00000000000009
 51
180.0
  0
ARC
  5
117
330
1F
100
AcDbEntity
  8
0
100
AcDbCircle
 10
-2.0375
 20
-25.55
 30
0.0
 40
0.5000000000000002
100
AcDbArc
 50
180.0
 51
270.0
  0
ARC
  5
118
330
1F
100
AcDbEntity
  8
0
100
AcDbCircle
 10
11.562499
 20
-12.550001
 30
0.0
 40
0.5000010000009988
100
AcDbArc
 50
0.000114590291538
 51
89.99988540867045
  0
ARC
  5
119
330
1F
100
AcDbEntity
  8
0
100
AcDbCircle
 10
11.562499
 20
-25.549999
 30
0.0
 40
0.500001000001001
100
AcDbArc
 50
270.0001145913296
 51
359.9998854097084
  0
LWPOLYLINE
  5
120
330
1F
100
AcDbEntity
  8
0
100
AcDbPolyline
 90
        8
 70
     1
 43
0.0
 10
211.775
 20
-12.55
 10
211.775
 20
-25.55
 42
0.4142123908030632
 10
212.275
 20
-26.05
 10
225.875
 20
-26.05
 42
0.4142135623730951
 10
226.375
 20
-25.55
 10
226.375
 20
-12.55
 42
0.4142135623730951
 10
225.875
 20
-12.05
 10
212.275
 20
-12.05
 42
0.4142123908030618
  0
LWPOLYLINE
  5
121
330
1F
100
AcDbEntity
  8
0
100
AcDbPolyline
 90
        8
 70
     1
 43
0.0
 10
173.675
 20
-12.55
 10
173.675
 20
-25.55
 42
0.4142123908030632
 10
174.175
 20
-26.05
 10
187.775
 20
-26.05
 42
0.4142135623730951
 10
188.275
 20
-25.55
 10
188.275
 20
-12.55
 42
0.4142135623730951
 10
187.775
 20
-12.05
 10
174.175
 20
-12.05
 42
0.4142123908030618
  0
LWPOLYLINE
  5
122
330
1F
100
AcDbEntity
  8
0
100
AcDbPolyline
 90
        8
 70
     1
 43
0.0
 10
107.0
 20
6.5
 10
107.0
 20
-6.5
 42
0.4142123908030417
 10
107.5
 20
-7.000000000000001
 10
121.1
 20
-7.000000000000001
 42
0.4142135623730951
 10
121.6
 20
-6.5
 10
121.6
 20
6.5
 42
0.4142135623730951
 10
121.1
 20
7.000000000000001
 10
107.5
 20
7.000000000000001
 42
0.4142123908030417
  0
LWPOLYLINE
  5
123
330
1F
100
AcDbEntity
  8
0
100
AcDbPolyline
 90
        8
 70
     1
 43
0.0
 10
78.42499999999998
 20
-12.55
 10
78.42499999999998
 20
-25.55
 42
0.4142123908030476
 10
78.92499999999998
 20
-26.05
 10
92.525
 20
-26.05
 42
0.4142135623730951
 10
93.025
 20
-25.55
 10
93.025
 20
-12.55
 42
0.4142135623730951
 10
92.525
 20
-12.05
 10
78.92499999999998
 20
-12.05
 42
0.4142123908030463
  0
LWPOLYLINE
  5
124
330
1F
100
AcDbEntity
  8
0
100
AcDbPolyline
 90
        8
 70
     1
 43
0.0
 10
168.9125
 20
-50.65000000000001
 10
168.9125
 20
-63.65000000000001
 42
0.4142123908030449
 10
169.4125
 20
-64.14999999999999
 10
183.0125
 20
-64.14999999999999
 42
0.4142135623730951
 10
183.5125
 20
-63.65000000000001
 10
183.5125
 20
-50.65000000000001
 42
0.4142135623730951
 10
183.0125
 20
-50.15000000000001
 10
169.4125
 20
-50.15000000000001
 42
0.4142123908030397
  0
LWPOLYLINE
  5
125
330
1F
100
AcDbEntity
  8
0
100
AcDbPolyline
 90
        8
 70
     1
 43
0.0
 10
207.0125
 20
-50.65000000000001
 10
207.0125
 20
-63.65000000000001
 42
0.4142123908030449
 10
207.5125
 20
-64.14999999999999
 10
221.1125
 20
-64.14999999999999
 42
0.4142135623730951
 10
221.6125
 20
-63.65000000000001
 10
221.6125
 20
-50.65000000000001
 42
0.4142135623730951
 10
221.1125
 20
-50.15000000000001
 10
207.5125
 20
-50.15000000000001
 42
0.4142123908030397
  0
LWPOLYLINE
  5
126
330
1F
100
AcDbEntity
  8
0
100
AcDbPolyline
 90
        8
 70
     1
 43
0.0
 10
202.25
 20
6.5
 10
202.25
 20
-6.5
 42
0.4142123908030625
 10
202.75
 20
-7.000000000000001
 10
216.35
 20
-7.000000000000001
 42
0.4142135623730951
 10
216.85
 20
-6.5
 10
216.85
 20
6.5
 42
0.4142135623730951
 10
216.35
 20
7.000000000000001
 10
202.75
 20
7.000000000000001
 42
0.4142123908030625
  0
LWPOLYLINE
  5
127
330
1F
100
AcDbEntity
  8
0
100
AcDbPolyline
 90
        8
 70
     1
 43
0.0
 10
87.95
 20
6.5
 10
87.95
 20
-6.5
 42
0.4142123908030521
 10
88.45
 20
-7.000000000000001
 10
102.05
 20
-7.000000000000001
 42
0.4142135623730951
 10
102.55
 20
-6.5
 10
102.55
 20
6.5
 42
0.4142135623730951
 10
102.05
 20
7.000000000000001
 10
88.45
 20
7.000000000000001
 42
0.4142123908030521
  0
LWPOLYLINE
  5
128
330
1F
100
AcDbEntity
  8
0
100
AcDbPolyline
 90
        8
 70
     1
 43
0.0
 10
178.4375
 20
-31.6
 10
178.4375
 20
-44.6
 42
0.4142123908030397
 10
178.9375
 20
-45.10000000000001
 10
192.5375
 20
-45.10000000000001
 42
0.4142135623730951
 10
193.0375
 20
-44.6
 10
193.0375
 20
-31.6
 42
0.4142135623730951
 10
192.5375
 20
-31.1
 10
178.9375
 20
-31.1
 42
0.4142123908030423
  0
LWPOLYLINE
  5
129
330
1F
100
AcDbEntity
  8
0
100
AcDbPolyline
 90
        8
 70
     1
 43
0.0
 10
54.6125
 20
-50.65000000000001
 10
54.6125
 20
-63.65000000000001
 42
0.4142123908030501
 10
55.1125
 20
-64.14999999999999
 10
68.7125
 20
-64.14999999999999
 42
0.4142135623730951
 10
69.21249999999999
 20
-63.65000000000001
 10
69.21249999999999
 20
-50.65000000000001
 42
0.4142135623730951
 10
68.7125
 20
-50.15000000000001
 10
55.1125
 20
-50.15000000000001
 42
0.4142123908030449
  0
LWPOLYLINE
  5
130
330
1F
100
AcDbEntity
  8
0
100
AcDbPolyline
 90
        8
 70
     1
 43
0.0
 10
230.825
 20
-12.55
 10
230.825
 20
-25.55
 42
0.4142123908030423
 10
231.325
 20
-26.05
 10
244.925
 20
-26.05
 42
0.4142135623730951
 10
245.425
 20
-25.55
 10
245.425
 20
-12.55
 42
0.4142135623730951
 10
244.925
 20
-12.05
 10
231.325
 20
-12.05
 42
0.414212390803041
  0
LWPOLYLINE
  5
131
330
1F
100
AcDbEntity
  8
0
100
AcDbPolyline
 90
        8
 70
     1
 43
0.0
 10
83.1875
 20
-31.6
 10
83.1875
 20
-44.6
 42
0.4142123908030605
 10
83.6875
 20
-45.10000000000001
 10
97.2875
 20
-45.10000000000001
 42
0.4142135623730951
 10
97.78750000000001
 20
-44.6
 10
97.78750000000001
 20
-31.6
 42
0.4142135623730951
 10
97.2875
 20
-31.1
 10
83.6875
 20
-31.1
 42
0.4142123908030632
  0
LWPOLYLINE
  5
132
330
1F
100
AcDbEntity
  8
0
100
AcDbPolyline
 90
        8
 70
     1
 43
0.0
 10
116.525
 20
-12.55
 10
116.525
 20
-25.55
 42
0.4142123908030423
 10
117.025
 20
-26.05
 10
130.625
 20
-26.05
 42
0.4142135623730951
 10
131.125
 20
-25.55
 10
131.125
 20
-12.55
 42
0.4142135623730951
 10
130.625
 20
-12.05
 10
117.025
 20
-12.05
 42
0.414212390803041
  0
LWPOLYLINE
  5
133
330
1F
100
AcDbEntity
  8
0
100
AcDbPolyline
 90
        8
 70
     1
 43
0.0
 10
221.3
 20
6.5
 10
221.3
 20
-6.5
 42
0.4142123908030625
 10
221.8
 20
-7.000000000000001
 10
235.4
 20
-7.000000000000001
 42
0.4142135623730951
 10
235.9
 20
-6.5
 10
235.9
 20
6.5
 42
0.4142135623730951
 10
235.4
 20
7.000000000000001
 10
221.8
 20
7.000000000000001
 42
0.4142123908030625
  0
LWPOLYLINE
  5
134
330
1F
100
AcDbEntity
  8
0
100
AcDbPolyline
 90
        8
 70
     1
 43
0.0
 10
121.2875
 20
-31.6
 10
121.2875
 20
-44.6
 42
0.4142123908030397
 10
121.7875
 20
-45.10000000000001
 10
135.3875
 20
-45.10000000000001
 42
0.4142135623730951
 10
135.8875
 20
-44.6
 10
135.8875
 20
-31.6
 42
0.4142135623730951
 10
135.3875
 20
-31.1
 10
121.7875
 20
-31.1
 42
0.4142123908030423
  0
LWPOLYLINE
  5
135
330
1F
100
AcDbEntity
  8
0
100
AcDbPolyline
 90
        8
 70
     1
 43
0.0
 10
111.7625
 20
-50.65000000000001
 10
111.7625
 20
-63.65000000000001
 42
0.4142123908030449
 10
112.2625
 20
-64.14999999999999
 10
125.8625
 20
-64.14999999999999
 42
0.4142135623730951
 10
126.3625
 20
-63.65000000000001
 10
126.3625
 20
-50.65000000000001
 42
0.4142135623730951
 10
125.8625
 20
-50.15000000000001
 10
112.2625
 20
-50.15000000000001
 42
0.4142123908030397
  0
LWPOLYLINE
  5
136
330
1F
100
AcDbEntity
  8
0
100
AcDbPolyline
 90
        8
 70
     1
 43
0.0
 10
21.275
 20
-12.55
 10
21.275
 20
-25.55
 42
0.4142123908030476
 10
21.775
 20
-26.05
 10
35.375
 20
-26.05
 42
0.4142135623730951
 10
35.875
 20
-25.55
 10
35.875
 20
-12.55
 42
0.4142135623730951
 10
35.375
 20
-12.05
 10
21.775
 20
-12.05
 42
0.4142123908030463
  0
LWPOLYLINE
  5
137
330
1F
100
AcDbEntity
  8
0
100
AcDbPolyline
 90
        8
 70
     1
 43
0.0
 10
183.2
 20
6.5
 10
183.2
 20
-6.5
 42
0.4142123908030625
 10
183.7
 20
-7.000000000000001
 10
197.3
 20
-7.000000000000001
 42
0.4142135623730951
 10
197.8
 20
-6.5
 10
197.8
 20
6.5
 42
0.4142135623730951
 10
197.3
 20
7.000000000000001
 10
183.7
 20
7.000000000000001
 42
0.4142123908030625
  0
LWPOLYLINE
  5
138
330
1F
100
AcDbEntity
  8
0
100
AcDbPolyline
 90
        8
 70
     1
 43
0.0
 10
135.575
 20
-12.55
 10
135.575
 20
-25.55
 42
0.4142123908030527
 10
136.075
 20
-26.05
 10
149.675
 20
-26.05
 42
0.4142135623730951
 10
150.175
 20
-25.55
 10
150.175
 20
-12.55
 42
0.4142135623730951
 10
149.675
 20
-12.05
 10
136.075
 20
-12.05
 42
0.4142123908030514
  0
LWPOLYLINE
  5
139
330
1F
100
AcDbEntity
  8
0
100
AcDbPolyline
 90
        8
 70
     1
 43
0.0
 10
159.3875
 20
-31.6
 10
159.3875
 20
-44.6
 42
0.4142123908030293
 10
159.8875
 20
-45.10000000000001
 10
173.4875
 20
-45.10000000000001
 42
0.4142135623730951
 10
173.9875
 20
-44.6
 10
173.9875
 20
-31.6
 42
0.4142135623730951
 10
173.4875
 20
-31.1
 10
159.8875
 20
-31.1
 42
0.4142123908030319
  0
LWPOLYLINE
  5
140
330
1F
100
AcDbEntity
  8
0
100
AcDbPolyline
 90
        8
 70
     1
 43
0.0
 10
26.0375
 20
-31.6
 10
26.0375
 20
-44.6
 42
0.4142123908030501
 10
26.5375
 20
-45.10000000000001
 10
40.13750000000001
 20
-45.10000000000001
 42
0.4142135623730951
 10
40.6375
 20
-44.6
 10
40.6375
 20
-31.6
 42
0.4142135623730951
 10
40.13750000000001
 20
-31.1
 10
26.5375
 20
-31.1
 42
0.4142123908030527
  0
LWPOLYLINE
  5
141
330
1F
100
AcDbEntity
  8
0
100
AcDbPolyline
 90
        8
 70
     1
 43
0.0
 10
126.05
 20
6.5
 10
126.05
 20
-6.5
 42
0.4142123908030521
 10
126.55
 20
-7.000000000000001
 10
140.15
 20
-7.000000000000001
 42
0.4142135623730951
 10
140.65
 20
-6.5
 10
140.65
 20
6.5
 42
0.4142135623730951
 10
140.15
 20
7.000000000000001
 10
126.55
 20
7.000000000000001
 42
0.4142123908030521
  0
LWPOLYLINE
  5
142
330
1F
100
AcDbEntity
  8
0
100
AcDbPolyline
 90
        8
 70
     1
 43
0.0
 10
154.625
 20
-12.55
 10
154.625
 20
-25.55
 42
0.4142123908030527
 10
155.125
 20
-26.05
 10
168.725
 20
-26.05
 42
0.4142135623730951
 10
169.225
 20
-25.55
 10
169.225
 20
-12.55
 42
0.4142135623730951
 10
168.725
 20
-12.05
 10
155.125
 20
-12.05
 42
0.4142123908030514
  0
LWPOLYLINE
  5
143
330
1F
100
AcDbEntity
  8
0
100
AcDbPolyline
 90
        8
 70
     1
 43
0.0
 10
35.5625
 20
-50.65000000000001
 10
35.5625
 20
-63.65000000000001
 42
0.4142123908030527
 10
36.0625
 20
-64.14999999999999
 10
49.66250000000001
 20
-64.14999999999999
 42
0.4142135623730951
 10
50.1625
 20
-63.65000000000001
 10
50.1625
 20
-50.65000000000001
 42
0.4142135623730951
 10
49.66250000000001
 20
-50.15000000000001
 10
36.0625
 20
-50.15000000000001
 42
0.4142123908030476
  0
LWPOLYLINE
  5
144
330
1F
100
AcDbEntity
  8
0
100
AcDbPolyline
 90
        8
 70
     1
 43
0.0
 10
68.89999999999999
 20
6.5
 10
68.89999999999999
 20
-6.5
 42
0.4142123908030417
 10
69.39999999999999
 20
-7.000000000000001
 10
83.0
 20
-7.000000000000001
 42
0.4142135623730951
 10
83.5
 20
-6.5
 10
83.5
 20
6.5
 42
0.4142135623730951
 10
83.0
 20
7.000000000000001
 10
69.39999999999999
 20
7.000000000000001
 42
0.4142123908030417
  0
LWPOLYLINE
  5
145
330
1F
100
AcDbEntity
  8
0
100
AcDbPolyline
 90
        8
 70
     1
 43
0.0
 10
145.1
 20
6.5
 10
145.1
 20
-6.5
 42
0.4142123908030521
 10
145.6
 20
-7.000000000000001
 10
159.2
 20
-7.000000000000001
 42
0.4142135623730951
 10
159.7
 20
-6.5
 10
159.7
 20
6.5
 42
0.4142135623730951
 10
159.2
 20
7.000000000000001
 10
145.6
 20
7.000000000000001
 42
0.4142123908030521
  0
LWPOLYLINE
  5
146
330
1F
100
AcDbEntity
  8
0
100
AcDbPolyline
 90
        8
 70
     1
 43
0.0
 10
11.75
 20
6.5
 10
11.75
 20
-6.5
 42
0.4142123908030495
 10
12.25
 20
-7.000000000000001
 10
25.85
 20
-7.000000000000001
 42
0.4142135623730951
 10
26.35
 20
-6.5
 10
26.35
 20
6.5
 42
0.4142135623730951
 10
25.85
 20
7.000000000000001
 10
12.25
 20
7.000000000000001
 42
0.4142123908030495
  0
LWPOLYLINE
  5
147
330
1F
100
AcDbEntity
  8
0
100
AcDbPolyline
 90
        8
 70
     1
 43
0.0
 10
-4.918754
 20
-31.6
 10
-4.918754
 20
-44.6
 42
0.4142123908030463
 10
-4.418754
 20
-45.10000000000001
 10
13.94375
 20
-45.10000000000001
 42
0.4142135623730951
 10
14.44375
 20
-44.6
 10
14.44375
 20
-31.6
 42
0.4142135623730951
 10
13.94375
 20
-31.1
 10
-4.418754
 20
-31.1
 42
0.4142123908030488
  0
LWPOLYLINE
  5
148
330
1F
100
AcDbEntity
  8
0
100
AcDbPolyline
 90
        8
 70
     1
 43
0.0
 10
164.15
 20
6.5
 10
164.15
 20
-6.5
 42
0.4142123908030417
 10
164.65
 20
-7.000000000000001
 10
178.25
 20
-7.000000000000001
 42
0.4142135623730951
 10
178.75
 20
-6.5
 10
178.75
 20
6.5
 42
0.4142135623730951
 10
178.25
 20
7.000000000000001
 10
164.65
 20
7.000000000000001
 42
0.4142123908030417
  0
LWPOLYLINE
  5
149
330
1F
100
AcDbEntity
  8
0
100
AcDbPolyline
 90
        8
 70
     1
 43
0.0
 10
40.325
 20
-12.55
 10
40.325
 20
-25.55
 42
0.4142123908030527
 10
40.825
 20
-26.05
 10
54.425
 20
-26.05
 42
0.4142135623730951
 10
54.925
 20
-25.55
 10
54.925
 20
-12.55
 42
0.4142135623730951
 10
54.425
 20
-12.05
 10
40.825
 20
-12.05
 42
0.4142123908030514
  0
LWPOLYLINE
  5
150
330
1F
100
AcDbEntity
  8
0
100
AcDbPolyline
 90
        8
 70
     1
 43
0.0
 10
192.725
 20
-12.55
 10
192.725
 20
-25.55
 42
0.4142123908030632
 10
193.225
 20
-26.05
 10
206.825
 20
-26.05
 42
0.4142135623730951
 10
207.325
 20
-25.55
 10
207.325
 20
-12.55
 42
0.4142135623730951
 10
206.825
 20
-12.05
 10
193.225
 20
-12.05
 42
0.4142123908030618
  0
LWPOLYLINE
  5
151
330
1F
100
AcDbEntity
  8
0
100
AcDbPolyline
 90
        8
 70
     1
 43
0.0
 10
130.8125
 20
-50.65000000000001
 10
130.8125
 20
-63.65000000000001
 42
0.4142123908030554
 10
131.3125
 20
-64.14999999999999
 10
144.9125
 20
-64.14999999999999
 42
0.4142135623730951
 10
145.4125
 20
-63.65000000000001
 10
145.4125
 20
-50.65000000000001
 42
0.4142135623730951
 10
144.9125
 20
-50.15000000000001
 10
131.3125
 20
-50.15000000000001
 42
0.4142123908030501
  0
LWPOLYLINE
  5
152
330
1F
100
AcDbEntity
  8
0
100
AcDbPolyline
 90
        8
 70
     1
 43
0.0
 10
197.4875
 20
-31.6
 10
197.4875
 20
-44.6
 42
0.4142123908030397
 10
197.9875
 20
-45.10000000000001
 10
211.5875
 20
-45.10000000000001
 42
0.4142135623730951
 10
212.0875
 20
-44.6
 10
212.0875
 20
-31.6
 42
0.4142135623730951
 10
211.5875
 20
-31.1
 10
197.9875
 20
-31.1
 42
0.4142123908030423
  0
LWPOLYLINE
  5
153
330
1F
100
AcDbEntity
  8
0
100
AcDbPolyline
 90
        8
 70
     1
 43
0.0
 10
73.66249999999998
 20
-50.65000000000001
 10
73.66249999999998
 20
-63.65000000000001
 42
0.4142123908030449
 10
74.16249999999998
 20
-64.14999999999999
 10
87.76250000000002
 20
-64.14999999999999
 42
0.4142135623730951
 10
88.2625
 20
-63.65000000000001
 10
88.2625
 20
-50.65000000000001
 42
0.4142135623730951
 10
87.76250000000002
 20
-50.15000000000001
 10
74.16249999999998
 20
-50.15000000000001
 42
0.4142123908030397
  0
LWPOLYLINE
  5
154
330
1F
100
AcDbEntity
  8
0
100
AcDbPolyline
 90
        8
 70
     1
 43
0.0
 10
149.8625
 20
-50.65000000000001
 10
149.8625
 20
-63.65000000000001
 42
0.4142123908030554
 10
150.3625
 20
-64.14999999999999
 10
163.9625
 20
-64.14999999999999
 42
0.4142135623730951
 10
164.4625
 20
-63.65000000000001
 10
164.4625
 20
-50.65000000000001
 42
0.4142135623730951
 10
163.9625
 20
-50.15000000000001
 10
150.3625
 20
-50.15000000000001
 42
0.4142123908030501
  0
LWPOLYLINE
  5
155
330
1F
100
AcDbEntity
  8
0
100
AcDbPolyline
 90
        8
 70
     1
 43
0.0
 10
45.0875
 20
-31.6
 10
45.0875
 20
-44.6
 42
0.4142123908030449
 10
45.5875
 20
-45.10000000000001
 10
59.1875
 20
-45.10000000000001
 42
0.4142135623730951
 10
59.6875
 20
-44.6
 10
59.6875
 20
-31.6
 42
0.4142135623730951
 10
59.1875
 20
-31.1
 10
45.5875
 20
-31.1
 42
0.4142123908030476
  0
LWPOLYLINE
  5
156
330
1F
100
AcDbEntity
  8
0
100
AcDbPolyline
 90
        8
 70
     1
 43
0.0
 10
49.85
 20
6.5
 10
49.85
 20
-6.5
 42
0.4142123908030469
 10
50.35
 20
-7.000000000000001
 10
63.95
 20
-7.000000000000001
 42
0.4142135623730951
 10
64.45
 20
-6.5
 10
64.45
 20
6.5
 42
0.4142135623730951
 10
63.95
 20
7.000000000000001
 10
50.35
 20
7.000000000000001
 42
0.4142123908030469
  0
LWPOLYLINE
  5
157
330
1F
100
AcDbEntity
  8
0
100
AcDbPolyline
 90
        8
 70
     1
 43
0.0
 10
30.8
 20
6.5
 10
30.8
 20
-6.5
 42
0.4142123908030495
 10
31.3
 20
-7.000000000000001
 10
44.90000000000001
 20
-7.000000000000001
 42
0.4142135623730951
 10
45.4
 20
-6.5
 10
45.4
 20
6.5
 42
0.4142135623730951
 10
44.90000000000001
 20
7.000000000000001
 10
31.3
 20
7.000000000000001
 42
0.4142123908030495
  0
LWPOLYLINE
  5
158
330
1F
100
AcDbEntity
  8
0
100
AcDbPolyline
 90
        8
 70
     1
 43
0.0
 10
102.2375
 20
-31.6
 10
102.2375
 20
-44.6
 42
0.4142123908030397
 10
102.7375
 20
-45.10000000000001
 10
116.3375
 20
-45.10000000000001
 42
0.4142135623730951
 10
116.8375
 20
-44.6
 10
116.8375
 20
-31.6
 42
0.4142135623730951
 10
116.3375
 20
-31.1
 10
102.7375
 20
-31.1
 42
0.4142123908030423
  0
LWPOLYLINE
  5
159
330
1F
100
AcDbEntity
  8
0
100
AcDbPolyline
 90
        8
 70
     1
 43
0.0
 10
92.7125
 20
-50.65000000000001
 10
92.7125
 20
-63.65000000000001
 42
0.4142123908030554
 10
93.2125
 20
-64.14999999999999
 10
106.8125
 20
-64.14999999999999
 42
0.4142135623730951
 10
107.3125
 20
-63.65000000000001
 10
107.3125
 20
-50.65000000000001
 42
0.4142135623730951
 10
106.8125
 20
-50.15000000000001
 10
93.2125
 20
-50.15000000000001
 42
0.4142123908030501
  0
LWPOLYLINE
  5
160
330
1F
100
AcDbEntity
  8
0
100
AcDbPolyline
 90
        8
 70
     1
 43
0.0
 10
97.47500000000001
 20
-12.55
 10
97.47500000000001
 20
-25.55
 42
0.4142123908030423
 10
97.975
 20
-26.05
 10
111.575
 20
-26.05
 42
0.4142135623730951
 10
112.075
 20
-25.55
 10
112.075
 20
-12.55
 42
0.4142135623730951
 10
111.575
 20
-12.05
 10
97.975
 20
-12.05
 42
0.414212390803041
  0
LWPOLYLINE
  5
161
330
1F
100
AcDbEntity
  8
0
100
AcDbPolyline
 90
        8
 70
     1
 43
0.0
 10
-7.3
 20
6.5
 10
-7.3
 20
-6.5
 42
0.4142123908030482
 10
-6.800000000000001
 20
-7.000000000000001
 10
6.800000000000001
 20
-7.000000000000001
 42
0.4142135623730951
 10
7.3
 20
-6.5
 10
7.3
 20
6.5
 42
0.4142135623730951
 10
6.800000000000001
 20
7.000000000000001
 10
-6.800000000000001
 20
7.000000000000001
 42
0.4142123908030482
  0
LWPOLYLINE
  5
162
330
1F
100
AcDbEntity
  8
0
100
AcDbPolyline
 90
      137
 70
     1
 43
0.0
 10
89.35625000000073
 20
-87.7000000000007
 10
89.3562500000007
 20
-80.57199999255134
 42
-0.4142135623730951
 10
90.10625000000068
 20
-79.82199999255135
 10
102.3904491411013
 20
-79.82199999255134
 42
-0.1989123673796536
 10
102.9207792269912
 20
-80.04166990666143
 10
107.9802160866186
 20
-85.10110676628928
 42
0.1989123673796482
 10
108.6873228678051
 20
-85.39399998510271
 10
146.1064271321957
 20
-85.39399998510274
 42
0.198912367379658
 10
146.8135339133822
 20
-85.10110676628926
 10
151.8729707730105
 20
-80.04166990666059
 42
-0.1989123673792402
 10
152.4033008588995
 20
-79.82199999255135
 10
164.6875
 20
-79.82199999255135
 42
-0.4142135623730951
 10
165.4375
 20
-80.57199999255134
 10
165.4375
 20
-87.7000000000007
 42
0.4142135623730951
 10
166.4375000000001
 20
-88.7000000000007
 10
192.5456439426816
 20
-88.7000000000007
 42
-0.2932527545973027
 10
195.2728219713412
 20
-90.4500000000023
 42
0.805283862146446
 10
200.999999999999
 20
-89.19999748288681
 10
200.9999985825655
 20
-87.51066017177983
 42
-0.1989123673798594
 10
201.2196680517082
 20
-86.98032990157802
 10
202.7803249753032
 20
-85.41967035907857
 42
-0.1989125854387693
 10
203.3106555061604
 20
-85.20000000000073
 10
223.3429263216894
 20
-85.2000000000007
 10
226.5500331028754
 20
-88.40710678118819
 42
0.198912367379312
 10
227.257139884061
 20
-88.7000000000007
 10
245.7675189426827
 20
-88.70000000000068
 42
-0.2932527545973042
 10
248.4946969713424
 20
-90.4500000000023
 42
0.6416889479197743
 10
253.9490530286596
 20
-90.44999999999858
 42
-0.2932527545969312
 10
256.6762310573176
 20
-88.7000000000007
 10
264.2857864376275
 20
-88.70000000000074
 42
0.1989123673796646
 10
264.992893218814
 20
-88.40710678118725
 10
266.4803300858908
 20
-86.9196699141099
 42
-0.1989123673792053
 10
267.0106601717798
 20
-86.70000000000073
 10
272.7857864376275
 20
-86.70000000000074
 42
0.1989123673796645
 10
273.4928932188141
 20
-86.40710678118725
 10
275.9071067811873
 20
-83.99289321881398
 42
0.198912367379658
 10
276.2000000000007
 20
-83.28578643762741
 10
276.2000000000007
 20
-48.51421356237375
 42
0.1989123673796515
 10
275.9071067811873
 20
-47.80710678118719
 10
274.9928932188142
 20
-46.89289321881362
 42
-0.1989123673796712
 10
274.7000000000007
 20
-46.18578643762703
 10
274.7000000000007
 20
-15.01421356237373
 42
-0.1989123673796515
 10
274.9928932188142
 20
-14.30710678118718
 10
275.9071067811873
 20
-13.39289321881355
 42
0.1989123673796646
 10
276.2000000000007
 20
-12.68578643762698
 10
276.2000000000007
 20
8.28578643762743
 42
0.1989123673796515
 10
275.9071067811873
 20
8.992893218813975
 10
273.492893218814
 20
11.40710678118546
 42
0.198912367379658
 10
272.7857864376275
 20
11.69999999999892
 10
265.8106601717809
 20
11.69999999999892
 42
-0.198912367379658
 10
265.280330085891
 20
11.91966991410901
 10
264.992893218814
 20
12.20710678118656
 42
0.1989123673796515
 10
264.2857864376275
 20
12.5
 10
262.6293560573176
 20
12.50000000000129
 42
-0.2932527545969312
 10
259.9021780286608
 20
14.24999999999841
 42
0.6416889474318846
 10
254.4478219730699
 20
14.25000000377175
 42
-0.2932527542218538
 10
251.7206439461388
 20
12.50000000754149
 10
240.0558737380797
 20
12.50000000754038
 42
0.1989123654197662
 10
239.3487669622264
 20
12.20710679405968
 10
236.6785532925941
 20
9.536893164699965
 42
-0.1989123673797637
 10
235.9714465091984
 20
9.243999951218882
 10
191.6035533639061
 20
9.244000285800185
 42
-0.19891236541968
 10
190.896446590261
 20
9.536893504613637
 10
188.2262333061434
 20
12.207106788729
 42
0.1989123673793055
 10
187.5191265249578
 20
12.50000000754149
 10
167.3793560538616
 20
12.50000000754148
 42
-0.2932527542218538
 10
164.6521780269305
 20
14.25000000377175
 42
0.6416889474317958
 10
159.197821971341
 20
14.24999999999861
 42
-0.2932527545970049
 10
156.4706439426827
 20
12.5
 10
135.8392135623744
 20
12.49999999999998
 42
0.198912367379658
 10
135.1321067811878
 20
12.20710678118653
 10
133.6446699141119
 20
10.71966991411011
 42
-0.1989123673796668
 10
133.114339828222
 20
10.50000000000001
 10
114.5356205933494
 20
10.50000000000002
 42
-0.198912367379658
 10
114.0052905074595
 20
10.7196699141101
 10
112.5178536403836
 20
12.20710678118654
 42
0.198912367379658
 10
111.810746859197
 20
12.5
 10
91.1793560573187
 20
12.50000000000001
 42
-0.2932527545973027
 10
88.45217802865903
 20
14.25000000000161
 42
0.6416889479197706
 10
82.9978219713403
 20
14.2499999999986
 42
-0.2932527545970036
 10
80.27064394268201
 20
12.5
 10
59.63925318905243
 20
12.49999999999998
 42
0.198912367379658
 10
58.93214640786589
 20
12.20710678118653
 10
57.44470954078989
 20
10.71966991411008
 42
-0.1989123673796492
 10
56.9143794549
 20
10.50000000000001
 10
38.33764319587139
 20
10.5
 42
-0.1989123673796624
 10
37.80731310998148
 20
10.7196699141101
 10
36.31987624290457
 20
12.20710678118744
 42
0.1989123673793284
 10
35.61276946171891
 20
12.5
 10
27.4543560573184
 20
12.50000000000001
 42
-0.2932527545973027
 10
24.72717802865875
 20
14.25000000000161
 42
0.641688947919775
 10
19.27282197133993
 20
14.2499999999986
 42
-0.2932527545970036
 10
16.54564394268164
 20
12.5
 10
2.414213562373338
 20
12.49999999999998
 42
0.198912367379658
 10
1.707106781186791
 20
12.20710678118653
 10
0.2196699141099107
 20
10.7196699141092
 42
-0.1989123673792184
 10
-0.310660171779098
 20
10.50000000000001
 10
-6.085786437626668
 20
10.49999999999999
 42
0.198912367379658
 10
-6.792893218813214
 20
10.20710678118654
 10
-9.207106781186573
 20
7.792893218813196
 42
0.1989123673796499
 10
-9.500000000000002
 20
7.085786437626673
 10
-9.500000000000009
 20
-7.685786437626979
 42
0.1989123673796564
 10
-9.20710678118656
 20
-8.392893218813526
 10
-5.530393218812613
 20
-12.06960678118591
 42
-0.1989123673796629
 10
-5.237499999999269
 20
-12.7767135623726
 10
-5.23749999999927
 20
-25.92328643762812
 42
-0.1989123673796564
 10
-5.530393218812719
 20
-26.63039321881467
 10
-7.707106781186672
 20
-28.80710678118703
 42
0.1989123673796678
 10
-8.000000000000007
 20
-29.51421356237375
 10
-8.000000000000007
 20
-69.18578643762702
 42
-0.1989123673796564
 10
-8.292893218813466
 20
-69.89289321881355
 10
-9.207106781186488
 20
-70.8071067811872
 42
0.1989123673796694
 10
-9.499999999999957
 20
-71.51421356237375
 10
-9.500000000000004
 20
-83.28578643762741
 42
0.198912367379658
 10
-9.207106781186551
 20
-83.99289321881396
 10
-6.792893218813187
 20
-86.40710678118728
 42
0.1989123673796482
 10
-6.085786437626668
 20
-86.70000000000071
 10
-0.310660171779098
 20
-86.7000000000007
 42
-0.198912367379658
 10
0.2196699141108205
 20
-86.9196699141108
 10
1.707106781186819
 20
-88.40710678118727
 42
0.1989123673796482
 10
2.414213562373337
 20
-88.7000000000007
 10
10.02376894268309
 20
-88.7000000000007
 42
-0.2932527545973027
 10
12.75094697134275
 20
-90.4500000000023
 42
0.6416889479196836
 10
18.2053030286597
 20
-90.4499999999993
 42
-0.2932527545970036
 10
20.93248105731799
 20
-88.7000000000007
 10
39.43369406281452
 20
-88.70000000000073
 42
0.198912367379658
 10
40.14080084400106
 20
-88.40710678118725
 10
43.12823771107884
 20
-85.41966991411087
 42
-0.1989123673796841
 10
43.6585677969688
 20
-85.20000000000073
 10
58.6328514720881
 20
-85.20000000000068
 42
-0.198912367379658
 10
59.16318155797802
 20
-85.4196699141108
 10
60.72384172975891
 20
-86.98033008588992
 42
-0.1989123673796624
 10
60.943511643869
 20
-87.51066017177983
 10
60.94351164386902
 20
-89.20000000000071
 42
0.8052835163621881
 10
66.67068967252753
 20
-90.4499999999986
 42
-0.2932527545969333
 10
69.3978677011855
 20
-88.7000000000007
 10
88.35625000000071
 20
-88.70000000000073
 42
0.4142135623730951
  0
CIRCLE
  5
163
330
1F
100
AcDbEntity
  8
0
100
AcDbCircle
 10
-15.47812499999964
 20
-89.20000000000071
 30
-0.0000000000000001
 40
1.5
210
0.0
220
0.0
230
-1.0
  0
CIRCLE
  5
164
330
1F
100
AcDbEntity
  8
0
100
AcDbCircle
 10
-161.9250000000011
 20
13.00000000000001
 30
-0.0000000000000001
 40
1.5
210
0.0
220
0.0
230
-1.0
  0
CIRCLE
  5
165
330
1F
100
AcDbEntity
  8
0
100
AcDbCircle
 10
-63.94351164386901
 20
-89.20000000000071
 30
-0.0000000000000001
 40
1.5
210
0.0
220
0.0
230
-1.0
  0
CIRCLE
  5
166
330
1F
100
AcDbEntity
  8
0
100
AcDbCircle
 10
-251.2218750000011
 20
-89.20000000000071
 30
-0.0000000000000001
 40
1.5
210
0.0
220
0.0
230
-1.0
  0
CIRCLE
  5
167
330
1F
100
AcDbEntity
  8
0
100
AcDbCircle
 10
-198.0
 20
-89.20000000000071
 30
-0.0000000000000001
 40
1.5
210
0.0
220
0.0
230
-1.0
  0
CIRCLE
  5
168
330
1F
100
AcDbEntity
  8
0
100
AcDbCircle
 10
-21.99999999999999
 20
13.00000000000001
 30
-0.0000000000000001
 40
1.5
210
0.0
220
0.0
230
-1.0
  0
CIRCLE
  5
169
330
1F
100
AcDbEntity
  8
0
100
AcDbCircle
 10
-257.1750000000011
 20
13.00000000000001
 30
-0.0000000000000001
 40
1.5
210
0.0
220
0.0
230
-1.0
  0
CIRCLE
  5
170
330
1F
100
AcDbEntity
  8
0
100
AcDbCircle
 10
-85.7250000000004
 20
13.00000000000001
 30
-0.0000000000000001
 40
1.5
210
0.0
220
0.0
230
-1.0
  0
CIRCLE
  5
171
330
1F
100
AcDbEntity
  8
0
100
AcDbCircle
 10
16.04875
 20
-18.7
 30
0.0
 40
0.9999999999999989
  0
LINE
  5
172
330
1F
100
AcDbEntity
  8
0
100
AcDbLine
 10
12.0625
 20
-25.55
 30
0.0
 11
12.0625
 21
-12.55
 31
0.0
  0
CIRCLE
  5
173
330
1F
100
AcDbEntity
  8
0
100
AcDbCircle
 10
119.0625
 20
-38.1
 30
0.0
 40
1.000000000000001
  0
CIRCLE
  5
174
330
1F
100
AcDbEntity
  8
0
100
AcDbCircle
 10
250.9012
 20
-18.7
 30
0.0
 40
1.000000000000012
  0
CIRCLE
  5
1006F
330
1F
100
AcDbEntity
  8
0
100
AcDbCircle
 10
238.125
 20
0.0
 30
0.0
 40
1.0
  0
LWPOLYLINE
  5
10070
330
1F
100
AcDbEntity
  8
0
100
AcDbPolyline
 90
        8
 70
     1
 43
0.0
 10
259.4
 20
6.5
 10
259.4
 20
-6.5
 42
0.4142123908030417
 10
259.9
 20
-7.000000000000001
 10
273.5
 20
-7.000000000000001
 42
0.4142135623730951
 10
274.0
 20
-6.5
 10
274.0
 20
6.5
 42
0.4142135623730951
 10
273.5
 20
7.000000000000001
 10
259.9
 20
7.000000000000001
 42
0.4142123908030417
  0
LWPOLYLINE
  5
10071
330
1F
100
AcDbEntity
  8
0
100
AcDbPolyline
 90
        8
 70
     1
 43
0.0
 10
240.35
 20
6.5
 10
240.35
 20
-6.5
 42
0.4142123908030417
 10
240.85
 20
-7.000000000000001
 10
254.45
 20
-7.000000000000001
 42
0.4142135623730951
 10
254.95
 20
-6.5
 10
254.95
 20
6.5
 42
0.4142135623730951
 10
254.45
 20
7.000000000000001
 10
240.85
 20
7.000000000000001
 42
0.4142123908030417
  0
CIRCLE
  5
10072
330
1F
100
AcDbEntity
  8
0
100
AcDbCircle
 10
33.33750000000001
 20
-57.15
 30
0.0
 40
1.0
  0
CIRCLE
  5
10073
330
1F
100
AcDbEntity
  8
0
100
AcDbCircle
 10
-4.49375
 20
-64.35
 30
0.0
 40
1.0
  0
LWPOLYLINE
  5
10074
330
1F
100
AcDbEntity
  8
0
100
AcDbPolyline
 90
        8
 70
     1
 43
0.0
 10
-4.09375
 20
-50.675
 10
-4.09375
 20
-62.393
 10
-1.09375
 20
-64.125
 10
24.90625
 20
-64.125
 10
27.90625
 20
-62.393
 10
27.90625
 20
-50.675
 42
0.4142135623730951
 10
27.40625
 20
-50.175
 10
-3.59375
 20
-50.175
 42
0.4142123908030466
  0
CIRCLE
  5
10075
330
1F
100
AcDbEntity
  8
0
100
AcDbCircle
 10
233.63125
 20
-64.35
 30
0.0
 40
1.0
  0
CIRCLE
  5
10076
330
1F
100
AcDbEntity
  8
0
100
AcDbCircle
 10
266.43125
 20
-64.35
 30
0.0
 40
1.0
  0
LWPOLYLINE
  5
10077
330
1F
100
AcDbEntity
  8
0
100
AcDbPolyline
 90
        8
 70
     1
 43
0.0
 10
234.03125
 20
-50.675
 10
234.03125
 20
-62.393
 10
237.03125
 20
-64.125
 10
263.03125
 20
-64.125
 10
266.03125
 20
-62.393
 10
266.03125
 20
-50.675
 42
0.4142135623730951
 10
265.53125
 20
-50.175
 10
234.53125
 20
-50.175
 42
0.4142123908030397
  0
CIRCLE
  5
10078
330
1F
100
AcDbEntity
  8
0
100
AcDbCircle
 10
233.3625
 20
-38.10000000000001
 30
0.0
 40
1.0
  0
CIRCLE
  5
10079
330
1F
100
AcDbEntity
  8
0
100
AcDbCircle
 10
271.5187500000001
 20
-12.175
 30
0.0
 40
1.0
  0
LWPOLYLINE
  5
1007A
330
1F
100
AcDbEntity
  8
0
100
AcDbPolyline
 90
        8
 70
     1
 43
0.0
 10
235.59375
 20
-31.6
 10
235.59375
 20
-44.6
 42
0.4142123908030397
 10
236.09375
 20
-45.10000000000001
 10
249.69375
 20
-45.10000000000001
 42
0.4142135623730951
 10
250.19375
 20
-44.6
 10
250.19375
 20
-31.6
 42
0.4142135623730951
 10
249.69375
 20
-31.1
 10
236.09375
 20
-31.1
 42
0.4142123908030423
  0
LWPOLYLINE
  5
1007B
330
1F
100
AcDbEntity
  8
0
100
AcDbPolyline
 90
        8
 70
     1
 43
0.0
 10
257.34375
 20
-44.075
 10
257.34375
 20
-13.075
 42
-0.4142135623730951
 10
257.84375
 20
-12.575
 10
269.56175
 20
-12.575
 10
271.29375
 20
-15.575
 10
271.29375
 20
-41.575
 10
269.56175
 20
-44.575
 10
257.84375
 20
-44.57500000000002
 42
-0.4142123908030397
  0
CIRCLE
  5
1007C
330
1F
100
AcDbEntity
  8
0
100
AcDbCircle
 10
61.9125
 20
-76.20000000000002
 30
0.0
 40
1.0
  0
CIRCLE
  5
1007D
330
1F
100
AcDbEntity
  8
0
100
AcDbCircle
 10
251.221875
 20
-76.20000000000002
 30
0.0
 40
1.0
  0
CIRCLE
  5
1007E
330
1F
100
AcDbEntity
  8
0
100
AcDbCircle
 10
228.6
 20
-76.20000000000002
 30
0.0
 40
1.0
  0
CIRCLE
  5
1007F
330
1F
100
AcDbEntity
  8
0
100
AcDbCircle
 10
142.875
 20
-76.20000000000002
 30
0.0
 40
1.0
  0
CIRCLE
  5
10080
330
1F
100
AcDbEntity
  8
0
100
AcDbCircle
 10
204.7875
 20
-76.20000000000002
 30
0.0
 40
1.0
  0
CIRCLE
  5
10081
330
1F
100
AcDbEntity
  8
0
100
AcDbCircle
 10
39.290625
 20
-76.20000000000002
 30
0.0
 40
1.0
  0
CIRCLE
  5
10082
330
1F
100
AcDbEntity
  8
0
100
AcDbCircle
 10
15.478125
 20
-76.20000000000002
 30
0.0
 40
1.0
  0
CIRCLE
  5
10083
330
1F
100
AcDbEntity
  8
0
100
AcDbCircle
 10
171.45
 20
-76.20000000000002
 30
0.0
 40
1.0
  0
CIRCLE
  5
10084
330
1F
100
AcDbEntity
  8
0
100
AcDbCircle
 10
104.775
 20
-76.20000000000002
 30
0.0
 40
1.0
  0
LWPOLYLINE
  5
10085
330
1F
100
AcDbEntity
  8
0
100
AcDbPolyline
 90
        8
 70
     1
 43
0.0
 10
69.3934
 20
-82.65
 10
69.3934
 20
-69.74999999999999
 42
-0.4142123908030554
 10
69.8934
 20
-69.24999999999999
 10
82.49340000000001
 20
-69.24999999999999
 42
-0.4142123908030449
 10
82.9934
 20
-69.74999999999999
 10
82.99340000000001
 20
-82.65
 42
-0.4142123908030345
 10
82.49340000000001
 20
-83.15
 10
69.8934
 20
-83.14999999999998
 42
-0.4142123908030449
  0
LWPOLYLINE
  5
10086
330
1F
100
AcDbEntity
  8
0
100
AcDbPolyline
 90
        8
 70
     1
 43
0.0
 10
183.7
 20
-82.65
 10
183.7
 20
-69.74999999999999
 42
-0.4142135623730951
 10
184.2
 20
-69.24999999999999
 10
196.8
 20
-69.24999999999999
 42
-0.4142135623730951
 10
197.3
 20
-69.74999999999999
 10
197.3
 20
-82.65
 42
-0.4142135623730951
 10
196.8
 20
-83.15
 10
184.2
 20
-83.14999999999998
 42
-0.4142135623730951
  0
LWPOLYLINE
  5
10087
330
1F
100
AcDbEntity
  8
0
100
AcDbPolyline
 90
        8
 70
     1
 43
0.0
 10
207.012498
 20
-69.7
 10
207.012498
 20
-82.70000000000002
 42
0.4142135623731159
 10
207.512498
 20
-83.2
 10
225.875002
 20
-83.2
 42
0.4142135623731054
 10
226.375002
 20
-82.70000000000002
 10
226.375002
 20
-69.7
 42
0.4142135623731054
 10
225.875002
 20
-69.2
 10
207.512498
 20
-69.2
 42
0.4142135623731159
  0
LWPOLYLINE
  5
10088
330
1F
100
AcDbEntity
  8
0
100
AcDbPolyline
 90
        8
 70
     1
 43
0.0
 10
18.893749
 20
-69.7
 10
18.893749
 20
-82.70000000000002
 42
0.4142135623730964
 10
19.393749
 20
-83.2
 10
35.375001
 20
-83.2
 42
0.4142135623730951
 10
35.875001
 20
-82.70000000000002
 10
35.875001
 20
-69.7
 42
0.4142135623730924
 10
35.375001
 20
-69.2
 10
19.393749
 20
-69.2
 42
0.4142135623730937
  0
LWPOLYLINE
  5
10089
330
1F
100
AcDbEntity
  8
0
100
AcDbPolyline
 90
        8
 70
     1
 43
0.0
 10
42.70624900000001
 20
-69.7
 10
42.70624900000001
 20
-82.70000000000002
 42
0.4142135623730951
 10
43.206249
 20
-83.2
 10
59.187501
 20
-83.2
 42
0.4142135623730951
 10
59.687501
 20
-82.70000000000002
 10
59.687501
 20
-69.7
 42
0.4142135623730951
 10
59.187501
 20
-69.2
 10
43.206249
 20
-69.2
 42
0.4142135623730951
  0
LWPOLYLINE
  5
1008A
330
1F
100
AcDbEntity
  8
0
100
AcDbPolyline
 90
        8
 70
     1
 43
0.0
 10
230.82499
 20
-69.700016
 10
230.82499
 20
-82.70001599999999
 42
0.4142135623730743
 10
231.32499
 20
-83.20001599999999
 10
247.306242
 20
-83.20001599999999
 42
0.4142135623730743
 10
247.806242
 20
-82.70001599999999
 10
247.806242
 20
-69.700016
 42
0.4142135623731054
 10
247.306242
 20
-69.20001599999999
 10
231.32499
 20
-69.20001599999999
 42
0.4142123908030345
  0
LWPOLYLINE
  5
1008B
330
1F
100
AcDbEntity
  8
0
100
AcDbPolyline
 90
        8
 70
     1
 43
0.0
 10
126.050004
 20
-69.7
 10
126.050004
 20
-82.69999999999999
 42
0.4142123908030658
 10
126.550004
 20
-83.2
 10
140.150004
 20
-83.2
 42
0.4142135623730951
 10
140.650004
 20
-82.69999999999999
 10
140.650004
 20
-69.7
 42
0.4142135623730951
 10
140.150004
 20
-69.2
 10
126.550004
 20
-69.2
 42
0.4142123908030554
  0
ENDSEC
  0
SECTION
  2
OBJECTS
  0
DICTIONARY
  5
C
330
0
100
AcDbDictionary
281
     1
  3
ACAD_COLOR
350
1005A
  3
ACAD_DETAILVIEWSTYLE
350
100C5
  3
ACAD_GROUP
350
D
  3
ACAD_LAYOUT
350
1005B
  3
ACAD_MATERIAL
350
1005C
  3
ACAD_MLEADERSTYLE
350
1005D
  3
ACAD_MLINESTYLE
350
17
  3
ACAD_PLOTSETTINGS
350
1005E
  3
ACAD_PLOTSTYLENAME
350
1005F
  3
ACAD_SCALELIST
350
10092
  3
ACAD_SECTIONVIEWSTYLE
350
100C6
  3
ACAD_TABLESTYLE
350
10062
  3
ACAD_VISUALSTYLE
350
10063
  3
AcDbVariableDictionary
350
100BD
  3
ACDB_RECOMPOSE_DATA
350
100C1
  3
EZDXF_META
350
1008E
  0
DICTIONARY
  5
1005A
330
C
100
AcDbDictionary
281
     1
  0
DICTIONARY
  5
100C5
102
{ACAD_REACTORS
330
C
102
}
330
C
100
AcDbDictionary
281
     1
  0
DICTIONARY
  5
D
330
C
100
AcDbDictionary
281
     1
  0
DICTIONARY
  5
1005B
330
C
100
AcDbDictionary
281
     1
  3
Layout1
350
10065
  3
Model
350
10064
  0
DICTIONARY
  5
1005C
330
C
100
AcDbDictionary
281
     1
  3
ByBlock
350
10066
  3
ByLayer
350
10067
  3
Global
350
10068
  0
DICTIONARY
  5
1005D
330
C
100
AcDbDictionary
281
     1
  3
Standard
350
1006E
  0
DICTIONARY
  5
17
330
C
100
AcDbDictionary
281
     1
  3
Standard
350
10069
  0
DICTIONARY
  5
1005E
330
C
100
AcDbDictionary
281
     1
  0
ACDBDICTIONARYWDFLT
  5
1005F
330
C
100
AcDbDictionary
281
     1
  3
Normal
350
10060
100
AcDbDictionaryWithDefault
340
10060
  0
DICTIONARY
  5
10092
102
{ACAD_REACTORS
330
C
102
}
330
C
100
AcDbDictionary
281
     1
  3
A0
350
10093
  3
A1
350
10094
  3
A2
350
10095
  3
A3
350
10096
  3
A4
350
10097
  3
A5
350
10098
  3
A6
350
10099
  3
A7
350
1009A
  3
A8
350
1009B
  3
A9
350
1009C
  3
B1
350
1009D
  3
B2
350
1009E
  3
B3
350
1009F
  3
B4
350
100A0
  3
B5
350
100A1
  3
B6
350
100A2
  3
B7
350
100A3
  0
DICTIONARY
  5
100C6
102
{ACAD_REACTORS
330
C
102
}
330
C
100
AcDbDictionary
281
     1
  0
DICTIONARY
  5
10062
330
C
100
AcDbDictionary
281
     1
  3
Standard
350
100BC
  0
DICTIONARY
  5
10063
330
C
100
AcDbDictionary
281
     1
  3
2dWireframe
350
100A8
  3
Basic
350
100AB
  3
Brighten
350
100AF
  3
ColorChange
350
100B3
  3
Conceptual
350
100AD
  3
Dim
350
100AE
  3
EdgeColorOff
350
100B6
  3
Facepattern
350
100B2
  3
Flat
350
100A4
  3
FlatWithEdges
350
100A5
  3
Gouraud
350
100A6
  3
GouraudWithEdges
350
100A7
  3
Hidden
350
100AA
  3
JitterOff
350
100B4
  3
Linepattern
350
100B1
  3
OverhangOff
350
100B5
  3
Realistic
350
100AC
  3
Shaded
350
100BB
  3
Shaded with edges
350
100BA
  3
Shades of Gray
350
100B7
  3
Sketchy
350
100B8
  3
Thicken
350
100B0
  3
Wireframe
350
100A9
  3
X-Ray
350
100B9
  0
DICTIONARY
  5
100BD
102
{ACAD_REACTORS
330
C
102
}
330
C
100
AcDbDictionary
281
     1
  3
CANNOSCALE
350
100BE
  3
CMLEADERSTYLE
350
100C3
  3
CTABLESTYLE
350
100C2
  3
MSLTSCALE
350
100C4
  0
XRECORD
  5
100C1
102
{ACAD_REACTORS
330
C
102
}
330
C
100
AcDbXrecord
280
     1
 90
        1
330
100BC
  0
DICTIONARY
  5
1008E
330
C
100
AcDbDictionary
281
     1
  3
WRITTEN_BY_EZDXF
350
1008F
  0
LAYOUT
  5
10065
330
1005B
100
AcDbPlotSettings
  1

  2
Adobe PDF
  4
A3
  6

 40
7.5
 41
20.0
 42
7.5
 43
20.0
 44
420.0
 45
297.0
 46
0.0
 47
0.0
 48
0.0
 49
0.0
140
0.0
141
0.0
142
1.0
143
1.0
 70
     0
 72
     1
 73
     0
 74
     5
  7

 75
    16
 76
     0
 77
     2
 78
   300
147
1.0
148
0.0
149
0.0
100
AcDbLayout
  1
Layout1
 70
     1
 71
     1
 10
0.0
 20
0.0
 11
420.0
 21
297.0
 12
0.0
 22
0.0
 32
0.0
 14
1.000000000000000E+20
 24
1.000000000000000E+20
 34
1.000000000000000E+20
 15
-1.000000000000000E+20
 25
-1.000000000000000E+20
 35
-1.000000000000000E+20
146
0.0
 13
0.0
 23
0.0
 33
0.0
 16
1.0
 26
0.0
 36
0.0
 17
0.0
 27
1.0
 37
0.0
 76
     1
330
1B
  0
LAYOUT
  5
10064
330
1005B
100
AcDbPlotSettings
  1

  2
Adobe PDF
  4
A3
  6

 40
7.5
 41
20.0
 42
7.5
 43
20.0
 44
420.0
 45
297.0
 46
0.0
 47
0.0
 48
0.0
 49
0.0
140
0.0
141
0.0
142
1.0
143
1.0
 70
  1024
 72
     1
 73
     0
 74
     5
  7

 75
    16
 76
     0
 77
     2
 78
   300
147
1.0
148
0.0
149
0.0
100
AcDbLayout
  1
Model
 70
     1
 71
     0
 10
0.0
 20
0.0
 11
420.0
 21
297.0
 12
0.0
 22
0.0
 32
0.0
 14
1.000000000000000E+20
 24
1.000000000000000E+20
 34
1.000000000000000E+20
 15
-1.000000000000000E+20
 25
-1.000000000000000E+20
 35
-1.000000000000000E+20
146
0.0
 13
0.0
 23
0.0
 33
0.0
 16
1.0
 26
0.0
 36
0.0
 17
0.0
 27
1.0
 37
0.0
 76
     1
330
1F
331
1006A
  0
MATERIAL
  5
10066
102
{ACAD_REACTORS
330
1005C
102
}
330
1005C
100
AcDbMaterial
  1
ByBlock
 71
     1
 91
-1023410177
 72
     1
273
     1
 94
       63
  0
MATERIAL
  5
10067
102
{ACAD_REACTORS
330
1005C
102
}
330
1005C
100
AcDbMaterial
  1
ByLayer
 71
     1
 91
-1023410177
 72
     1
273
     1
 94
       63
  0
MATERIAL
  5
10068
102
{ACAD_REACTORS
330
1005C
102
}
330
1005C
100
AcDbMaterial
  1
Global
 71
     1
 91
-1023410177
 72
     1
273
     1
 94
       63
  0
MLEADERSTYLE
  5
1006E
102
{ACAD_REACTORS
330
1005D
102
}
330
1005D
100
AcDbMLeaderStyle
179
     2
170
     2
171
     1
172
     0
 90
        2
 40
0.0
 41
0.0
173
     1
 91
-1056964608
340
0
 92
       -2
290
     1
 42
2.0
291
     1
 43
8.0
  3
Standard
341
0
 44
4.0
300

342
11
174
     1
178
     1
175
     1
176
     0
 93
-1056964608
 45
4.0
292
     0
297
     0
 46
4.0
343
0
 94
-1056964608
 47
1.0
 49
1.0
140
1.0
293
     1
141
0.0
294
     1
177
     0
142
1.0
295
     0
296
     0
143
3.75
271
     0
272
     9
273
     9
298
     0
  0
MLINESTYLE
  5
10069
102
{ACAD_REACTORS
330
17
102
}
330
17
100
AcDbMlineStyle
  2
Standard
 70
     0
  3

 62
   256
 51
90.0
 52
90.0
 71
     2
 49
0.5
 62
   256
  6
Continuous
 49
-0.5
 62
   256
  6
Continuous
  0
ACDBPLACEHOLDER
  5
10060
330
1005F
  0
SCALE
  5
10093
102
{ACAD_REACTORS
330
10092
102
}
330
10092
100
AcDbScale
 70
     0
300
1:1
140
1.0
141
1.0
290
     1
  0
SCALE
  5
10094
102
{ACAD_REACTORS
330
10092
102
}
330
10092
100
AcDbScale
 70
     0
300
1/128" = 1'-0"
140
0.0078125
141
12.0
290
     0
  0
SCALE
  5
10095
102
{ACAD_REACTORS
330
10092
102
}
330
10092
100
AcDbScale
 70
     0
300
1/64" = 1'-0"
140
0.015625
141
12.0
290
     0
  0
SCALE
  5
10096
102
{ACAD_REACTORS
330
10092
102
}
330
10092
100
AcDbScale
 70
     0
300
1/32" = 1'-0"
140
0.03125
141
12.0
290
     0
  0
SCALE
  5
10097
102
{ACAD_REACTORS
330
10092
102
}
330
10092
100
AcDbScale
 70
     0
300
1/16" = 1'-0"
140
0.0625
141
12.0
290
     0
  0
SCALE
  5
10098
102
{ACAD_REACTORS
330
10092
102
}
330
10092
100
AcDbScale
 70
     0
300
3/32" = 1'-0"
140
0.09375
141
12.0
290
     0
  0
SCALE
  5
10099
102
{ACAD_REACTORS
330
10092
102
}
330
10092
100
AcDbScale
 70
     0
300
1/8" = 1'-0"
140
0.125
141
12.0
290
     0
  0
SCALE
  5
1009A
102
{ACAD_REACTORS
330
10092
102
}
330
10092
100
AcDbScale
 70
     0
300
3/16" = 1'-0"
140
0.1875
141
12.0
290
     0
  0
SCALE
  5
1009B
102
{ACAD_REACTORS
330
10092
102
}
330
10092
100
AcDbScale
 70
     0
300
1/4" = 1'-0"
140
0.25
141
12.0
290
     0
  0
SCALE
  5
1009C
102
{ACAD_REACTORS
330
10092
102
}
330
10092
100
AcDbScale
 70
     0
300
3/8" = 1'-0"
140
0.375
141
12.0
290
     0
  0
SCALE
  5
1009D
102
{ACAD_REACTORS
330
10092
102
}
330
10092
100
AcDbScale
 70
     0
300
1/2" = 1'-0"
140
0.5
141
12.0
290
     0
  0
SCALE
  5
1009E
102
{ACAD_REACTORS
330
10092
102
}
330
10092
100
AcDbScale
 70
     0
300
3/4" = 1'-0"
140
0.75
141
12.0
290
     0
  0
SCALE
  5
1009F
102
{ACAD_REACTORS
330
10092
102
}
330
10092
100
AcDbScale
 70
     0
300
1" = 1'-0"
140
1.0
141
12.0
290
     0
  0
SCALE
  5
100A0
102
{ACAD_REACTORS
330
10092
102
}
330
10092
100
AcDbScale
 70
     0
300
1-1/2" = 1'-0"
140
1.5
141
12.0
290
     0
  0
SCALE
  5
100A1
102
{ACAD_REACTORS
330
10092
102
}
330
10092
100
AcDbScale
 70
     0
300
3" = 1'-0"
140
3.0
141
12.0
290
     0
  0
SCALE
  5
100A2
102
{ACAD_REACTORS
330
10092
102
}
330
10092
100
AcDbScale
 70
     0
300
6" = 1'-0"
140
6.0
141
12.0
290
     0
  0
SCALE
  5
100A3
102
{ACAD_REACTORS
330
10092
102
}
330
10092
100
AcDbScale
 70
     0
300
1'-0" = 1'-0"
140
12.0
141
12.0
290
     0
  0
TABLESTYLE
  5
100BC
102
{ACAD_REACTORS
330
10062
102
}
102
{ACAD_XDICTIONARY
360
100BF
102
}
330
10062
100
AcDbTableStyle
  3
Standard
 70
     0
 71
     0
 40
0.06
 41
0.06
280
     0
281
     0
  7
STANDARD
140
0.18
170
     2
 62
     0
 63
   257
283
     0
 90
        4
 91
        0
  1

274
    -2
284
     1
 64
     0
275
    -2
285
     1
 65
     0
276
    -2
286
     1
 66
     0
277
    -2
287
     1
 67
     0
278
    -2
288
     1
 68
     0
279
    -2
289
     1
 69
     0
  7
STANDARD
140
0.25
170
     5
 62
     0
 63
   257
283
     0
 90
        4
 91
        0
  1

274
    -2
284
     1
 64
     0
275
    -2
285
     1
 65
     0
276
    -2
286
     1
 66
     0
277
    -2
287
     1
 67
     0
278
    -2
288
     1
 68
     0
279
    -2
289
     1
 69
     0
  7
STANDARD
140
0.18
170
     5
 62
     0
 63
   257
283
     0
 90
        4
 91
        0
  1

274
    -2
284
     1
 64
     0
275
    -2
285
     1
 65
     0
276
    -2
286
     1
 66
     0
277
    -2
287
     1
 67
     0
278
    -2
288
     1
 68
     0
279
    -2
289
     1
 69
     0
  0
VISUALSTYLE
  5
100A8
102
{ACAD_REACTORS
330
10063
102
}
330
10063
100
AcDbVisualStyle
  2
2dWireframe
 70
     4
177
     3
291
     0
 70
    58
 90
        0
176
     1
 90
        2
176
     1
 90
        0
176
     1
 90
        0
176
     1
 40
0.6
176
     1
 40
30.0
176
     1
 62
     7
420
 16777215
176
     1
 90
        1
176
     1
 90
        4
176
     1
 62
     7
176
     1
 62
   257
176
     1
 90
        1
176
     1
 90
        1
176
     1
 40
1.0
176
     1
 90
        0
176
     1
 62
   257
176
     1
 40
1.0
176
     1
 90
        1
176
     1
 90
        6
176
     1
 90
        2
176
     1
 62
     7
176
     1
 90
        5
176
     1
 90
        0
176
     1
 90
        0
176
     1
290
     0
176
     1
 90
        1
176
     1
 40
0.0
176
     1
 90
        0
176
     1
290
     1
176
     1
290
     1
176
     1
290
     0
176
     1
290
     0
176
     1
290
     0
176
     1
290
     0
176
     1
290
     0
176
     1
290
     0
176
     1
290
     0
176
     1
 90
       50
176
     1
 40
0.0
176
     1
 40
1.0
176
     1
 90
        0
176
     1
 62
    18
420
        0
176
     1
 90
       50
176
     1
 90
        3
176
     1
 62
     5
420
      255
176
     1
290
     0
176
     1
 90
       50
176
     1
 90
       50
176
     1
 90
       50
176
     1
290
     0
176
     1
 90
       50
176
     1
 62
   256
176
     0
 40
1.0
176
     0
 90
        2
176
     1
  1
strokes_ogs.tif
176
     1
290
     0
176
     1
 40
1.0
176
     1
 40
1.0
176
     1
  0
VISUALSTYLE
  5
100AB
102
{ACAD_REACTORS
330
10063
102
}
330
10063
100
AcDbVisualStyle
  2
Basic
 70
     7
177
     3
291
     1
 70
    58
 90
        1
176
     1
 90
        0
176
     1
 90
        1
176
     1
 90
        0
176
     1
 40
0.6
176
     1
 40
30.0
176
     1
 62
     7
420
 16777215
176
     1
 90
        0
176
     1
 90
        4
176
     1
 62
     7
176
     1
 62
   257
176
     1
 90
        1
176
     1
 90
        1
176
     1
 40
1.0
176
     1
 90
        8
176
     1
 62
     7
176
     1
 40
1.0
176
     1
 90
        1
176
     1
 90
        6
176
     1
 90
        2
176
     1
 62
     7
176
     1
 90
        5
176
     1
 90
        0
176
     1
 90
        0
176
     1
290
     0
176
     1
 90
        1
176
     1
 40
0.0
176
     1
 90
        0
176
     1
290
     0
176
     1
290
     1
176
     1
290
     1
176
     1
290
     0
176
     1
290
     0
176
     1
290
     0
176
     1
290
     0
176
     1
290
     0
176
     1
290
     0
176
     1
 90
       50
176
     1
 40
0.0
176
     1
 40
1.0
176
     1
 90
        0
176
     1
 62
    18
420
        0
176
     1
 90
       50
176
     1
 90
        3
176
     1
 62
     5
420
      255
176
     1
290
     0
176
     1
 90
       50
176
     1
 90
       50
176
     1
 90
       50
176
     1
290
     0
176
     1
 90
       50
176
     1
 62
   256
176
     0
 40
1.0
176
     0
 90
        2
176
     1
  1
strokes_ogs.tif
176
     1
290
     0
176
     1
 40
1.0
176
     1
 40
1.0
176
     1
  0
VISUALSTYLE
  5
100AF
102
{ACAD_REACTORS
330
10063
102
}
330
10063
100
AcDbVisualStyle
  2
Brighten
 70
    12
177
     3
291
     1
 70
    58
 90
        2
176
     1
 90
        2
176
     1
 90
        0
176
     1
 90
        0
176
     1
 40
0.6
176
     1
 40
30.0
176
     1
 62
     7
420
 16777215
176
     1
 90
        1
176
     1
 90
        4
176
     1
 62
     7
176
     1
 62
   257
176
     1
 90
        1
176
     1
 90
        1
176
     1
 40
1.0
176
     1
 90
        8
176
     1
 62
     7
176
     1
 40
1.0
176
     1
 90
        1
176
     1
 90
        6
176
     1
 90
        2
176
     1
 62
     7
176
     1
 90
        5
176
     1
 90
        0
176
     1
 90
        0
176
     1
290
     0
176
     1
 90
        1
176
     1
 40
50.0
176
     1
 90
        0
176
     1
290
     0
176
     1
290
     1
176
     1
290
     1
176
     1
290
     0
176
     1
290
     0
176
     1
290
     0
176
     1
290
     0
176
     1
290
     0
176
     1
290
     0
176
     1
 90
       50
176
     1
 40
0.0
176
     1
 40
1.0
176
     1
 90
        0
176
     1
 62
    18
420
        0
176
     1
 90
       50
176
     1
 90
        3
176
     1
 62
     5
420
      255
176
     1
290
     0
176
     1
 90
       50
176
     1
 90
       50
176
     1
 90
       50
176
     1
290
     0
176
     1
 90
       50
176
     1
 62
   256
176
     0
 40
1.0
176
     0
 90
        2
176
     1
  1
strokes_ogs.tif
176
     1
290
     0
176
     1
 40
1.0
176
     1
 40
1.0
176
     1
  0
VISUALSTYLE
  5
100B3
102
{ACAD_REACTORS
330
10063
102
}
330
10063
100
AcDbVisualStyle
  2
ColorChange
 70
    16
177
     3
291
     1
 70
    58
 90
        2
176
     1
 90
        2
176
     1
 90
        3
176
     1
 90
        0
176
     1
 40
0.6
176
     1
 40
30.0
176
     1
 62
     8
420
  8421504
176
     1
 90
        1
176
     1
 90
        4
176
     1
 62
     7
176
     1
 62
   257
176
     1
 90
        1
176
     1
 90
        1
176
     1
 40
1.0
176
     1
 90
        8
176
     1
 62
     8
420
  8421504
176
     1
 40
1.0
176
     1
 90
        1
176
     1
 90
        6
176
     1
 90
        2
176
     1
 62
     7
176
     1
 90
        5
176
     1
 90
        0
176
     1
 90
        0
176
     1
290
     0
176
     1
 90
        1
176
     1
 40
0.0
176
     1
 90
        0
176
     1
290
     0
176
     1
290
     1
176
     1
290
     1
176
     1
290
     0
176
     1
290
     0
176
     1
290
     0
176
     1
290
     0
176
     1
290
     0
176
     1
290
     0
176
     1
 90
       50
176
     1
 40
0.0
176
     1
 40
1.0
176
     1
 90
        0
176
     1
 62
    18
420
        0
176
     1
 90
       50
176
     1
 90
        3
176
     1
 62
     5
420
      255
176
     1
290
     0
176
     1
 90
       50
176
     1
 90
       50
176
     1
 90
       50
176
     1
290
     0
176
     1
 90
       50
176
     1
 62
   256
176
     0
 40
1.0
176
     0
 90
        2
176
     1
  1
strokes_ogs.tif
176
     1
290
     0
176
     1
 40
1.0
176
     1
 40
1.0
176
     1
  0
VISUALSTYLE
  5
100AD
102
{ACAD_REACTORS
330
10063
102
}
330
10063
100
AcDbVisualStyle
  2
Conceptual
 70
     9
177
     3
291
     0
 70
    58
 90
        3
176
     1
 90
        2
176
     1
 90
        0
176
     1
 90
        0
176
     1
 40
0.6
176
     1
 40
30.0
176
     1
 62
     7
420
 16777215
176
     1
 90
        2
176
     1
 90
        2
176
     1
 62
     7
176
     1
 62
   257
176
     1
 90
        1
176
     1
 90
        1
176
     1
 40
179.0
176
     1
 90
        8
176
     1
 62
     7
176
     1
 40
1.0
176
     1
 90
        1
176
     1
 90
        6
176
     1
 90
        2
176
     1
 62
     7
176
     1
 90
        3
176
     1
 90
        0
176
     1
 90
        0
176
     1
290
     0
176
     1
 90
        1
176
     1
 40
0.0
176
     1
 90
        0
176
     1
290
     0
176
     1
290
     1
176
     1
290
     1
176
     1
290
     0
176
     1
290
     0
176
     1
290
     0
176
     1
290
     0
176
     1
290
     0
176
     1
290
     0
176
     1
 90
       50
176
     1
 40
0.0
176
     1
 40
1.0
176
     1
 90
        0
176
     1
 62
    18
420
        0
176
     1
 90
       50
176
     1
 90
        3
176
     1
 62
     5
420
      255
176
     1
290
     0
176
     1
 90
       50
176
     1
 90
       50
176
     1
 90
       50
176
     1
290
     0
176
     1
 90
       50
176
     1
 62
   256
176
     0
 40
1.0
176
     0
 90
        2
176
     1
  1
strokes_ogs.tif
176
     1
290
     0
176
     1
 40
1.0
176
     1
 40
1.0
176
     1
  0
VISUALSTYLE
  5
100AE
102
{ACAD_REACTORS
330
10063
102
}
330
10063
100
AcDbVisualStyle
  2
Dim
 70
    11
177
     3
291
     1
 70
    58
 90
        2
176
     1
 90
        2
176
     1
 90
        0
176
     1
 90
        0
176
     1
 40
0.6
176
     1
 40
30.0
176
     1
 62
     7
420
 16777215
176
     1
 90
        1
176
     1
 90
        4
176
     1
 62
     7
176
     1
 62
   257
176
     1
 90
        1
176
     1
 90
        1
176
     1
 40
1.0
176
     1
 90
        8
176
     1
 62
     7
176
     1
 40
1.0
176
     1
 90
        1
176
     1
 90
        6
176
     1
 90
        2
176
     1
 62
     7
176
     1
 90
        5
176
     1
 90
        0
176
     1
 90
        0
176
     1
290
     0
176
     1
 90
        1
176
     1
 40
-50.0
176
     1
 90
        0
176
     1
290
     0
176
     1
290
     1
176
     1
290
     1
176
     1
290
     0
176
     1
290
     0
176
     1
290
     0
176
     1
290
     0
176
     1
290
     0
176
     1
290
     0
176
     1
 90
       50
176
     1
 40
0.0
176
     1
 40
1.0
176
     1
 90
        0
176
     1
 62
    18
420
        0
176
     1
 90
       50
176
     1
 90
        3
176
     1
 62
     5
420
      255
176
     1
290
     0
176
     1
 90
       50
176
     1
 90
       50
176
     1
 90
       50
176
     1
290
     0
176
     1
 90
       50
176
     1
 62
   256
176
     0
 40
1.0
176
     0
 90
        2
176
     1
  1
strokes_ogs.tif
176
     1
290
     0
176
     1
 40
1.0
176
     1
 40
1.0
176
     1
  0
VISUALSTYLE
  5
100B6
102
{ACAD_REACTORS
330
10063
102
}
330
10063
100
AcDbVisualStyle
  2
EdgeColorOff
 70
    22
177
     3
291
     1
 70
    58
 90
        2
176
     0
 90
        2
176
     0
 90
        0
176
     0
 90
        0
176
     0
 40
0.6
176
     0
 40
30.0
176
     0
 62
     7
420
 16777215
176
     0
 90
        1
176
     0
 90
        4
176
     0
 62
     7
176
     0
 62
   257
176
     0
 90
        1
176
     0
 90
        1
176
     0
 40
1.0
176
     0
 90
        8
176
     2
 62
     7
176
     0
 40
1.0
176
     0
 90
        1
176
     0
 90
        6
176
     0
 90
        2
176
     0
 62
     7
176
     0
 90
        5
176
     0
 90
        0
176
     0
 90
        0
176
     0
290
     0
176
     0
 90
        1
176
     0
 40
0.0
176
     0
 90
        0
176
     0
290
     0
176
     0
290
     1
176
     0
290
     1
176
     0
290
     0
176
     0
290
     0
176
     0
290
     0
176
     0
290
     0
176
     0
290
     0
176
     0
290
     0
176
     0
 90
       50
176
     0
 40
0.0
176
     0
 40
1.0
176
     0
 90
        0
176
     0
 62
    18
420
        0
176
     0
 90
       50
176
     0
 90
        3
176
     0
 62
     5
420
      255
176
     0
290
     0
176
     0
 90
       50
176
     0
 90
       50
176
     0
 90
       50
176
     0
290
     0
176
     0
 90
       50
176
     0
 62
   256
176
     0
 40
1.0
176
     0
 90
        2
176
     0
  1
strokes_ogs.tif
176
     0
290
     0
176
     0
 40
1.0
176
     0
 40
1.0
176
     0
  0
VISUALSTYLE
  5
100B2
102
{ACAD_REACTORS
330
10063
102
}
330
10063
100
AcDbVisualStyle
  2
Facepattern
 70
    15
177
     3
291
     1
 70
    58
 90
        2
176
     1
 90
        2
176
     1
 90
        0
176
     1
 90
        0
176
     1
 40
0.6
176
     1
 40
30.0
176
     1
 62
     7
420
 16777215
176
     1
 90
        1
176
     1
 90
        4
176
     1
 62
     7
176
     1
 62
   257
176
     1
 90
        1
176
     1
 90
        1
176
     1
 40
1.0
176
     1
 90
        8
176
     1
 62
     7
176
     1
 40
1.0
176
     1
 90
        1
176
     1
 90
        6
176
     1
 90
        2
176
     1
 62
     7
176
     1
 90
        5
176
     1
 90
        0
176
     1
 90
        0
176
     1
290
     0
176
     1
 90
        1
176
     1
 40
0.0
176
     1
 90
        0
176
     1
290
     0
176
     1
290
     1
176
     1
290
     1
176
     1
290
     0
176
     1
290
     0
176
     1
290
     0
176
     1
290
     0
176
     1
290
     0
176
     1
290
     0
176
     1
 90
       50
176
     1
 40
0.0
176
     1
 40
1.0
176
     1
 90
        0
176
     1
 62
    18
420
        0
176
     1
 90
       50
176
     1
 90
        3
176
     1
 62
     5
420
      255
176
     1
290
     0
176
     1
 90
       50
176
     1
 90
       50
176
     1
 90
       50
176
     1
290
     0
176
     1
 90
       50
176
     1
 62
   256
176
     0
 40
1.0
176
     0
 90
        2
176
     1
  1
strokes_ogs.tif
176
     1
290
     0
176
     1
 40
1.0
176
     1
 40
1.0
176
     1
  0
VISUALSTYLE
  5
100A4
102
{ACAD_REACTORS
330
10063
102
}
330
10063
100
AcDbVisualStyle
  2
Flat
 70
     0
177
     3
291
     1
 70
    58
 90
        2
176
     1
 90
        1
176
     1
 90
        1
176
     1
 90
        2
176
     1
 40
0.6
176
     1
 40
30.0
176
     1
 62
     7
420
 16777215
176
     1
 90
        0
176
     1
 90
        0
176
     1
 62
     7
176
     1
 62
   257
176
     1
 90
        1
176
     1
 90
        1
176
     1
 40
1.0
176
     1
 90
        8
176
     1
 62
     7
176
     1
 40
1.0
176
     1
 90
        1
176
     1
 90
        6
176
     1
 90
        2
176
     1
 62
     7
176
     1
 90
        5
176
     1
 90
        0
176
     1
 90
        0
176
     1
290
     0
176
     1
 90
       13
176
     1
 40
0.0
176
     1
 90
        0
176
     1
290
     0
176
     1
290
     1
176
     1
290
     1
176
     1
290
     0
176
     1
290
     0
176
     1
290
     0
176
     1
290
     0
176
     1
290
     0
176
     1
290
     0
176
     1
 90
       50
176
     1
 40
0.0
176
     1
 40
1.0
176
     1
 90
        0
176
     1
 62
    18
420
        0
176
     1
 90
       50
176
     1
 90
        3
176
     1
 62
     5
420
      255
176
     1
290
     0
176
     1
 90
       50
176
     1
 90
       50
176
     1
 90
       50
176
     1
290
     0
176
     1
 90
       50
176
     1
 62
   256
176
     0
 40
1.0
176
     0
 90
        2
176
     1
  1
strokes_ogs.tif
176
     1
290
     0
176
     1
 40
1.0
176
     1
 40
1.0
176
     1
  0
VISUALSTYLE
  5
100A5
102
{ACAD_REACTORS
330
10063
102
}
330
10063
100
AcDbVisualStyle
  2
FlatWithEdges
 70
     1
177
     3
291
     1
 70
    58
 90
        2
176
     1
 90
        1
176
     1
 90
        1
176
     1
 90
        2
176
     1
 40
0.6
176
     1
 40
30.0
176
     1
 62
     7
420
 16777215
176
     1
 90
        1
176
     1
 90
        0
176
     1
 62
     7
176
     1
 62
   257
176
     1
 90
        1
176
     1
 90
        1
176
     1
 40
1.0
176
     1
 90
        0
176
     1
 62
   257
176
     1
 40
1.0
176
     1
 90
        1
176
     1
 90
        6
176
     1
 90
        2
176
     1
 62
     7
176
     1
 90
        5
176
     1
 90
        0
176
     1
 90
        0
176
     1
290
     0
176
     1
 90
       13
176
     1
 40
0.0
176
     1
 90
        0
176
     1
290
     0
176
     1
290
     1
176
     1
290
     1
176
     1
290
     0
176
     1
290
     0
176
     1
290
     0
176
     1
290
     0
176
     1
290
     0
176
     1
290
     0
176
     1
 90
       50
176
     1
 40
0.0
176
     1
 40
1.0
176
     1
 90
        0
176
     1
 62
    18
420
        0
176
     1
 90
       50
176
     1
 90
        3
176
     1
 62
     5
420
      255
176
     1
290
     0
176
     1
 90
       50
176
     1
 90
       50
176
     1
 90
       50
176
     1
290
     0
176
     1
 90
       50
176
     1
 62
   256
176
     0
 40
1.0
176
     0
 90
        2
176
     1
  1
strokes_ogs.tif
176
     1
290
     0
176
     1
 40
1.0
176
     1
 40
1.0
176
     1
  0
VISUALSTYLE
  5
100A6
102
{ACAD_REACTORS
330
10063
102
}
330
10063
100
AcDbVisualStyle
  2
Gouraud
 70
     2
177
     3
291
     1
 70
    58
 90
        2
176
     1
 90
        2
176
     1
 90
        1
176
     1
 90
        2
176
     1
 40
0.6
176
     1
 40
30.0
176
     1
 62
     7
420
 16777215
176
     1
 90
        0
176
     1
 90
        0
176
     1
 62
     7
176
     1
 62
   257
176
     1
 90
        1
176
     1
 90
        1
176
     1
 40
1.0
176
     1
 90
        0
176
     1
 62
     7
176
     1
 40
1.0
176
     1
 90
        1
176
     1
 90
        6
176
     1
 90
        2
176
     1
 62
     7
176
     1
 90
        5
176
     1
 90
        0
176
     1
 90
        0
176
     1
290
     0
176
     1
 90
       13
176
     1
 40
0.0
176
     1
 90
        0
176
     1
290
     0
176
     1
290
     1
176
     1
290
     1
176
     1
290
     0
176
     1
290
     0
176
     1
290
     0
176
     1
290
     0
176
     1
290
     0
176
     1
290
     0
176
     1
 90
       50
176
     1
 40
0.0
176
     1
 40
1.0
176
     1
 90
        0
176
     1
 62
    18
420
        0
176
     1
 90
       50
176
     1
 90
        3
176
     1
 62
     5
420
      255
176
     1
290
     0
176
     1
 90
       50
176
     1
 90
       50
176
     1
 90
       50
176
     1
290
     0
176
     1
 90
       50
176
     1
 62
   256
176
     0
 40
1.0
176
     0
 90
        2
176
     1
  1
strokes_ogs.tif
176
     1
290
     0
176
     1
 40
1.0
176
     1
 40
1.0
176
     1
  0
VISUALSTYLE
  5
100A7
102
{ACAD_REACTORS
330
10063
102
}
330
10063
100
AcDbVisualStyle
  2
GouraudWithEdges
 70
     3
177
     3
291
     1
 70
    58
 90
        2
176
     1
 90
        2
176
     1
 90
        1
176
     1
 90
        2
176
     1
 40
0.6
176
     1
 40
30.0
176
     1
 62
     7
420
 16777215
176
     1
 90
        1
176
     1
 90
        0
176
     1
 62
     7
176
     1
 62
   257
176
     1
 90
        1
176
     1
 90
        1
176
     1
 40
1.0
176
     1
 90
        0
176
     1
 62
   257
176
     1
 40
1.0
176
     1
 90
        1
176
     1
 90
        6
176
     1
 90
        2
176
     1
 62
     7
176
     1
 90
        5
176
     1
 90
        0
176
     1
 90
        0
176
     1
290
     0
176
     1
 90
       13
176
     1
 40
0.0
176
     1
 90
        0
176
     1
290
     0
176
     1
290
     1
176
     1
290
     1
176
     1
290
     0
176
     1
290
     0
176
     1
290
     0
176
     1
290
     0
176
     1
290
     0
176
     1
290
     0
176
     1
 90
       50
176
     1
 40
0.0
176
     1
 40
1.0
176
     1
 90
        0
176
     1
 62
    18
420
        0
176
     1
 90
       50
176
     1
 90
        3
176
     1
 62
     5
420
      255
176
     1
290
     0
176
     1
 90
       50
176
     1
 90
       50
176
     1
 90
       50
176
     1
290
     0
176
     1
 90
       50
176
     1
 62
   256
176
     0
 40
1.0
176
     0
 90
        2
176
     1
  1
strokes_ogs.tif
176
     1
290
     0
176
     1
 40
1.0
176
     1
 40
1.0
176
     1
  0
VISUALSTYLE
  5
100AA
102
{ACAD_REACTORS
330
10063
102
}
330
10063
100
AcDbVisualStyle
  2
Hidden
 70
     6
177
     3
291
     0
 70
    58
 90
        1
176
     1
 90
        2
176
     1
 90
        2
176
     1
 90
        0
176
     1
 40
0.6
176
     1
 40
30.0
176
     1
 62
     7
420
 16777215
176
     1
 90
        2
176
     1
 90
        2
176
     1
 62
     7
176
     1
 62
   257
176
     1
 90
        2
176
     1
 90
        1
176
     1
 40
40.0
176
     1
 90
        0
176
     1
 62
   257
176
     1
 40
1.0
176
     1
 90
        1
176
     1
 90
        6
176
     1
 90
        2
176
     1
 62
     7
176
     1
 90
        3
176
     1
 90
        0
176
     1
 90
        0
176
     1
290
     0
176
     1
 90
        1
176
     1
 40
0.0
176
     1
 90
        0
176
     1
290
     0
176
     1
290
     1
176
     1
290
     1
176
     1
290
     0
176
     1
290
     0
176
     1
290
     0
176
     1
290
     0
176
     1
290
     0
176
     1
290
     0
176
     1
 90
       50
176
     1
 40
0.0
176
     1
 40
1.0
176
     1
 90
        0
176
     1
 62
    18
420
        0
176
     1
 90
       50
176
     1
 90
        3
176
     1
 62
     5
420
      255
176
     1
290
     0
176
     1
 90
       50
176
     1
 90
       50
176
     1
 90
       50
176
     1
290
     0
176
     1
 90
       50
176
     1
 62
   256
176
     0
 40
1.0
176
     0
 90
        2
176
     1
  1
strokes_ogs.tif
176
     1
290
     0
176
     1
 40
1.0
176
     1
 40
1.0
176
     1
  0
VISUALSTYLE
  5
100B4
102
{ACAD_REACTORS
330
10063
102
}
330
10063
100
AcDbVisualStyle
  2
JitterOff
 70
    20
177
     3
291
     1
 70
    58
 90
        2
176
     0
 90
        2
176
     0
 90
        0
176
     0
 90
        0
176
     0
 40
0.6
176
     0
 40
30.0
176
     0
 62
     7
420
 16777215
176
     0
 90
        1
176
     0
 90
        4
176
     0
 62
     7
176
     0
 62
   257
176
     0
 90
        1
176
     0
 90
        1
176
     0
 40
1.0
176
     0
 90
       10
176
     2
 62
     7
176
     0
 40
1.0
176
     0
 90
        1
176
     0
 90
        6
176
     0
 90
        2
176
     0
 62
     7
176
     0
 90
        5
176
     0
 90
        0
176
     0
 90
        0
176
     0
290
     0
176
     0
 90
        1
176
     0
 40
0.0
176
     0
 90
        0
176
     0
290
     0
176
     0
290
     1
176
     0
290
     1
176
     0
290
     0
176
     0
290
     0
176
     0
290
     0
176
     0
290
     0
176
     0
290
     0
176
     0
290
     0
176
     0
 90
       50
176
     0
 40
0.0
176
     0
 40
1.0
176
     0
 90
        0
176
     0
 62
    18
420
        0
176
     0
 90
       50
176
     0
 90
        3
176
     0
 62
     5
420
      255
176
     0
290
     0
176
     0
 90
       50
176
     0
 90
       50
176
     0
 90
       50
176
     0
290
     0
176
     0
 90
       50
176
     0
 62
   256
176
     0
 40
1.0
176
     0
 90
        2
176
     0
  1
strokes_ogs.tif
176
     0
290
     0
176
     0
 40
1.0
176
     0
 40
1.0
176
     0
  0
VISUALSTYLE
  5
100B1
102
{ACAD_REACTORS
330
10063
102
}
330
10063
100
AcDbVisualStyle
  2
Linepattern
 70
    14
177
     3
291
     1
 70
    58
 90
        2
176
     1
 90
        2
176
     1
 90
        0
176
     1
 90
        0
176
     1
 40
0.6
176
     1
 40
30.0
176
     1
 62
     7
420
 16777215
176
     1
 90
        1
176
     1
 90
        4
176
     1
 62
     7
176
     1
 62
   257
176
     1
 90
        7
176
     1
 90
        7
176
     1
 40
1.0
176
     1
 90
        8
176
     1
 62
     7
176
     1
 40
1.0
176
     1
 90
        1
176
     1
 90
        6
176
     1
 90
        2
176
     1
 62
     7
176
     1
 90
        5
176
     1
 90
        0
176
     1
 90
        0
176
     1
290
     0
176
     1
 90
        1
176
     1
 40
0.0
176
     1
 90
        0
176
     1
290
     0
176
     1
290
     1
176
     1
290
     1
176
     1
290
     0
176
     1
290
     0
176
     1
290
     0
176
     1
290
     0
176
     1
290
     0
176
     1
290
     0
176
     1
 90
       50
176
     1
 40
0.0
176
     1
 40
1.0
176
     1
 90
        0
176
     1
 62
    18
420
        0
176
     1
 90
       50
176
     1
 90
        3
176
     1
 62
     5
420
      255
176
     1
290
     0
176
     1
 90
       50
176
     1
 90
       50
176
     1
 90
       50
176
     1
290
     0
176
     1
 90
       50
176
     1
 62
   256
176
     0
 40
1.0
176
     0
 90
        2
176
     1
  1
strokes_ogs.tif
176
     1
290
     0
176
     1
 40
1.0
176
     1
 40
1.0
176
     1
  0
VISUALSTYLE
  5
100B5
102
{ACAD_REACTORS
330
10063
102
}
330
10063
100
AcDbVisualStyle
  2
OverhangOff
 70
    21
177
     3
291
     1
 70
    58
 90
        2
176
     0
 90
        2
176
     0
 90
        0
176
     0
 90
        0
176
     0
 40
0.6
176
     0
 40
30.0
176
     0
 62
     7
420
 16777215
176
     0
 90
        1
176
     0
 90
        4
176
     0
 62
     7
176
     0
 62
   257
176
     0
 90
        1
176
     0
 90
        1
176
     0
 40
1.0
176
     0
 90
        9
176
     2
 62
     7
176
     0
 40
1.0
176
     0
 90
        1
176
     0
 90
        6
176
     0
 90
        2
176
     0
 62
     7
176
     0
 90
        5
176
     0
 90
        0
176
     0
 90
        0
176
     0
290
     0
176
     0
 90
        1
176
     0
 40
0.0
176
     0
 90
        0
176
     0
290
     0
176
     0
290
     1
176
     0
290
     1
176
     0
290
     0
176
     0
290
     0
176
     0
290
     0
176
     0
290
     0
176
     0
290
     0
176
     0
290
     0
176
     0
 90
       50
176
     0
 40
0.0
176
     0
 40
1.0
176
     0
 90
        0
176
     0
 62
    18
420
        0
176
     0
 90
       50
176
     0
 90
        3
176
     0
 62
     5
420
      255
176
     0
290
     0
176
     0
 90
       50
176
     0
 90
       50
176
     0
 90
       50
176
     0
290
     0
176
     0
 90
       50
176
     0
 62
   256
176
     0
 40
1.0
176
     0
 90
        2
176
     0
  1
strokes_ogs.tif
176
     0
290
     0
176
     0
 40
1.0
176
     0
 40
1.0
176
     0
  0
VISUALSTYLE
  5
100AC
102
{ACAD_REACTORS
330
10063
102
}
330
10063
100
AcDbVisualStyle
  2
Realistic
 70
     8
177
     3
291
     0
 70
    58
 90
        2
176
     1
 90
        3
176
     1
 90
        0
176
     1
 90
        2
176
     1
 40
0.6
176
     1
 40
30.0
176
     1
 62
     7
420
 16777215
176
     1
 90
        0
176
     1
 90
        0
176
     1
 62
     7
176
     1
 62
   257
176
     1
 90
        1
176
     1
 90
        1
176
     1
 40
1.0
176
     1
 90
        8
176
     1
 62
   257
176
     1
 40
1.0
176
     1
 90
        1
176
     1
 90
        6
176
     1
 90
        2
176
     1
 62
     7
176
     1
 90
        3
176
     1
 90
        0
176
     1
 90
        0
176
     1
290
     0
176
     1
 90
       13
176
     1
 40
0.0
176
     1
 90
        0
176
     1
290
     0
176
     1
290
     1
176
     1
290
     1
176
     1
290
     0
176
     1
290
     0
176
     1
290
     0
176
     1
290
     0
176
     1
290
     0
176
     1
290
     0
176
     1
 90
       50
176
     1
 40
0.0
176
     1
 40
1.0
176
     1
 90
        0
176
     1
 62
    18
420
        0
176
     1
 90
       50
176
     1
 90
        3
176
     1
 62
     5
420
      255
176
     1
290
     0
176
     1
 90
       50
176
     1
 90
       50
176
     1
 90
       50
176
     1
290
     0
176
     1
 90
       50
176
     1
 62
   256
176
     0
 40
1.0
176
     0
 90
        2
176
     1
  1
strokes_ogs.tif
176
     1
290
     0
176
     1
 40
1.0
176
     1
 40
1.0
176
     1
  0
VISUALSTYLE
  5
100BB
102
{ACAD_REACTORS
330
10063
102
}
330
10063
100
AcDbVisualStyle
  2
Shaded
 70
    27
177
     3
291
     0
 70
    58
 90
        2
176
     1
 90
        2
176
     1
 90
        1
176
     1
 90
        2
176
     1
 40
0.6
176
     1
 40
30.0
176
     1
 62
     7
420
 16777215
176
     1
 90
        0
176
     1
 90
        4
176
     1
 62
     7
176
     1
 62
   257
176
     1
 90
        1
176
     1
 90
        1
176
     1
 40
1.0
176
     1
 90
        8
176
     1
 62
   257
176
     1
 40
1.0
176
     1
 90
        1
176
     1
 90
        6
176
     1
 90
        2
176
     1
 62
     8
420
  7895160
176
     1
 90
        3
176
     1
 90
        0
176
     1
 90
        0
176
     1
290
     0
176
     1
 90
        5
176
     1
 40
0.0
176
     1
 90
        0
176
     1
290
     0
176
     1
290
     1
176
     1
290
     1
176
     1
290
     0
176
     1
290
     0
176
     1
290
     0
176
     1
290
     0
176
     1
290
     0
176
     1
290
     0
176
     1
 90
       50
176
     1
 40
0.0
176
     1
 40
1.0
176
     1
 90
        0
176
     1
 62
    18
420
        0
176
     1
 90
       50
176
     1
 90
        3
176
     1
 62
     5
420
      255
176
     1
290
     0
176
     1
 90
       50
176
     1
 90
       50
176
     1
 90
       50
176
     1
290
     0
176
     1
 90
       50
176
     1
 62
   256
176
     0
 40
1.0
176
     0
 90
        2
176
     1
  1
strokes_ogs.tif
176
     1
290
     0
176
     1
 40
1.0
176
     1
 40
1.0
176
     1
  0
VISUALSTYLE
  5
100BA
102
{ACAD_REACTORS
330
10063
102
}
330
10063
100
AcDbVisualStyle
  2
Shaded with edges
 70
    26
177
     3
291
     0
 70
    58
 90
        2
176
     1
 90
        2
176
     1
 90
        1
176
     1
 90
        2
176
     1
 40
0.6
176
     1
 40
30.0
176
     1
 62
     7
420
 16777215
176
     1
 90
        1
176
     1
 90
       10
176
     1
 62
     7
176
     1
 62
   257
176
     1
 90
        2
176
     1
 90
        1
176
     1
 40
1.0
176
     1
 90
        8
176
     1
 62
   257
176
     1
 40
1.0
176
     1
 90
        1
176
     1
 90
        6
176
     1
 90
        2
176
     1
 62
     7
176
     1
 90
        3
176
     1
 90
        0
176
     1
 90
        0
176
     1
290
     0
176
     1
 90
        5
176
     1
 40
0.0
176
     1
 90
        0
176
     1
290
     0
176
     1
290
     1
176
     1
290
     1
176
     1
290
     0
176
     1
290
     0
176
     1
290
     0
176
     1
290
     0
176
     1
290
     0
176
     1
290
     0
176
     1
 90
       50
176
     1
 40
0.0
176
     1
 40
1.0
176
     1
 90
        0
176
     1
 62
    18
420
        0
176
     1
 90
       50
176
     1
 90
        3
176
     1
 62
     5
420
      255
176
     1
290
     0
176
     1
 90
       50
176
     1
 90
       50
176
     1
 90
       50
176
     1
290
     0
176
     1
 90
       50
176
     1
 62
   256
176
     0
 40
1.0
176
     0
 90
        2
176
     1
  1
strokes_ogs.tif
176
     1
290
     0
176
     1
 40
1.0
176
     1
 40
1.0
176
     1
  0
VISUALSTYLE
  5
100B7
102
{ACAD_REACTORS
330
10063
102
}
330
10063
100
AcDbVisualStyle
  2
Shades of Gray
 70
    23
177
     3
291
     0
 70
    58
 90
        2
176
     1
 90
        2
176
     1
 90
        3
176
     1
 90
        0
176
     1
 40
0.6
176
     1
 40
30.0
176
     1
 62
     7
420
 16777215
176
     1
 90
        2
176
     1
 90
        2
176
     1
 62
     7
176
     1
 62
     7
176
     1
 90
        1
176
     1
 90
        1
176
     1
 40
40.0
176
     1
 90
        8
176
     1
 62
     7
176
     1
 40
1.0
176
     1
 90
        1
176
     1
 90
        6
176
     1
 90
        2
176
     1
 62
     7
176
     1
 90
        3
176
     1
 90
        0
176
     1
 90
        0
176
     1
290
     0
176
     1
 90
        1
176
     1
 40
0.0
176
     1
 90
        0
176
     1
290
     0
176
     1
290
     1
176
     1
290
     1
176
     1
290
     0
176
     1
290
     0
176
     1
290
     0
176
     1
290
     0
176
     1
290
     0
176
     1
290
     0
176
     1
 90
       50
176
     1
 40
0.0
176
     1
 40
1.0
176
     1
 90
        0
176
     1
 62
    18
420
        0
176
     1
 90
       50
176
     1
 90
        3
176
     1
 62
     5
420
      255
176
     1
290
     0
176
     1
 90
       50
176
     1
 90
       50
176
     1
 90
       50
176
     1
290
     0
176
     1
 90
       50
176
     1
 62
   256
176
     0
 40
1.0
176
     0
 90
        2
176
     1
  1
strokes_ogs.tif
176
     1
290
     0
176
     1
 40
1.0
176
     1
 40
1.0
176
     1
  0
VISUALSTYLE
  5
100B8
102
{ACAD_REACTORS
330
10063
102
}
330
10063
100
AcDbVisualStyle
  2
Sketchy
 70
    24
177
     3
291
     0
 70
    58
 90
        1
176
     1
 90
        2
176
     1
 90
        2
176
     1
 90
        0
176
     1
 40
0.6
176
     1
 40
30.0
176
     1
 62
     7
420
 16777215
176
     1
 90
        2
176
     1
 90
        2
176
     1
 62
     7
176
     1
 62
     7
176
     1
 90
        1
176
     1
 90
        1
176
     1
 40
40.0
176
     1
 90
       11
176
     1
 62
     7
176
     1
 40
1.0
176
     1
 90
        1
176
     1
 90
        6
176
     1
 90
        2
176
     1
 62
     7
176
     1
 90
        6
176
     1
 90
        0
176
     1
 90
        0
176
     1
290
     0
176
     1
 90
        1
176
     1
 40
0.0
176
     1
 90
        0
176
     1
290
     0
176
     1
290
     1
176
     1
290
     1
176
     1
290
     0
176
     1
290
     0
176
     1
290
     0
176
     1
290
     0
176
     1
290
     0
176
     1
290
     0
176
     1
 90
       50
176
     1
 40
0.0
176
     1
 40
1.0
176
     1
 90
        0
176
     1
 62
    18
420
        0
176
     1
 90
       50
176
     1
 90
        3
176
     1
 62
     5
420
      255
176
     1
290
     0
176
     1
 90
       50
176
     1
 90
       50
176
     1
 90
       50
176
     1
290
     0
176
     1
 90
       50
176
     1
 62
   256
176
     0
 40
1.0
176
     0
 90
        2
176
     1
  1
strokes_ogs.tif
176
     1
290
     0
176
     1
 40
1.0
176
     1
 40
1.0
176
     1
  0
VISUALSTYLE
  5
100B0
102
{ACAD_REACTORS
330
10063
102
}
330
10063
100
AcDbVisualStyle
  2
Thicken
 70
    13
177
     3
291
     1
 70
    58
 90
        2
176
     1
 90
        2
176
     1
 90
        0
176
     1
 90
        0
176
     1
 40
0.6
176
     1
 40
30.0
176
     1
 62
     7
420
 16777215
176
     1
 90
        1
176
     1
 90
        4
176
     1
 62
     7
176
     1
 62
   257
176
     1
 90
        1
176
     1
 90
        1
176
     1
 40
1.0
176
     1
 90
       12
176
     1
 62
     7
176
     1
 40
1.0
176
     1
 90
        1
176
     1
 90
        6
176
     1
 90
        2
176
     1
 62
     7
176
     1
 90
        5
176
     1
 90
        0
176
     1
 90
        0
176
     1
290
     0
176
     1
 90
        1
176
     1
 40
0.0
176
     1
 90
        0
176
     1
290
     0
176
     1
290
     1
176
     1
290
     1
176
     1
290
     0
176
     1
290
     0
176
     1
290
     0
176
     1
290
     0
176
     1
290
     0
176
     1
290
     0
176
     1
 90
       50
176
     1
 40
0.0
176
     1
 40
1.0
176
     1
 90
        0
176
     1
 62
    18
420
        0
176
     1
 90
       50
176
     1
 90
        3
176
     1
 62
     5
420
      255
176
     1
290
     0
176
     1
 90
       50
176
     1
 90
       50
176
     1
 90
       50
176
     1
290
     0
176
     1
 90
       50
176
     1
 62
   256
176
     0
 40
1.0
176
     0
 90
        2
176
     1
  1
strokes_ogs.tif
176
     1
290
     0
176
     1
 40
1.0
176
     1
 40
1.0
176
     1
  0
VISUALSTYLE
  5
100A9
102
{ACAD_REACTORS
330
10063
102
}
330
10063
100
AcDbVisualStyle
  2
Wireframe
 70
     5
177
     3
291
     0
 70
    58
 90
        0
176
     1
 90
        2
176
     1
 90
        0
176
     1
 90
        0
176
     1
 40
0.6
176
     1
 40
30.0
176
     1
 62
     7
420
 16777215
176
     1
 90
        1
176
     1
 90
        4
176
     1
 62
     7
176
     1
 62
   257
176
     1
 90
        1
176
     1
 90
        1
176
     1
 40
1.0
176
     1
 90
        0
176
     1
 62
   257
176
     1
 40
1.0
176
     1
 90
        1
176
     1
 90
        6
176
     1
 90
        2
176
     1
 62
     7
176
     1
 90
        3
176
     1
 90
        0
176
     1
 90
        0
176
     1
290
     0
176
     1
 90
        1
176
     1
 40
0.0
176
     1
 90
        0
176
     1
290
     0
176
     1
290
     1
176
     1
290
     1
176
     1
290
     0
176
     1
290
     0
176
     1
290
     0
176
     1
290
     0
176
     1
290
     0
176
     1
290
     0
176
     1
 90
       50
176
     1
 40
0.0
176
     1
 40
1.0
176
     1
 90
        0
176
     1
 62
    18
420
        0
176
     1
 90
       50
176
     1
 90
        3
176
     1
 62
     5
420
      255
176
     1
290
     0
176
     1
 90
       50
176
     1
 90
       50
176
     1
 90
       50
176
     1
290
     0
176
     1
 90
       50
176
     1
 62
   256
176
     0
 40
1.0
176
     0
 90
        2
176
     1
  1
strokes_ogs.tif
176
     1
290
     0
176
     1
 40
1.0
176
     1
 40
1.0
176
     1
  0
VISUALSTYLE
  5
100B9
102
{ACAD_REACTORS
330
10063
102
}
330
10063
100
AcDbVisualStyle
  2
X-Ray
 70
    25
177
     3
291
     0
 70
    58
 90
        2
176
     1
 90
        2
176
     1
 90
        1
176
     1
 90
        1
176
     1
 40
0.5
176
     1
 40
30.0
176
     1
 62
     7
420
 16777215
176
     1
 90
        1
176
     1
 90
        0
176
     1
 62
     7
176
     1
 62
   257
176
     1
 90
        1
176
     1
 90
        1
176
     1
 40
1.0
176
     1
 90
        8
176
     1
 62
     7
176
     1
 40
1.0
176
     1
 90
        1
176
     1
 90
        6
176
     1
 90
        2
176
     1
 62
     7
176
     1
 90
        3
176
     1
 90
        0
176
     1
 90
        0
176
     1
290
     0
176
     1
 90
       13
176
     1
 40
0.0
176
     1
 90
        0
176
     1
290
     0
176
     1
290
     1
176
     1
290
     1
176
     1
290
     0
176
     1
290
     0
176
     1
290
     0
176
     1
290
     0
176
     1
290
     0
176
     1
290
     0
176
     1
 90
       50
176
     1
 40
0.0
176
     1
 40
1.0
176
     1
 90
        0
176
     1
 62
    18
420
        0
176
     1
 90
       50
176
     1
 90
        3
176
     1
 62
     5
420
      255
176
     1
290
     0
176
     1
 90
       50
176
     1
 90
       50
176
     1
 90
       50
176
     1
290
     0
176
     1
 90
       50
176
     1
 62
   256
176
     0
 40
1.0
176
     0
 90
        2
176
     1
  1
strokes_ogs.tif
176
     1
290
     0
176
     1
 40
1.0
176
     1
 40
1.0
176
     1
  0
DICTIONARYVAR
  5
100BE
102
{ACAD_REACTORS
330
100BD
102
}
330
100BD
100
DictionaryVariables
280
     0
  1
1:1
  0
DICTIONARYVAR
  5
100C3
102
{ACAD_REACTORS
330
100BD
102
}
330
100BD
100
DictionaryVariables
280
     0
  1
Standard
  0
DICTIONARYVAR
  5
100C2
102
{ACAD_REACTORS
330
100BD
102
}
330
100BD
100
DictionaryVariables
280
     0
  1
Standard
  0
DICTIONARYVAR
  5
100C4
102
{ACAD_REACTORS
330
100BD
102
}
330
100BD
100
DictionaryVariables
280
     0
  1
0
  0
DICTIONARYVAR
  5
1008F
330
1008E
100
DictionaryVariables
280
     0
  1
1.3.0 @ 2024-10-06T21:36:26.077498+00:00
  0
DICTIONARY
  5
100BF
330
100BC
100
AcDbDictionary
280
     1
281
     1
  3
ACAD_ROUNDTRIP_2008_TABLESTYLE_CELLSTYLEMAP
360
100C0
  0
CELLSTYLEMAP
  5
100C0
102
{ACAD_REACTORS
330
100BF
102
}
330
100BF
100
AcDbCellStyleMap
 90
        3
300
CELLSTYLE
  1
TABLEFORMAT_BEGIN
 90
        5
170
     1
 91
        0
 92
    32768
 62
   257
 93
        1
300
CONTENTFORMAT
  1
CONTENTFORMAT_BEGIN
 90
        0
 91
        0
 92
        4
 93
        0
300

 40
0.0
140
1.0
 94
        5
 62
     0
340
11
144
0.25
309
CONTENTFORMAT_END
171
     1
301
MARGIN
  1
CELLMARGIN_BEGIN
 40
0.06
 40
0.06
 40
0.06
 40
0.06
 40
0.06
 40
0.06
309
CELLMARGIN_END
 94
        6
 95
        1
302
GRIDFORMAT
  1
GRIDFORMAT_BEGIN
 90
        0
 91
        1
 62
     0
 92
       -2
340
10090
 93
        0
 40
0.045
309
GRIDFORMAT_END
 95
        2
302
GRIDFORMAT
  1
GRIDFORMAT_BEGIN
 90
        0
 91
        1
 62
     0
 92
       -2
340
10090
 93
        0
 40
0.045
309
GRIDFORMAT_END
 95
        4
302
GRIDFORMAT
  1
GRIDFORMAT_BEGIN
 90
        0
 91
        1
 62
     0
 92
       -2
340
10090
 93
        0
 40
0.045
309
GRIDFORMAT_END
 95
        8
302
GRIDFORMAT
  1
GRIDFORMAT_BEGIN
 90
        0
 91
        1
 62
     0
 92
       -2
340
10090
 93
        0
 40
0.045
309
GRIDFORMAT_END
 95
       16
302
GRIDFORMAT
  1
GRIDFORMAT_BEGIN
 90
        0
 91
        1
 62
     0
 92
       -2
340
10090
 93
        0
 40
0.045
309
GRIDFORMAT_END
 95
       32
302
GRIDFORMAT
  1
GRIDFORMAT_BEGIN
 90
        0
 91
        1
 62
     0
 92
       -2
340
10090
 93
        0
 40
0.045
309
GRIDFORMAT_END
309
TABLEFORMAT_END
  1
CELLSTYLE_BEGIN
 90
        1
 91
        1
300
_TITLE
309
CELLSTYLE_END
300
CELLSTYLE
  1
TABLEFORMAT_BEGIN
 90
        5
170
     1
 91
        0
 92
        0
 62
   257
 93
        1
300
CONTENTFORMAT
  1
CONTENTFORMAT_BEGIN
 90
        0
 91
        0
 92
        4
 93
        0
300

 40
0.0
140
1.0
 94
        5
 62
     0
340
11
144
0.18
309
CONTENTFORMAT_END
171
     1
301
MARGIN
  1
CELLMARGIN_BEGIN
 40
0.06
 40
0.06
 40
0.06
 40
0.06
 40
0.06
 40
0.06
309
CELLMARGIN_END
 94
        6
 95
        1
302
GRIDFORMAT
  1
GRIDFORMAT_BEGIN
 90
        0
 91
        1
 62
     0
 92
       -2
340
10090
 93
        0
 40
0.045
309
GRIDFORMAT_END
 95
        2
302
GRIDFORMAT
  1
GRIDFORMAT_BEGIN
 90
        0
 91
        1
 62
     0
 92
       -2
340
10090
 93
        0
 40
0.045
309
GRIDFORMAT_END
 95
        4
302
GRIDFORMAT
  1
GRIDFORMAT_BEGIN
 90
        0
 91
        1
 62
     0
 92
       -2
340
10090
 93
        0
 40
0.045
309
GRIDFORMAT_END
 95
        8
302
GRIDFORMAT
  1
GRIDFORMAT_BEGIN
 90
        0
 91
        1
 62
     0
 92
       -2
340
10090
 93
        0
 40
0.045
309
GRIDFORMAT_END
 95
       16
302
GRIDFORMAT
  1
GRIDFORMAT_BEGIN
 90
        0
 91
        1
 62
     0
 92
       -2
340
10090
 93
        0
 40
0.045
309
GRIDFORMAT_END
 95
       32
302
GRIDFORMAT
  1
GRIDFORMAT_BEGIN
 90
        0
 91
        1
 62
     0
 92
       -2
340
10090
 93
        0
 40
0.045
309
GRIDFORMAT_END
309
TABLEFORMAT_END
  1
CELLSTYLE_BEGIN
 90
        2
 91
        1
300
_HEADER
309
CELLSTYLE_END
300
CELLSTYLE
  1
TABLEFORMAT_BEGIN
 90
        5
170
     1
 91
        0
 92
        0
 62
   257
 93
        1
300
CONTENTFORMAT
  1
CONTENTFORMAT_BEGIN
 90
        0
 91
        0
 92
        4
 93
        0
300

 40
0.0
140
1.0
 94
        2
 62
     0
340
11
144
0.18
309
CONTENTFORMAT_END
171
     1
301
MARGIN
  1
CELLMARGIN_BEGIN
 40
0.06
 40
0.06
 40
0.06
 40
0.06
 40
0.06
 40
0.06
309
CELLMARGIN_END
 94
        6
 95
        1
302
GRIDFORMAT
  1
GRIDFORMAT_BEGIN
 90
        0
 91
        1
 62
     0
 92
       -2
340
10090
 93
        0
 40
0.045
309
GRIDFORMAT_END
 95
        2
302
GRIDFORMAT
  1
GRIDFORMAT_BEGIN
 90
        0
 91
        1
 62
     0
 92
       -2
340
10090
 93
        0
 40
0.045
309
GRIDFORMAT_END
 95
        4
302
GRIDFORMAT
  1
GRIDFORMAT_BEGIN
 90
        0
 91
        1
 62
     0
 92
       -2
340
10090
 93
        0
 40
0.045
309
GRIDFORMAT_END
 95
        8
302
GRIDFORMAT
  1
GRIDFORMAT_BEGIN
 90
        0
 91
        1
 62
     0
 92
       -2
340
10090
 93
        0
 40
0.045
309
GRIDFORMAT_END
 95
       16
302
GRIDFORMAT
  1
GRIDFORMAT_BEGIN
 90
        0
 91
        1
 62
     0
 92
       -2
340
10090
 93
        0
 40
0.045
309
GRIDFORMAT_END
 95
       32
302
GRIDFORMAT
  1
GRIDFORMAT_BEGIN
 90
        0
 91
        1
 62
     0
 92
       -2
340
10090
 93
        0
 40
0.045
309
GRIDFORMAT_END
309
TABLEFORMAT_END
  1
CELLSTYLE_BEGIN
 90
        3
 91
        2
300
_DATA
309
CELLSTYLE_END
  0
ENDSEC
  0
EOF
